<?xml version="1.0" encoding="UTF-8" standalone="no"?>
<svg
   width="730.0"
   height="416.0"
   version="1.1"
   id="svg164"
   sodipodi:docname="cdorg.svg"
   inkscape:version="1.3.2 (091e20ef0f, 2023-11-25, custom)"
   xmlns:inkscape="http://www.inkscape.org/namespaces/inkscape"
   xmlns:sodipodi="http://sodipodi.sourceforge.net/DTD/sodipodi-0.dtd"
   xmlns="http://www.w3.org/2000/svg"
   xmlns:svg="http://www.w3.org/2000/svg">
  <defs
     id="defs164" />
  <sodipodi:namedview
     id="namedview164"
     pagecolor="#ffffff"
     bordercolor="#000000"
     borderopacity="0.25"
     inkscape:showpageshadow="2"
     inkscape:pageopacity="0.0"
     inkscape:pagecheckerboard="0"
     inkscape:deskcolor="#d1d1d1"
     inkscape:zoom="2.0575342"
     inkscape:cx="365"
     inkscape:cy="208.01598"
     inkscape:window-width="2560"
     inkscape:window-height="1440"
     inkscape:window-x="0"
     inkscape:window-y="0"
     inkscape:window-maximized="0"
     inkscape:current-layer="svg164" />
  <g
     transform="matrix(1.6221603,2.8096641,2.8096641,-1.6221603,359.02712,207.48475)"
     stroke-width="0.5"
     fill="none"
     id="g164">
    <!-- hidden lines -->
    <g
       stroke="#0000ff"
       fill="none"
       stroke-dasharray="0.5, 0.5"
       id="g1" />
    <!-- solid lines -->
    <g
       stroke="#82b9ff"
       fill="none"
       id="g163">
      <path
         d="m -42.002143,-72.096648 -15.556349,8.981462"
         id="path1" />
      <path
         d="M -57.558492,-63.115186 V 14.615289"
         id="path2" />
      <path
         d="M 57.558492,-14.615289 42.002143,-5.6338264"
         id="path3" />
      <path
         d="M 19.943625,-18.369317 42.002143,-5.6338264"
         id="path4" />
      <path
         d="m 19.943625,-18.369317 14.142136,-8.164966"
         id="path5" />
      <path
         d="m -27.786082,-62.256009 61.871843,35.721726"
         id="path6" />
      <path
         d="m -41.928218,-54.091043 14.142136,-8.164966"
         id="path7" />
      <path
         d="m -57.558492,-63.115186 15.630274,9.024143"
         id="path8" />
      <path
         d="m -42.002143,-72.096648 99.560635,57.481359"
         id="path9" />
      <path
         d="m -57.558492,14.615289 15.630274,9.024143"
         id="path10" />
      <path
         d="M -41.928218,23.639432 V 22.986234"
         id="path11" />
      <path
         d="M -41.928218,22.986234 -56.992807,14.28869"
         id="path12" />
      <path
         d="M -56.992807,14.28869 V 5.3072278"
         id="path13" />
      <path
         d="m -56.992807,5.3072278 15.064589,8.6975442"
         id="path14" />
      <path
         d="M -41.928218,14.004772 V 13.351575"
         id="path15" />
      <path
         d="M -41.928218,13.351575 -56.992807,4.6540305"
         id="path16" />
      <path
         d="M -56.992807,4.6540305 V -4.3274319"
         id="path17" />
      <path
         d="m -56.992807,-4.3274319 15.064589,8.6975443"
         id="path18" />
      <path
         d="M -41.928218,4.3701124 V 3.7169151"
         id="path19" />
      <path
         d="M -41.928218,3.7169151 -56.992807,-4.9806291"
         id="path20" />
      <path
         d="M -56.992807,-4.9806291 V -13.962092"
         id="path21" />
      <path
         d="m -56.992807,-13.962092 15.064589,8.6975447"
         id="path22" />
      <path
         d="M -41.928218,-5.2645473 V -5.9177445"
         id="path23" />
      <path
         d="M -41.928218,-5.9177445 -56.992807,-14.615289"
         id="path24" />
      <path
         d="m -56.992807,-14.615289 v -8.981462"
         id="path25" />
      <path
         d="m -56.992807,-23.596751 15.064589,8.697544"
         id="path26" />
      <path
         d="m -41.928218,-14.899207 v -0.653197"
         id="path27" />
      <path
         d="m -41.928218,-15.552404 -15.064589,-8.697544"
         id="path28" />
      <path
         d="m -56.992807,-24.249948 v -8.981463"
         id="path29" />
      <path
         d="m -56.992807,-33.231411 15.064589,8.697544"
         id="path30" />
      <path
         d="m -41.928218,-24.533867 v -0.653197"
         id="path31" />
      <path
         d="m -41.928218,-25.187064 -15.064589,-8.697544"
         id="path32" />
      <path
         d="M -56.992807,-33.884608 V -42.86607"
         id="path33" />
      <path
         d="m -56.992807,-42.86607 15.064589,8.697544"
         id="path34" />
      <path
         d="m -41.928218,-34.168526 v -0.653198"
         id="path35" />
      <path
         d="m -41.928218,-34.821724 -15.064589,-8.697544"
         id="path36" />
      <path
         d="M -56.992807,-43.519268 V -52.50073"
         id="path37" />
      <path
         d="m -56.992807,-52.50073 15.064589,8.697544"
         id="path38" />
      <path
         d="m -41.928218,-43.803186 v -0.653197"
         id="path39" />
      <path
         d="m -41.928218,-44.456383 -15.064589,-8.697544"
         id="path40" />
      <path
         d="M -56.992807,-53.153927 V -62.13539"
         id="path41" />
      <path
         d="m -56.992807,-62.13539 15.064589,8.697544"
         id="path42" />
      <path
         d="m -41.928218,-53.437846 v -0.653197"
         id="path43" />
      <path
         d="M 57.558492,63.115186 42.002143,72.096648"
         id="path44" />
      <path
         d="M 19.943625,59.361157 42.002143,72.096648"
         id="path45" />
      <path
         d="M 25.176216,46.052263 -27.786082,15.474466"
         id="path46" />
      <path
         d="m -41.928218,23.639432 14.142136,-8.164966"
         id="path47" />
      <path
         d="M 57.558492,-14.615289 V 63.115186"
         id="path48" />
      <path
         d="m 42.002143,-5.6338264 v 0.6531973"
         id="path49" />
      <path
         d="M 42.002143,-4.9806291 56.144278,-13.145595"
         id="path50" />
      <path
         d="M 56.144278,-4.1641326 V -13.145595"
         id="path51" />
      <path
         d="M 56.144278,-4.1641326 42.002143,4.0008332"
         id="path52" />
      <path
         d="M 42.002143,4.0008332 V 4.6540305"
         id="path53" />
      <path
         d="M 42.002143,4.6540305 56.144278,-3.5109353"
         id="path54" />
      <path
         d="M 56.144278,5.4705271 V -3.5109353"
         id="path55" />
      <path
         d="M 56.144278,5.4705271 42.002143,13.635493"
         id="path56" />
      <path
         d="M 42.002143,13.635493 V 14.28869"
         id="path57" />
      <path
         d="M 42.002143,14.28869 56.144278,6.1237244"
         id="path58" />
      <path
         d="M 56.144278,15.105187 V 6.1237244"
         id="path59" />
      <path
         d="M 56.144278,15.105187 42.002143,23.270153"
         id="path60" />
      <path
         d="M 42.002143,23.270153 V 23.92335"
         id="path61" />
      <path
         d="M 42.002143,23.92335 56.144278,15.758384"
         id="path62" />
      <path
         d="M 56.144278,24.739846 V 15.758384"
         id="path63" />
      <path
         d="M 56.144278,24.739846 42.002143,32.904812"
         id="path64" />
      <path
         d="m 42.002143,32.904812 v 0.653197"
         id="path65" />
      <path
         d="M 42.002143,33.558009 56.144278,25.393044"
         id="path66" />
      <path
         d="M 56.144278,34.374506 V 25.393044"
         id="path67" />
      <path
         d="M 56.144278,34.374506 42.002143,42.539472"
         id="path68" />
      <path
         d="m 42.002143,42.539472 v 0.653197"
         id="path69" />
      <path
         d="M 42.002143,43.192669 56.144278,35.027703"
         id="path70" />
      <path
         d="M 56.144278,44.009166 V 35.027703"
         id="path71" />
      <path
         d="M 56.144278,44.009166 42.002143,52.174132"
         id="path72" />
      <path
         d="m 42.002143,52.174132 v 0.653197"
         id="path73" />
      <path
         d="M 42.002143,52.827329 56.144278,44.662363"
         id="path74" />
      <path
         d="M 56.144278,53.643825 V 44.662363"
         id="path75" />
      <path
         d="M 56.144278,53.643825 42.002143,61.808791"
         id="path76" />
      <path
         d="m 42.002143,61.808791 v 0.653197"
         id="path77" />
      <path
         d="M 42.002143,62.461988 56.144278,54.297023"
         id="path78" />
      <path
         d="M 56.144278,63.278485 V 54.297023"
         id="path79" />
      <path
         d="M 56.144278,63.278485 42.002143,71.443451"
         id="path80" />
      <path
         d="m 42.002143,71.443451 v 0.653197"
         id="path81" />
      <path
         d="m 19.943625,-18.369317 v 0.653197"
         id="path82" />
      <path
         d="M 19.943625,-17.71612 42.002143,-4.9806291"
         id="path83" />
      <path
         d="m -27.786082,-61.602811 v -0.653198"
         id="path84" />
      <path
         d="M 56.144278,-4.1641326 48.366104,-8.6548638"
         id="path85" />
      <path
         d="M 56.144278,5.4705271 48.366104,0.9797959"
         id="path86" />
      <path
         d="M 56.144278,15.105187 48.366104,10.614456"
         id="path87" />
      <path
         d="M 56.144278,24.739846 48.366104,20.249115"
         id="path88" />
      <path
         d="M 56.144278,34.374506 48.366104,29.883775"
         id="path89" />
      <path
         d="M 56.144278,44.009166 48.366104,39.518435"
         id="path90" />
      <path
         d="M 56.144278,53.643825 48.366104,49.153094"
         id="path91" />
      <path
         d="M 56.144278,63.278485 48.366104,58.787754"
         id="path92" />
      <path
         d="M -27.786082,15.474466 V 14.821269"
         id="path93" />
      <path
         d="m -27.786082,14.821269 -7.778175,-4.490732"
         id="path94" />
      <path
         d="M -27.786082,5.8398062 V 5.186609"
         id="path95" />
      <path
         d="M -27.786082,5.186609 -35.564257,0.69587777"
         id="path96" />
      <path
         d="M -27.786082,-3.7948534 V -4.4480507"
         id="path97" />
      <path
         d="m -27.786082,-4.4480507 -7.778175,-4.4907312"
         id="path98" />
      <path
         d="M -27.786082,-13.429513 V -14.08271"
         id="path99" />
      <path
         d="m -27.786082,-14.08271 -7.778175,-4.490732"
         id="path100" />
      <path
         d="M -27.786082,-23.064173 V -23.71737"
         id="path101" />
      <path
         d="m -27.786082,-23.71737 -7.778175,-4.490731"
         id="path102" />
      <path
         d="M -27.786082,-32.698832 V -33.35203"
         id="path103" />
      <path
         d="m -27.786082,-33.35203 -7.778175,-4.490731"
         id="path104" />
      <path
         d="m -27.786082,-42.333492 v -0.653197"
         id="path105" />
      <path
         d="m -27.786082,-42.986689 -7.778175,-4.490732"
         id="path106" />
      <path
         d="m -27.786082,-51.968152 v -0.653197"
         id="path107" />
      <path
         d="m -27.786082,-52.621349 -7.778175,-4.490731"
         id="path108" />
      <path
         d="m -41.928218,-53.437846 14.142136,-8.164965"
         id="path109" />
      <path
         d="m -27.786082,14.821269 -14.142136,8.164965"
         id="path110" />
      <path
         d="m -56.992807,14.28869 7.778175,-4.490731"
         id="path111" />
      <path
         d="M -41.928218,14.004772 -27.786082,5.8398062"
         id="path112" />
      <path
         d="m -27.786082,5.186609 -14.142136,8.164966"
         id="path113" />
      <path
         d="m -56.992807,4.6540305 7.778175,-4.49073118"
         id="path114" />
      <path
         d="m -41.928218,4.3701124 14.142136,-8.1649658"
         id="path115" />
      <path
         d="M -27.786082,-4.4480507 -41.928218,3.7169151"
         id="path116" />
      <path
         d="m -56.992807,-4.9806291 7.778175,-4.4907312"
         id="path117" />
      <path
         d="m -41.928218,-5.2645473 14.142136,-8.1649657"
         id="path118" />
      <path
         d="m -27.786082,-14.08271 -14.142136,8.1649655"
         id="path119" />
      <path
         d="m -56.992807,-14.615289 7.778175,-4.490731"
         id="path120" />
      <path
         d="m -41.928218,-14.899207 14.142136,-8.164966"
         id="path121" />
      <path
         d="m -27.786082,-23.71737 -14.142136,8.164966"
         id="path122" />
      <path
         d="m -56.992807,-24.249948 7.778175,-4.490732"
         id="path123" />
      <path
         d="m -41.928218,-24.533867 14.142136,-8.164965"
         id="path124" />
      <path
         d="m -27.786082,-33.35203 -14.142136,8.164966"
         id="path125" />
      <path
         d="m -56.992807,-33.884608 7.778175,-4.490731"
         id="path126" />
      <path
         d="m -41.928218,-34.168526 14.142136,-8.164966"
         id="path127" />
      <path
         d="m -27.786082,-42.986689 -14.142136,8.164965"
         id="path128" />
      <path
         d="m -56.992807,-43.519268 7.778175,-4.490731"
         id="path129" />
      <path
         d="m -41.928218,-43.803186 14.142136,-8.164966"
         id="path130" />
      <path
         d="m -27.786082,-52.621349 -14.142136,8.164966"
         id="path131" />
      <path
         d="m -56.992807,-53.153927 7.778175,-4.490732"
         id="path132" />
      <path
         d="M 42.002143,71.443451 19.943625,58.70796"
         id="path133" />
      <path
         d="m 19.943625,58.70796 v 0.653197"
         id="path134" />
      <path
         d="M 19.943625,58.70796 27.7218,54.217229"
         id="path135" />
      <path
         d="M 42.002143,4.0008332 19.943625,-8.7346577"
         id="path136" />
      <path
         d="M 19.943625,-8.7346577 27.7218,-13.225389"
         id="path137" />
      <path
         d="m 19.943625,-8.7346577 v 0.6531972"
         id="path138" />
      <path
         d="M 19.943625,-8.0814605 42.002143,4.6540305"
         id="path139" />
      <path
         d="M 42.002143,13.635493 19.943625,0.90000191"
         id="path140" />
      <path
         d="M 19.943625,0.90000191 27.7218,-3.5907293"
         id="path141" />
      <path
         d="M 19.943625,0.90000191 V 1.5531992"
         id="path142" />
      <path
         d="M 19.943625,1.5531992 42.002143,14.28869"
         id="path143" />
      <path
         d="M 42.002143,23.270153 19.943625,10.534662"
         id="path144" />
      <path
         d="M 19.943625,10.534662 27.7218,6.0439304"
         id="path145" />
      <path
         d="m 19.943625,10.534662 v 0.653197"
         id="path146" />
      <path
         d="M 19.943625,11.187859 42.002143,23.92335"
         id="path147" />
      <path
         d="M 42.002143,32.904812 19.943625,20.169321"
         id="path148" />
      <path
         d="M 19.943625,20.169321 27.7218,15.67859"
         id="path149" />
      <path
         d="M 19.943625,20.822518 42.002143,33.558009"
         id="path150" />
      <path
         d="m 19.943625,20.169321 v 0.653197"
         id="path151" />
      <path
         d="M 42.002143,42.539472 19.943625,29.803981"
         id="path152" />
      <path
         d="M 19.943625,29.803981 27.7218,25.31325"
         id="path153" />
      <path
         d="M 19.943625,30.457178 42.002143,43.192669"
         id="path154" />
      <path
         d="m 19.943625,29.803981 v 0.653197"
         id="path155" />
      <path
         d="M 42.002143,52.174132 19.943625,39.438641"
         id="path156" />
      <path
         d="M 19.943625,39.438641 27.7218,34.947909"
         id="path157" />
      <path
         d="M 19.943625,40.091838 42.002143,52.827329"
         id="path158" />
      <path
         d="m 19.943625,39.438641 v 0.653197"
         id="path159" />
      <path
         d="M 42.002143,61.808791 19.943625,49.0733"
         id="path160" />
      <path
         d="M 19.943625,49.0733 27.7218,44.582569"
         id="path161" />
      <path
         d="M 19.943625,49.726497 42.002143,62.461988"
         id="path162" />
      <path
         d="m 19.943625,49.0733 v 0.653197"
         id="path163" />
    </g>
  </g>
</svg>
