<?xml version="1.0" encoding="UTF-8" standalone="no"?>
<svg
   width="730.0"
   height="416.0"
   version="1.1"
   id="svg74"
   sodipodi:docname="dovetail_guide.svg"
   inkscape:version="1.3.2 (091e20ef0f, 2023-11-25, custom)"
   xmlns:inkscape="http://www.inkscape.org/namespaces/inkscape"
   xmlns:sodipodi="http://sodipodi.sourceforge.net/DTD/sodipodi-0.dtd"
   xmlns="http://www.w3.org/2000/svg"
   xmlns:svg="http://www.w3.org/2000/svg">
  <defs
     id="defs74" />
  <sodipodi:namedview
     id="namedview74"
     pagecolor="#ffffff"
     bordercolor="#000000"
     borderopacity="0.25"
     inkscape:showpageshadow="2"
     inkscape:pageopacity="0.0"
     inkscape:pagecheckerboard="0"
     inkscape:deskcolor="#d1d1d1"
     inkscape:zoom="2.0575342"
     inkscape:cx="314.94008"
     inkscape:cy="194.89348"
     inkscape:window-width="2560"
     inkscape:window-height="1440"
     inkscape:window-x="0"
     inkscape:window-y="0"
     inkscape:window-maximized="0"
     inkscape:current-layer="svg74" />
  <g
     transform="matrix(3.1241214,5.4111369,5.4111369,-3.1241214,285.49178,251.27851)"
     stroke-width="0.5"
     fill="none"
     id="g74">
    <!-- hidden lines -->
    <g
       stroke="#0000ff"
       fill="none"
       stroke-dasharray="0.5, 0.5"
       id="g1" />
    <!-- solid lines -->
    <g
       stroke="#82b9ff"
       fill="none"
       id="g73">
      <path
         d="M -28.284271,0 0,16.329932"
         id="path1" />
      <path
         d="m -28.284271,0 4.714045,35.381519"
         id="path2" />
      <path
         d="M 0,16.329932 -4.7140452,46.26814"
         id="path3" />
      <path
         d="M -23.570226,35.381519 -4.7140452,46.26814"
         id="path4" />
      <path
         d="M -13.808378,22.728001 V 23.40733"
         id="path5" />
      <path
         d="m -13.808378,23.40733 -0.588316,-0.339664"
         id="path6" />
      <path
         d="m -14.396694,23.067666 v -0.67933"
         id="path7" />
      <path
         d="m -14.396694,22.388336 0.588316,0.339665"
         id="path8" />
      <path
         d="m -17.417458,23.942944 0.888137,0.512766"
         id="path9" />
      <path
         d="M -16.529321,24.45571 V 21.157064"
         id="path10" />
      <path
         d="m -16.529321,21.157064 0.497792,0.2874"
         id="path11" />
      <path
         d="m -16.031529,21.444464 v 4.631173"
         id="path12" />
      <path
         d="m -16.031529,26.075637 -0.328086,-0.189421"
         id="path13" />
      <path
         d="m -16.359615,25.886216 -0.03233,-0.145119 -0.03192,-0.131412 -0.03257,-0.119232 -0.03427,-0.108578 -0.03702,-0.09945 -0.04082,-0.09185 -0.04568,-0.08577 -0.05158,-0.08122 -0.05855,-0.0782 -0.06656,-0.0767 -0.07562,-0.07673 -0.08574,-0.07828 -0.09691,-0.08137 -0.109135,-0.08597 -0.122411,-0.09211 -0.136738,-0.09977"
         id="path14" />
      <path
         d="M -17.417458,24.354466 V 23.942944"
         id="path15" />
      <path
         d="m -13.808378,25.471429 v 0.67933"
         id="path16" />
      <path
         d="m -13.808378,26.150759 -0.588316,-0.339665"
         id="path17" />
      <path
         d="M -14.396694,25.811094 V 25.131765"
         id="path18" />
      <path
         d="m -14.396694,25.131765 0.588316,0.339664"
         id="path19" />
      <path
         d="m -13.191777,25.193831 0.0016,-0.14985 0.0048,-0.144567 0.0082,-0.13901 0.01163,-0.133175 0.0152,-0.127067 0.01888,-0.120682 0.02267,-0.114022 0.02657,-0.107088 0.03058,-0.09988 0.0347,-0.09239 0.03893,-0.08463 0.04326,-0.07659 0.02329,-0.0352 0.02442,-0.03308 0.02556,-0.03094 0.02671,-0.02876 0.02788,-0.02654 0.02906,-0.02429 0.03025,-0.02201 0.03146,-0.01969"
         id="path20" />
      <path
         d="m -12.716127,23.584385 0.03986,-0.02074 0.04168,-0.01721 0.04353,-0.01361 0.04541,-0.01 0.04731,-0.0062 0.04924,-0.0025 0.05119,0.0014 0.05316,0.0053 0.05516,0.0093 0.05718,0.01328 0.05923,0.01737 0.0613,0.02152 0.0634,0.02573 0.06552,0.03 0.06767,0.03434 0.06984,0.03873"
         id="path21" />
      <path
         d="m -11.845456,23.71105 0.07095,0.04287 0.06963,0.04586 0.06825,0.04874 0.06681,0.05152 0.06531,0.05419 0.06374,0.05674 0.06211,0.05919 0.06043,0.06154 0.05868,0.06377 0.05687,0.0659 0.055,0.06791 0.05307,0.06983 0.05107,0.07163 0.04902,0.07332 0.0469,0.0749 0.04473,0.07638 0.04249,0.07775 0.04019,0.07901 0.03783,0.08016 0.03541,0.0812 0.03293,0.08214 0.03039,0.08297 0.02778,0.08369 0.02512,0.0843 0.02239,0.0848 0.01961,0.08519 0.01676,0.08548 0.01385,0.08566 0.01088,0.08573 0.0078,0.08569 0.0048,0.08554 0.0016,0.08528"
         id="path22" />
      <path
         d="m -10.533055,26.029911 -0.0015,0.08087 -0.0046,0.07748 -0.0076,0.07406 -0.01053,0.0706 -0.01341,0.06711 -0.01622,0.06358 -0.01899,0.06001 -0.02169,0.05642 -0.02433,0.05278 -0.02691,0.04911 -0.02944,0.04541 -0.03191,0.04167 -0.03432,0.0379 -0.03667,0.03409 -0.03896,0.03025 -0.0412,0.02637"
         id="path23" />
      <path
         d="m -10.891363,26.897615 -0.04153,0.0216 -0.04347,0.01797 -0.04537,0.01432 -0.04721,0.01063 -0.04901,0.0069 -0.05075,0.0032 -0.05244,-6.15e-4 -0.05407,-0.0044 -0.05566,-0.0083 -0.0572,-0.01214 -0.05868,-0.01604 -0.06011,-0.01998 -0.06149,-0.02394 -0.06282,-0.02794 -0.0641,-0.03196 -0.06533,-0.03602"
         id="path24" />
      <path
         d="m -11.760604,26.790879 -0.07325,-0.04435 -0.07124,-0.04731 -0.06922,-0.05024 -0.06718,-0.05314 -0.06513,-0.05601 -0.06306,-0.05885 -0.06097,-0.06166 -0.05886,-0.06445 -0.05674,-0.0672 -0.0546,-0.06993 -0.05245,-0.07263 -0.05028,-0.0753 -0.04809,-0.07794 -0.04589,-0.08055 -0.04366,-0.08314 -0.04143,-0.08569"
         id="path25" />
      <path
         d="m -12.68266,25.7425 0.0047,0.208667 0.0119,0.200859 0.01903,0.192821 0.01216,0.09333 0.01391,0.09123 0.01565,0.0891 0.01738,0.08695 0.0191,0.08477 0.02081,0.08256 0.02251,0.08032 0.0242,0.07805 0.02587,0.07576 0.02754,0.07343 0.0292,0.07108 0.03085,0.06869 0.03248,0.06628 0.03411,0.06384 0.03572,0.06138 0.03733,0.05888 0.03893,0.05635 0.04051,0.0538 0.04208,0.05121 0.04365,0.0486 0.0452,0.04596 0.04675,0.04329 0.04828,0.04059 0.0498,0.03787 0.05131,0.03511 0.05282,0.03233"
         id="path26" />
      <path
         d="m -11.788888,28.015624 0.06884,0.03635 0.06586,0.02793 0.06278,0.01956 0.0596,0.01125 0.02857,0.0025 0.02774,4.72e-4 0.02689,-0.0016 0.02604,-0.0036 0.02516,-0.0057 0.02428,-0.0077 0.02338,-0.0097 0.02247,-0.01171"
         id="path27" />
      <path
         d="m -11.327264,28.073795 0.03694,-0.02518 0.03407,-0.03122 0.03114,-0.03722 0.02814,-0.04319 0.02508,-0.04911 0.02195,-0.055 0.01875,-0.06085 0.01548,-0.06666"
         id="path28" />
      <path
         d="m -11.115719,27.705366 0.497811,0.287411"
         id="path29" />
      <path
         d="m -10.617908,27.992777 -0.0094,0.06087 -0.0111,0.05825 -0.0128,0.05562 -0.01448,0.05298 -0.01613,0.05034 -0.01775,0.04768 -0.01936,0.04502 -0.02093,0.04235 -0.02249,0.03966 -0.02402,0.03698 -0.02553,0.03428 -0.02702,0.03157 -0.02848,0.02886 -0.02992,0.02614 -0.03133,0.0234 -0.03272,0.02066"
         id="path30" />
      <path
         d="m -10.961364,28.647413 -0.03819,0.01984 -0.03986,0.01639 -0.04151,0.01294 -0.04311,0.0095 -0.04469,0.006 -0.04623,0.0025 -0.04774,-0.001 -0.04922,-0.0045 -0.05067,-0.0081 -0.05208,-0.0116 -0.05346,-0.01515 -0.0548,-0.01872 -0.05612,-0.02229 -0.0574,-0.02588 -0.05865,-0.02948 -0.05986,-0.03309"
         id="path31" />
      <path
         d="m -11.75495,28.54472 -0.05588,-0.03342 -0.0572,-0.03665 -0.05832,-0.04002 -0.05924,-0.04353 -0.05995,-0.04718 -0.06046,-0.05096 -0.06077,-0.05488 -0.06087,-0.05894 -0.06077,-0.06313 -0.06047,-0.06745 -0.05996,-0.07192 -0.05926,-0.07652 -0.05834,-0.08125 -0.05723,-0.08612 -0.05591,-0.09114 -0.05439,-0.09628 -0.05267,-0.101561 -0.05074,-0.10698 -0.04861,-0.112534 -0.04628,-0.118225 -0.04374,-0.124052 -0.041,-0.130015 -0.03806,-0.136115 -0.03492,-0.142351 -0.03157,-0.148723 -0.02802,-0.155233 -0.02427,-0.161877 -0.02031,-0.168659 -0.01615,-0.175577 -0.01179,-0.18263 -0.0072,-0.189822 -0.0025,-0.197148"
         id="path32" />
      <path
         d="M 0,16.329932 28.284271,0"
         id="path33" />
      <path
         d="M 28.284271,0 0,-16.329932"
         id="path34" />
      <path
         d="M 0,-16.329932 -28.284271,0"
         id="path35" />
      <path
         d="M -4.7140452,46.26814 5.8925565,40.144415"
         id="path36" />
      <path
         d="M 28.284271,0 26.516504,11.226828"
         id="path37" />
      <path
         d="M 5.8925565,40.144415 8.8388348,21.433035"
         id="path38" />
      <path
         d="M 26.516504,11.226828 8.8388348,21.433035"
         id="path39" />
      <path
         d="m 4.6434938,17.458407 -0.132007,0.08067 -0.1328755,0.09005 -0.1330662,0.09897 -0.1325778,0.107387 -0.1314132,0.115257 -0.129578,0.122539 -0.1270817,0.129195 -0.123937,0.135192 -0.12016,0.140499 -0.11577,0.14509 -0.1107892,0.14894 -0.1052433,0.152031 -0.09916,0.154345 -0.092571,0.155873 -0.08551,0.156605 -0.078013,0.156538 -0.070118,0.155672 -0.061864,0.154012 -0.053295,0.151567 -0.044455,0.148347 -0.035387,0.144372 -0.014235,0.07046 -0.011904,0.0692 -0.00956,0.06784 -0.0072,0.0664 -0.00483,0.06487 -0.00246,0.06326 -8.17e-5,0.06157 0.0023,0.0598 0.00467,0.05795 0.00704,0.05603 0.0094,0.05404 0.011743,0.05198 0.014075,0.04985 0.016389,0.04766 0.018683,0.04541 0.020952,0.0431 0.023195,0.04073 0.025408,0.03832 0.027588,0.03585 0.029734,0.03334 0.031841,0.03079 0.033908,0.0282"
         id="path40" />
      <path
         d="m 2.7552648,21.438169 0.049886,0.03445 0.053587,0.0294 0.057159,0.02429 0.060592,0.01911 0.06388,0.01389 0.067014,0.0086 0.069987,0.0034 0.07279,-0.0019 0.075419,-0.0072 0.077866,-0.01247 0.080125,-0.0177 0.082191,-0.02289 0.08406,-0.02802 0.085725,-0.03309 0.087185,-0.03808 0.088434,-0.04297 0.08947,-0.04776 0.09029,-0.05244 0.090893,-0.05699 0.091278,-0.0614 0.091442,-0.06567 0.091386,-0.06978 0.091109,-0.07371 0.090614,-0.07748 0.089899,-0.08105 0.088969,-0.08443 0.087824,-0.08761 0.086467,-0.09057 0.084903,-0.09332 0.083133,-0.09584 0.081164,-0.09813 0.078998,-0.100185 0.076643,-0.101999 0.074103,-0.103566 0.071384,-0.104884 0.068493,-0.10595 0.065438,-0.106759 0.062225,-0.107313 0.058861,-0.107607 0.055356,-0.107642 0.051718,-0.107418 0.047955,-0.106935 0.044077,-0.106194 0.040092,-0.105198 0.036011,-0.103949 0.031843,-0.102448 0.027598,-0.100701 0.023287,-0.09871 0.01892,-0.09648 0.014507,-0.09402 0.010059,-0.09134 0.00559,-0.08843 0.0011,-0.08531 -0.00339,-0.08199 -0.00787,-0.07846 -0.012328,-0.07475 -0.016759,-0.07086 -0.02115,-0.0668 -0.02549,-0.06257 -0.029769,-0.0582 -0.033976,-0.05369 -0.038101,-0.04904 -0.042134,-0.04428 -0.046066,-0.03941"
         id="path41" />
      <path
         d="m 5.9272351,17.317658 -0.054514,-0.03728 -0.05889,-0.03128 -0.063098,-0.0252 -0.067126,-0.01904 -0.070961,-0.01284 -0.074595,-0.0066 -0.078014,-3.24e-4 -0.081211,0.0059 -0.084176,0.01219 -0.086901,0.01841 -0.089377,0.02457 -0.091597,0.03066 -0.093556,0.03666 -0.095248,0.04256 -0.096667,0.04834 -0.09781,0.05398"
         id="path42" />
      <path
         d="m 1.8535505,35.176927 -0.132007,0.08067 -0.1328756,0.09005 -0.1330661,0.09897 -0.1325779,0.107388 -0.1314131,0.115257 -0.129578,0.122539 -0.12708169,0.129194 -0.12393702,0.135192 -0.12016003,0.1405 -0.11576997,0.14509 -0.11078924,0.14894 -0.10524328,0.152031 -0.0991604,0.154345 -0.0925715,0.155873 -0.08551036,0.156605 -0.07801294,0.156538 -0.0701175,0.155672 -0.0618643,0.154012 -0.0532955,0.151567 -0.0444547,0.148347 -0.0353872,0.144372 -0.014235,0.07046 -0.0119041,0.0692 -0.009558,0.06784 -0.0072,0.0664 -0.004832,0.06487 -0.002459,0.06326 -8.171e-5,0.06157 0.002295,0.0598 0.004669,0.05795 0.007037,0.05603 0.009396,0.05404 0.0117433,0.05198 0.0140753,0.04985 0.0163894,0.04766 0.0186826,0.04541 0.020952,0.0431 0.0231946,0.04073 0.0254076,0.03832 0.0275882,0.03585 0.0297337,0.03334 0.03184111,0.03079 0.03390796,0.0282"
         id="path43" />
      <path
         d="m -0.03467854,39.156688 0.04988649,0.03445 0.05358709,0.0294 0.05715859,0.02429 0.0605924,0.01911 0.0638802,0.01389 0.0670142,0.0086 0.0699866,0.0034 0.0727905,-0.0019 0.0754191,-0.0072 0.0778659,-0.01247 0.0801251,-0.0177 0.0821914,-0.02289 0.0840596,-0.02802 0.0857253,-0.03309 0.0871844,-0.03808 0.088434,-0.04297 0.08947,-0.04776 0.09029,-0.05244 0.090893,-0.05699 0.091277,-0.0614 0.091442,-0.06567 0.091386,-0.06978 0.091109,-0.07371 0.090614,-0.07748 0.0899,-0.08105 0.088969,-0.08443 0.087824,-0.08761 0.086467,-0.09057 0.084903,-0.09332 0.083133,-0.09584 0.081164,-0.09813 0.078998,-0.100185 0.076643,-0.101999 0.074103,-0.103566 0.071384,-0.104884 0.068494,-0.10595 0.065438,-0.106759 0.062224,-0.107313 0.058861,-0.107607 0.055356,-0.107642 0.051718,-0.107418 0.047955,-0.106935 0.044077,-0.106194 0.040092,-0.105198 0.036011,-0.103949 0.031843,-0.102448 0.027598,-0.100701 0.023287,-0.09871 0.01892,-0.09648 0.014507,-0.09402 0.010059,-0.09134 0.00559,-0.08843 0.0011,-0.08531 -0.00339,-0.08199 -0.00787,-0.07846 -0.012328,-0.07475 -0.016759,-0.07086 -0.02115,-0.0668 -0.02549,-0.06257 -0.029769,-0.0582 -0.033976,-0.05369 -0.038101,-0.04904 -0.042134,-0.04428 -0.046066,-0.03941"
         id="path44" />
      <path
         d="m 3.1372917,35.036178 -0.054514,-0.03728 -0.05889,-0.03128 -0.063098,-0.0252 -0.067126,-0.01905 -0.070962,-0.01283 -0.074594,-0.0066 -0.078014,-3.24e-4 -0.081211,0.0059 -0.084176,0.01219 -0.086901,0.01841 -0.089377,0.02457 -0.091597,0.03066 -0.093556,0.03666 -0.095248,0.04256 -0.096667,0.04834 -0.09781,0.05398"
         id="path45" />
      <path
         d="m -14.396694,23.067666 0.588316,-0.339665"
         id="path46" />
      <path
         d="m -16.529321,24.45571 0.497792,-0.287401"
         id="path47" />
      <path
         d="m -16.359615,25.886216 0.328086,-0.189421"
         id="path48" />
      <path
         d="m -17.417458,24.354466 0.356389,-0.205761"
         id="path49" />
      <path
         d="m -16.031529,24.519734 -0.0484,-0.05512 -0.05307,-0.05509 -0.05812,-0.05563 -0.06357,-0.05674"
         id="path50" />
      <path
         d="m -14.396694,25.811094 0.588316,-0.339665"
         id="path51" />
      <path
         d="m -12.457903,24.21366 0.01177,-0.100305 0.01404,-0.09638 0.01636,-0.09232 0.01873,-0.08813 0.02116,-0.08381 0.02364,-0.07935 0.02617,-0.07475 0.02876,-0.07003"
         id="path52" />
      <path
         d="m -10.616329,26.551971 -0.05074,-0.01018 -0.05193,-0.01327 -0.05308,-0.01639 -0.0542,-0.01953 -0.05528,-0.02269 -0.05632,-0.02588 -0.05733,-0.02908 -0.0583,-0.03231"
         id="path53" />
      <path
         d="m -12.68266,25.7425 0.24463,-0.141237"
         id="path54" />
      <path
         d="m -11.053497,26.382631 -0.07968,-0.04845 -0.0773,-0.05195"
         id="path55" />
      <path
         d="m -10.687178,28.286011 -0.08518,-0.02369 -0.08859,-0.03279 -0.09187,-0.04193 -0.09502,-0.05113"
         id="path56" />
      <path
         d="m -11.047844,28.136472 -0.08995,-0.05494 -0.09302,-0.06342"
         id="path57" />
      <path
         d="m -12.439091,25.601876 -3.82e-4,-0.0032"
         id="path58" />
      <path
         d="m -10.5705,25.912745 0.03321,-0.02203"
         id="path59" />
      <path
         d="m -11.822825,26.245475 0.08275,0.04383 0.07887,0.03381 0.03793,0.01317 0.03691,0.01071 0.03587,0.0083 0.0348,0.0058 0.03373,0.0034 0.03263,9.56e-4 0.03151,-0.0015 0.03038,-0.0038 0.02923,-0.0062 0.02806,-0.0086 0.02687,-0.01096 0.02567,-0.0133"
         id="path60" />
      <path
         d="m -11.277607,26.320993 0.02754,-0.01784 0.02595,-0.0208 0.02433,-0.02374 0.02269,-0.02667 0.02103,-0.02957 0.01933,-0.03246 0.01762,-0.03534 0.01587,-0.03819 0.0141,-0.04103 0.01231,-0.04384 0.01049,-0.04665 0.0086,-0.04943 0.0068,-0.05219 0.0049,-0.05494 0.0029,-0.05767 9.85e-4,-0.06038"
         id="path61" />
      <path
         d="m -11.042172,25.690257 -0.0039,-0.109366 -0.01155,-0.109705 -0.01886,-0.109467 -0.02585,-0.108648 -0.03251,-0.107251 -0.03885,-0.105275 -0.04487,-0.10272 -0.05056,-0.09959 -0.05593,-0.09587 -0.06098,-0.09158 -0.0657,-0.08671 -0.0701,-0.08126 -0.07418,-0.07524 -0.07793,-0.06863 -0.08136,-0.06144 -0.04187,-0.02785 -0.0426,-0.02583"
         id="path62" />
      <path
         d="m -11.839803,24.223816 -0.04055,-0.02227 -0.03993,-0.01966 -0.03927,-0.01707 -0.03858,-0.01451 -0.03785,-0.01197 -0.03708,-0.0095 -0.03628,-0.007 -0.03544,-0.0045 -0.03457,-0.0021 -0.03366,3.65e-4 -0.03272,0.0028 -0.03174,0.0051 -0.03072,0.0075 -0.02966,0.0098 -0.02858,0.01211 -0.02745,0.01438"
         id="path63" />
      <path
         d="m -12.393885,24.167398 -0.0296,0.01895 -0.02806,0.02179 -0.02648,0.0246 -0.02484,0.02736 -0.02315,0.0301 -0.02141,0.0328 -0.01962,0.03547 -0.01777,0.0381 -0.01588,0.0407 -0.01393,0.04327 -0.01193,0.0458 -0.0099,0.0483 -0.0078,0.05076 -0.0056,0.05319 -0.0034,0.05558 -0.0011,0.05794"
         id="path64" />
      <path
         d="m -12.654376,24.792111 0.0039,0.107924 0.01161,0.107902 0.01902,0.107394 0.02616,0.106405 0.03302,0.104932 0.0396,0.102975 0.04592,0.100536 0.05196,0.09761 0.05773,0.09421 0.06322,0.09032 0.06844,0.08594 0.07339,0.08109 0.07806,0.07575 0.08246,0.06993 0.08659,0.06362 0.09044,0.05683"
         id="path65" />
      <path
         d="m -13.191777,25.193831 0.540134,-0.311846"
         id="path66" />
      <path
         d="m -11.760604,26.790879 0.707107,-0.408248"
         id="path67" />
      <path
         d="m -11.75495,28.54472 0.707106,-0.408248"
         id="path68" />
      <path
         d="m -11.042172,25.690257 0.435652,-0.251524"
         id="path69" />
      <path
         d="m -11.839803,24.223816 0.387295,-0.223605"
         id="path70" />
      <path
         d="m -11.327264,28.073795 0.424841,-0.245283"
         id="path71" />
      <path
         d="M -11.277607,26.320993 -10.5705,25.912745"
         id="path72" />
      <path
         d="m -12.393885,24.167398 0.664947,-0.383908"
         id="path73" />
    </g>
  </g>
</svg>
