<?xml version="1.0" encoding="UTF-8" standalone="no"?>
<svg
   width="730.0"
   height="416.0"
   version="1.1"
   id="svg12"
   sodipodi:docname="kugellwellenhorn.svg"
   inkscape:version="1.3.2 (091e20ef0f, 2023-11-25, custom)"
   xmlns:inkscape="http://www.inkscape.org/namespaces/inkscape"
   xmlns:sodipodi="http://sodipodi.sourceforge.net/DTD/sodipodi-0.dtd"
   xmlns="http://www.w3.org/2000/svg"
   xmlns:svg="http://www.w3.org/2000/svg">
  <defs
     id="defs12" />
  <sodipodi:namedview
     id="namedview12"
     pagecolor="#ffffff"
     bordercolor="#000000"
     borderopacity="0.25"
     inkscape:showpageshadow="2"
     inkscape:pageopacity="0.0"
     inkscape:pagecheckerboard="0"
     inkscape:deskcolor="#d1d1d1"
     inkscape:zoom="1.4548964"
     inkscape:cx="364.2871"
     inkscape:cy="105.84946"
     inkscape:window-width="2560"
     inkscape:window-height="1440"
     inkscape:window-x="0"
     inkscape:window-y="0"
     inkscape:window-maximized="0"
     inkscape:current-layer="svg12" />
  <g
     transform="matrix(0.7057532,0.7057532,0.7057532,-0.7057532,229.87401,352.09537)"
     stroke-width="1"
     fill="none"
     id="g12">
    <!-- hidden lines -->
    <g
       stroke="#0000ff"
       fill="none"
       stroke-dasharray="1, 1"
       id="g1" />
    <!-- solid lines -->
    <g
       stroke="#82b9ff"
       fill="none"
       id="g11">
      <path
         d="m 4.2426407,2.4494897 0.1076549,-0.063773 0.1047799,-0.06535 0.1018358,-0.066883 0.098824,-0.068373 0.095748,-0.069817 0.092608,-0.071214 0.089406,-0.072565 0.086146,-0.073868 0.082829,-0.075122 0.079457,-0.076327 0.076032,-0.077481 0.072558,-0.078583 0.069035,-0.079634 0.065467,-0.080633 0.061855,-0.081577 0.058203,-0.082468 0.054512,-0.083305 0.050785,-0.084086 0.047024,-0.084812 0.043233,-0.0854822 0.039413,-0.0860956 0.035566,-0.086652 0.031697,-0.0871512 0.027806,-0.0875928 0.023897,-0.0879765 0.019972,-0.0883021 0.016034,-0.0885693 0.012086,-0.088778 0.00813,-0.0889281 0.00417,-0.08901932 2.023e-4,-0.08905174 -0.00376,-0.08902532"
         id="path1" />
      <path
         d="m 5.9958378,-0.12900777 -0.00707,-0.0829031 -0.010513,-0.0827814 -0.013946,-0.0826122 -0.01737,-0.0823956 -0.020784,-0.0821317 -0.024187,-0.0818206 -0.027575,-0.0814625 -0.030948,-0.0810577 -0.034303,-0.0806063 -0.037638,-0.0801087 -0.040952,-0.079565 -0.044242,-0.078976 -0.047506,-0.078341 -0.050744,-0.077661 -0.053952,-0.076937 -0.057129,-0.076169 -0.060274,-0.075357 -0.063384,-0.074501 -0.066457,-0.073603 -0.069493,-0.072663 -0.072488,-0.07168 -0.075442,-0.070657 -0.078353,-0.069593 -0.081218,-0.06849 -0.084037,-0.067346 -0.086808,-0.066165 -0.089529,-0.064945 -0.092198,-0.063688 -0.094814,-0.062394 -0.097377,-0.061065 -0.099883,-0.0597 -0.1023315,-0.058301 -0.1047215,-0.056869 -0.1070515,-0.055404 -0.1093199,-0.053907 -0.1115256,-0.05238 -0.1136673,-0.050822 -0.1157438,-0.049235 -0.1177537,-0.04762 -0.119696,-0.045977 -0.1215697,-0.044308 -0.1233735,-0.042614 -0.1251065,-0.040895 -0.1267677,-0.039153 -0.1283561,-0.037388 -0.1298708,-0.035602 -0.1313109,-0.033795 -0.1326757,-0.031969 -0.1339643,-0.030124 -0.1351759,-0.028262 -0.13631,-0.026384 L 1.7015642,-3.321881 1.5632215,-3.344465 1.4239813,-3.3651289 1.2839236,-3.3838607 1.1431287,-3.4006498 1.0016775,-3.4154864 0.85965121,-3.4283621 0.57419979,-3.4482022 0.2874299,-3.4601245 0,-3.4641016 l -0.2874299,0.00398 -0.28676989,0.011922 -0.28545142,0.01984 -0.14202629,0.012876 -0.1414512,0.014837 -0.1407949,0.016789 -0.1400577,0.018732 -0.1392402,0.020664 -0.1383427,0.022584 -0.1373657,0.024491 -0.13631,0.026384 -0.1351759,0.028262 -0.1339643,0.030124 -0.1326757,0.031969 -0.1313109,0.033795 -0.1298708,0.035602 -0.1283561,0.037388 -0.1267677,0.039153 -0.1251065,0.040895 -0.1233735,0.042614 -0.1215697,0.044308 -0.119696,0.045977 -0.1177537,0.04762 -0.1157438,0.049235 -0.1136673,0.050822 -0.1115256,0.05238 -0.1093199,0.053907 -0.1070515,0.055404 -0.1047215,0.056869 -0.1023315,0.058301 -0.099883,0.0597 -0.097377,0.061065 -0.094814,0.062394 -0.092198,0.063688 -0.089529,0.064945 -0.086808,0.066165 -0.084037,0.067346 -0.081218,0.06849 -0.078353,0.069593 -0.075442,0.070657 -0.072488,0.07168 -0.069493,0.072663 -0.066457,0.073603 -0.063384,0.074501 -0.060274,0.075357 -0.057129,0.076169 -0.053952,0.076937 -0.050744,0.077661 -0.047506,0.078341 -0.044242,0.078976 -0.040952,0.079565 -0.037638,0.0801087 -0.034303,0.0806063 -0.030948,0.0810577 -0.027575,0.0814625 -0.024187,0.0818206 -0.020784,0.0821317 -0.01737,0.0823956 -0.013946,0.0826122 -0.010513,0.0827814 -0.00707,0.0829031"
         id="path2" />
      <path
         d="m -5.9958378,-0.12900777 -0.00313,0.06474834 -0.00103,0.0647708026 0.00107,0.0647706274 0.00316,0.0647478 0.00526,0.0647023 0.00735,0.0646343 0.00945,0.0645436 0.011534,0.0644303 0.013619,0.0642945 0.015699,0.0641363 0.017773,0.0639556 0.019841,0.0637526 0.021902,0.0635272 0.023956,0.0632797 0.054038,0.12572834 0.062142,0.12447396 0.07016,0.1230454 0.078079,0.121445 0.085889,0.1196746 0.093579,0.1177368 0.1011382,0.1156345 0.108556,0.1133704 0.1158218,0.1109479 0.1229257,0.10837 0.1298578,0.1056408 0.1366082,0.1027637 0.1431676,0.099743 0.1495268,0.096583 0.1556769,0.093288 0.1616092,0.089862 0.1673157,0.08631 0.1727881,0.082638 0.1780189,0.07885 0.1830007,0.074953 0.1877266,0.07095 0.1921901,0.066848 0.1963847,0.062652 0.2003047,0.058369 0.2039446,0.054005 0.2072994,0.049565 0.2103641,0.045055 0.2131349,0.040482 0.2156074,0.035853 0.2177785,0.031174 0.219645,0.026451 0.22120446,0.021691 0.22245448,0.016901 0.22339345,0.012087 0.22402003,0.00726 0.22433332109,0.00242 0.22433290891,-0.00243 0.22401879,-0.00727 0.22339139,-0.0121 0.2224516,-0.016914 0.22120077,-0.021704 0.2196405,-0.026464 0.2177732,-0.031187 0.2156013,-0.035866 0.2131279,-0.040495 0.2103565,-0.045067 0.2072909,-0.049576 0.2039354,-0.054016 0.2002948,-0.058381 0.196374,-0.062664 0.1921787,-0.066859 0.1877145,-0.070961 0.182988,-0.074963 0.1780054,-0.078861 0.172774,-0.082648 0.1673009,-0.08632 0.161594,-0.089871"
         id="path3" />
      <path
         d="m 160.62624,290.23825 0.87025,-0.50517 0.86548,-0.5079 0.86069,-0.5106 0.85587,-0.5133 0.85103,-0.51597 0.84616,-0.51864 0.84127,-0.52128 0.83636,-0.52391 0.83141,-0.52653 0.82644,-0.52913 0.82146,-0.53171 0.81643,-0.53428 0.8114,-0.53683 0.80634,-0.53937 0.80124,-0.5419 0.79614,-0.54439 0.791,-0.54689 0.78585,-0.54936 0.78066,-0.55181 0.77546,-0.55426 0.77024,-0.55668 0.76498,-0.55909 0.75971,-0.56148 0.75442,-0.56385 0.7491,-0.56621 0.74377,-0.56855 0.7384,-0.57088 0.73302,-0.57319 0.72761,-0.57547 0.72219,-0.57775 0.71674,-0.58001 0.71128,-0.58224 0.70578,-0.58447 0.70027,-0.58667 0.69475,-0.58886 0.68919,-0.59103 0.68362,-0.59319 0.67803,-0.59531 0.67242,-0.59744 0.66679,-0.59954 0.66113,-0.60162 0.65547,-0.60368 0.64977,-0.60573 0.64407,-0.60776 0.63833,-0.60978 0.63259,-0.61176 0.62683,-0.61374 0.62104,-0.6157 0.61523,-0.61763 0.60942,-0.61956 0.60358,-0.62146 0.59772,-0.62334 0.59185,-0.62521 0.58595,-0.62705 0.58005,-0.62889 0.57412,-0.63069 0.56817,-0.63249 0.56222,-0.63426 0.55624,-0.63601 0.55025,-0.63775 0.54424,-0.63946 0.53821,-0.64116 0.53218,-0.64284 0.52611,-0.6445 0.52005,-0.64614 0.51396,-0.64776 0.50785,-0.64937 0.50174,-0.65095 0.4956,-0.65251 0.48946,-0.65405 0.48329,-0.65559 0.47712,-0.65708 0.47093,-0.65858 0.46472,-0.66004 0.45851,-0.66149 0.45228,-0.66292 0.44603,-0.66433 0.43978,-0.66572 0.4335,-0.66708 0.42722,-0.66844 0.42092,-0.66977 0.41462,-0.67107 0.4083,-0.67237 0.40196,-0.67364 0.39562,-0.67489 0.38926,-0.67612 0.38289,-0.67733 0.37652,-0.67852 0.37012,-0.67969 0.36373,-0.68084 0.35731,-0.68198 0.35089,-0.68308 0.34446,-0.68418 0.33801,-0.68524 0.33156,-0.6863 0.3251,-0.68732 0.31863,-0.68834 0.31215,-0.68932 0.30565,-0.6903 0.29915,-0.69124 0.29265,-0.69217 0.28613,-0.69308 0.2796,-0.69396 0.27307,-0.69483 0.26653,-0.69568 0.25997,-0.6965 0.25342,-0.69731 0.24686,-0.69809 0.24028,-0.69886 0.2337,-0.6996 0.22712,-0.70032 0.22052,-0.70103 0.21392,-0.70171 0.20732,-0.70236 0.2007,-0.70301 0.19409,-0.70363 0.18746,-0.70422 0.18084,-0.7048 0.1742,-0.70536 0.16756,-0.7059 0.16091,-0.70641 0.15427,-0.7069 0.14761,-0.70738 0.14096,-0.70783 0.13429,-0.70826 0.12762,-0.70867 0.12096,-0.70906 0.11428,-0.70944"
         id="path4" />
      <path
         d="m 226.23999,209.29108 0.063,-0.40991 0.0607,-0.41003 0.0585,-0.41014 0.0563,-0.41024 0.0541,-0.41034 0.0518,-0.41044 0.0496,-0.41053 0.0473,-0.41062 0.0451,-0.4107 0.0429,-0.41078 0.0407,-0.41086 0.0384,-0.41092 0.0362,-0.411 0.034,-0.41106 0.0317,-0.41112 0.0295,-0.41117 0.0273,-0.41123 0.025,-0.41127 0.0228,-0.41132 0.0205,-0.41135 0.0183,-0.41139 0.0161,-0.41142 0.0138,-0.41145 0.0116,-0.41147 0.009,-0.41149 0.007,-0.41151 0.005,-0.41152 0.003,-0.41152 4.2e-4,-0.41153 -0.002,-0.41152 -0.004,-0.41152 -0.006,-0.41151 -0.009,-0.4115 -0.0108,-0.41148 -0.013,-0.41146 -0.0152,-0.41143 -0.0175,-0.4114 -0.0197,-0.41137 -0.0219,-0.41133 -0.0242,-0.41129 -0.0264,-0.41125 -0.0286,-0.41119 -0.0309,-0.41114 -0.0331,-0.41108 -0.0353,-0.41102 -0.0376,-0.41096 -0.0398,-0.41088 -0.0421,-0.41081 -0.0443,-0.41073 -0.0465,-0.41065 -0.0487,-0.41056 -0.051,-0.41048 -0.0532,-0.41038 -0.0554,-0.41028 -0.0577,-0.41017 -0.0599,-0.41007 -0.0621,-0.40996 -0.0644,-0.40985 -0.0666,-0.40973 -0.0688,-0.4096 -0.071,-0.40948 -0.0733,-0.40935 -0.0755,-0.40921 -0.0777,-0.40907 -0.0799,-0.40894 -0.0822,-0.40878 -0.0844,-0.40863 -0.0866,-0.40848 -0.0888,-0.40832 -0.091,-0.40816 -0.0932,-0.40799 -0.0955,-0.40782 -0.0977,-0.40764 -0.0999,-0.40747 -0.10211,-0.40728 -0.10432,-0.40709 -0.10653,-0.40691 -0.10875,-0.40671 -0.11095,-0.40651 -0.11316,-0.4063 -0.11537,-0.4061 -0.11758,-0.40589 -0.11978,-0.40568 -0.12198,-0.40545 -0.12419,-0.40524 -0.12639,-0.405 -0.12859,-0.40477 -0.13079,-0.40454 -0.13299,-0.4043 -0.13519,-0.40406 -0.13738,-0.40381 -0.13957,-0.40356 -0.14177,-0.40331 -0.14396,-0.40304 -0.14614,-0.40279 -0.14834,-0.40251 -0.15052,-0.40225 -0.15271,-0.40197 -0.15489,-0.40169 -0.15708,-0.40141 -0.15925,-0.40112 -0.16144,-0.40084 -0.16361,-0.40054 -0.16579,-0.40024 -0.16796,-0.39993 -0.17013,-0.39963 -0.17231,-0.39933 -0.17448,-0.399 -0.17664,-0.39869 -0.17881,-0.39837 -0.18097,-0.39804 -0.18314,-0.39771 -0.1853,-0.39738 -0.18745,-0.39704 -0.18962,-0.3967 -0.19176,-0.39635 -0.19392,-0.39601 -0.19608,-0.39565 -0.19822,-0.39529 -0.20037,-0.39493 -0.20251,-0.39457 -0.20466,-0.3942 -0.2068,-0.39382 -0.20893,-0.39345 -0.21108,-0.39307 -0.21321,-0.39269 -0.21534,-0.39229 -0.21748,-0.39191 -0.2196,-0.3915 -0.22173,-0.39111 -0.22386,-0.39071 -0.22598,-0.39029 -0.22809,-0.38989 -0.23022,-0.38947 -0.23233,-0.38905 -0.23444,-0.38863 -0.23656,-0.38821 -0.23866,-0.38777 -0.24077,-0.38734 -0.24288,-0.3869 -0.24497,-0.38645 -0.24708,-0.38602 -0.24917,-0.38556 -0.25126,-0.38511 -0.50881,-0.76884 -0.51715,-0.76699 -0.52548,-0.76509 -0.53378,-0.76318 -0.54207,-0.76123 -0.55033,-0.75925 -0.55858,-0.75724 -0.56679,-0.7552 -0.57499,-0.75313 -0.58317,-0.75104 -0.59132,-0.7489 -0.59944,-0.74675 -0.60756,-0.74457 -0.61563,-0.74234 -0.62369,-0.74011 -0.63172,-0.73782 -0.63973,-0.73553 -0.64772,-0.73319 -0.65567,-0.73083 -0.6636,-0.72844 -0.6715,-0.72602 -0.67939,-0.72358 -0.68723,-0.7211 -0.69506,-0.71859 -0.70286,-0.71606 -0.71062,-0.7135 -0.71837,-0.71092 -0.72608,-0.70829 -0.73377,-0.70565 -0.74142,-0.70298 -0.74905,-0.70028 -0.75664,-0.69755 -0.76422,-0.6948 -0.77175,-0.69201 -0.77925,-0.6892 -0.78673,-0.68637 -0.79418,-0.6835 -0.80159,-0.68061 -0.80898,-0.6777 -0.81632,-0.67475 -0.82364,-0.67177 -0.83093,-0.66879 -0.83818,-0.66575 -0.8454,-0.66271 -0.85259,-0.65963 -0.85974,-0.65653 -0.86686,-0.6534 -0.87394,-0.65025 -0.881,-0.64706 -0.88801,-0.64387 -0.89499,-0.64063 -0.90194,-0.63738 -0.90885,-0.63409 -0.91572,-0.6308 -0.92256,-0.62746 -0.92937,-0.6241 -0.93613,-0.62073 -0.94286,-0.61732 -0.94954,-0.6139 -0.95621,-0.61044 -0.96282,-0.60696 -0.9694,-0.60347 -0.97594,-0.59994 -0.98244,-0.59639 -0.9889,-0.59282 -0.99533,-0.58923 -1.00171,-0.58561 -1.00806,-0.58197 -1.01437,-0.5783 -1.02063,-0.57462 -1.02685,-0.57091 -1.03305,-0.56717 -1.03918,-0.56343 -1.04529,-0.55964 -1.05136,-0.55585 -1.05737,-0.552026 -1.06336,-0.548186 -1.06929,-0.544321 -1.07518,-0.540437 -1.08104,-0.536531 -1.08685,-0.532603 -1.09262,-0.528655 -1.09835,-0.524686 -1.10402,-0.520696 -1.10966,-0.516685 -1.11526,-0.512655 -1.12081,-0.508604 -1.12631,-0.504533 -1.13178,-0.500442 -1.13719,-0.496331 -1.14257,-0.492202 -1.14789,-0.488052 -1.15318,-0.483883 -1.15841,-0.479696 -1.1636,-0.475489 -1.16875,-0.471264 -1.17385,-0.46702 -1.1789,-0.462757 -1.18391,-0.458477 -1.18887,-0.454178 -1.19378,-0.449862 -1.19865,-0.445528 -1.20347,-0.441176 -1.20824,-0.436807 -1.21296,-0.432421 -1.21764,-0.428017 -1.22227,-0.423597 -1.22685,-0.41916 -1.23138,-0.414707 -1.23586,-0.410237 -1.2403,-0.405751 -1.24468,-0.40125 -1.24903,-0.396732 -1.2533,-0.392198 -1.25755,-0.38765 -1.26174,-0.383085 -1.26587,-0.378507 -1.26997,-0.373913 -1.274,-0.369304 -1.278,-0.36468 L 98.729331,79.384756 97.44351,79.029364 96.153852,78.678639 94.860407,78.332593 93.563226,77.99124 92.26236,77.654595 90.957861,77.322669 89.649779,76.995476 88.338167,76.673028 87.023076,76.35534 85.704557,76.042423 84.382663,75.734289 83.057446,75.43095 81.728958,75.132419 80.397251,74.838708 79.062378,74.549827 77.72439,74.265788 76.383342,73.986603 75.039286,73.712283 73.692274,73.442837 72.34236,73.178277 70.989597,72.918614 69.634039,72.663857 68.275737,72.414016 66.914747,72.169102 65.551122,71.929124 64.184915,71.694091 62.81618,71.464013 61.444971,71.238899 60.071342,71.018757 58.695348,70.803596 57.317041,70.593426 55.936478,70.388253 54.553711,70.188086 53.168796,69.992934 51.781787,69.802803 50.392739,69.617701 49.001706,69.437636 47.608743,69.262614 46.213906,69.092643 44.817248,68.927729 43.418825,68.767878 42.018692,68.613097 40.616904,68.463393 39.213517,68.31877 37.808585,68.179235 36.402165,68.044793 34.99431,67.91545 33.585078,67.79121 32.174523,67.672078 30.7627,67.55806 29.349666,67.449159 27.935476,67.34538 26.520186,67.24673 25.103852,67.15321 23.686529,67.06482 22.268273,66.98157 20.84914,66.90346 19.429186,66.83049 18.008467,66.76267 16.587038,66.7 15.164956,66.64248 13.742277,66.59011 12.319057,66.5429"
         id="path5" />
      <path
         d="m -12.31911,66.542879 -1.42322,0.04721 -1.422678,0.05237 -1.422082,0.05752 -1.421428,0.06267 -1.420719,0.06782 -1.419954,0.07297 -1.419133,0.07811 -1.418256,0.08325 -1.417323,0.08839 -1.416334,0.09352 -1.41529,0.09865 -1.414189,0.103779 -1.413034,0.108902 -1.411822,0.114018 -1.410555,0.119132 -1.409232,0.12424 -1.407854,0.129344 -1.406421,0.134442 -1.404931,0.139535 -1.403387,0.144623 -1.401788,0.149705 -1.400132,0.15478 -1.398423,0.159851 -1.396657,0.164914 -1.394838,0.169972 -1.392962,0.175022 -1.391033,0.180065 -1.389048,0.185102 -1.387009,0.190131 -1.384915,0.195153 -1.382766,0.200166 -1.380563,0.205173 -1.378306,0.210171 -1.375994,0.215161 -1.373629,0.220142 -1.371208,0.225114 -1.368735,0.230078 -1.366207,0.235033 -1.363625,0.239979 -1.36099,0.244914 -1.358301,0.249841 -1.355558,0.254757 -1.352763,0.259663 -1.349914,0.26456 -1.347011,0.269446 -1.344056,0.274321 -1.341048,0.279185 -1.337987,0.284039 -1.334873,0.288881 -1.331706,0.293711 -1.328488,0.298531 -1.325217,0.303339 -1.321894,0.308134 -1.318518,0.312917 -1.315091,0.317689 -1.311612,0.322447 -1.308082,0.327193 -1.304499,0.331926 -1.300865,0.336646 -1.297181,0.341353 -1.293444,0.346046 -1.289658,0.350725 -1.28582,0.355392 -1.281934,0.360043 -1.27799,0.364681 -1.27401,0.369304 -1.26996,0.373912 -1.26588,0.378507 -1.26173,0.383086 -1.25755,0.38765 -1.25331,0.392198 -1.24902,0.396732 -1.24468,0.401249 -1.2403,0.405752 -1.23587,0.410237 -1.23138,0.414707 -1.22684,0.41916 -1.22227,0.423597 -1.21764,0.428017 -1.21296,0.432421 -1.20824,0.436807 -1.20347,0.441176 -1.19865,0.445528 -1.19378,0.449862 -1.18887,0.454178 -1.18391,0.458477 -1.1789,0.462758 -1.17385,0.46702 -1.16875,0.471263 -1.1636,0.475489 -1.15841,0.479696 -1.15318,0.483884 -1.14789,0.488052 -1.14257,0.492201 -1.13719,0.496332 -1.13177,0.500442 -1.12632,0.504533 -1.1208,0.508604 -1.11526,0.512655 -1.10966,0.516685 -1.10403,0.520696 -1.09834,0.524686 -1.09262,0.528654 -1.08685,0.532604 -1.08104,0.53653 -1.07519,0.540437 -1.06929,0.544322 -1.06335,0.548186 -1.05737,0.552028 -1.05136,0.55585 -1.04529,0.55965 -1.03918,0.56342 -1.03305,0.56718 -1.02685,0.5709 -1.02063,0.57462 -1.01437,0.5783 -1.00806,0.58197 -1.00171,0.58561 -0.99533,0.58923 -0.9889,0.59282 -0.98244,0.59639 -0.97594,0.59994 -0.9694,0.60347 -0.96282,0.60696 -0.9562,0.61045 -0.94955,0.61389 -0.94286,0.61732 -0.93613,0.62073 -0.92936,0.6241 -0.92256,0.62747 -0.91573,0.63079 -0.90885,0.63409 -0.90193,0.63738 -0.895,0.64063 -0.88801,0.64387 -0.88099,0.64707 -0.87395,0.65024 -0.86686,0.6534 -0.85974,0.65653 -0.85259,0.65963 -0.8454,0.66271 -0.83818,0.66576 -0.83092,0.66878 -0.82364,0.67177 -0.81633,0.67475 -0.80897,0.6777 -0.80159,0.68061 -0.79418,0.6835 -0.78673,0.68637 -0.77926,0.6892 -0.77175,0.69201 -0.76421,0.6948 -0.75664,0.69755 -0.74905,0.70028 -0.74142,0.70298 -0.73377,0.70565 -0.72608,0.70829 -0.71837,0.71092 -0.71062,0.7135 -0.70286,0.71606 -0.69506,0.71859 -0.68723,0.7211 -0.67939,0.72358 -0.6715,0.72602 -0.6636,0.72844 -0.65567,0.73083 -0.64771,0.73319 -0.63973,0.73553 -0.63173,0.73782 -0.62369,0.74011 -0.61563,0.74234 -0.60755,0.74457 -0.59945,0.74675 -0.59132,0.7489 -0.58316,0.75104 -0.575,0.75313 -0.56679,0.7552 -0.55857,0.75724 -0.55034,0.75925 -0.54207,0.76123 -0.53378,0.76318 -0.52548,0.76509 -0.51715,0.76699 -0.5088,0.76884 -0.25127,0.38511 -0.24917,0.38556 -0.24707,0.38601 -0.24498,0.38646 -0.24287,0.3869 -0.24077,0.38734 -0.23867,0.38777 -0.23655,0.3882 -0.23445,0.38863 -0.23233,0.38906 -0.23021,0.38947 -0.2281,0.38988 -0.22598,0.3903 -0.22385,0.3907 -0.22173,0.39111 -0.2196,0.39151 -0.21748,0.39191 -0.21534,0.39229 -0.21321,0.39269 -0.21108,0.39306 -0.20894,0.39345 -0.2068,0.39383 -0.20465,0.3942 -0.20252,0.39457 -0.20037,0.39493 -0.19822,0.39529 -0.19607,0.39565 -0.19392,0.396 -0.19177,0.39636 -0.18961,0.3967 -0.18746,0.39704 -0.18529,0.39737 -0.18314,0.39772 -0.18097,0.39804 -0.17881,0.39836 -0.17665,0.39869 -0.17447,0.39901 -0.17231,0.39932 -0.17013,0.39963 -0.16797,0.39994 -0.16578,0.40024 -0.16362,0.40054 -0.16143,0.40083 -0.15926,0.40112 -0.15707,0.40141 -0.15489,0.4017 -0.15271,0.40197 -0.15052,0.40224 -0.14834,0.40252 -0.14615,0.40278 -0.14395,0.40305 -0.14177,0.4033 -0.13957,0.40356 -0.13738,0.40381 -0.13519,0.40406 -0.13299,0.4043 -0.13079,0.40454 -0.12859,0.40477 -0.12639,0.40501 -0.12419,0.40523 -0.12198,0.40546 -0.11978,0.40567 -0.11758,0.40589 -0.11537,0.4061 -0.11316,0.40631 -0.11095,0.40651 -0.10875,0.40671 -0.10653,0.4069 -0.10432,0.4071 -0.10211,0.40728 -0.0999,0.40746 -0.0977,0.40765 -0.0955,0.40782 -0.0932,0.40799 -0.091,0.40815 -0.0888,0.40832 -0.0866,0.40848 -0.0844,0.40863 -0.0822,0.40879 -0.0799,0.40893 -0.0777,0.40907 -0.0755,0.40922 -0.0733,0.40934 -0.071,0.40948 -0.0688,0.40961 -0.0666,0.40972 -0.0644,0.40985 -0.0621,0.40996 -0.0599,0.41007 -0.0577,0.41018 -0.0554,0.41028 -0.0532,0.41038 -0.051,0.41047 -0.0487,0.41056 -0.0465,0.41065 -0.0443,0.41073 -0.0421,0.41081 -0.0398,0.41089 -0.0376,0.41095 -0.0353,0.41102 -0.0331,0.41108 -0.0309,0.41114 -0.0286,0.4112 -0.0264,0.41124 -0.0242,0.41129 -0.0219,0.41133 -0.0197,0.41137 -0.0175,0.4114 -0.0152,0.41144 -0.013,0.41145 -0.0108,0.41148 -0.009,0.4115 -0.006,0.41151 -0.004,0.41152 -0.002,0.41152 4.2e-4,0.41153 0.003,0.41152 0.005,0.41152 0.007,0.41151 0.009,0.41149 0.0116,0.41147 0.0138,0.41145 0.0161,0.41142 0.0183,0.41139 0.0205,0.41136 0.0228,0.41131 0.025,0.41127 0.0273,0.41123 0.0295,0.41117 0.0317,0.41112 0.034,0.41106 0.0362,0.411 0.0384,0.41093 0.0407,0.41085 0.0429,0.41078 0.0451,0.4107 0.0473,0.41062 0.0496,0.41053 0.0518,0.41044 0.0541,0.41034 0.0563,0.41024 0.0585,0.41014 0.0607,0.41003 0.063,0.40991"
         id="path6" />
      <path
         d="m -226.23999,209.29108 0.0926,0.57803 0.097,0.57777 0.10146,0.57753 0.10589,0.57726 0.11032,0.57698 0.11473,0.5767 0.11916,0.5764 0.12357,0.57609 0.12799,0.57576 0.1324,0.57543 0.13681,0.57509 0.14122,0.57474 0.14563,0.57437 0.15002,0.57399 0.15443,0.5736 0.15882,0.5732 0.16321,0.57279 0.1676,0.57236 0.17199,0.57194 0.17638,0.57148 0.18075,0.57103 0.18512,0.57057 0.1895,0.57008 0.19387,0.5696 0.19823,0.56909 0.2026,0.56858 0.20695,0.56806 0.2113,0.56753 0.21565,0.56698 0.22,0.56642 0.22434,0.56585 0.22867,0.56528 0.233,0.56468 0.23733,0.56409 0.24166,0.56347 0.24597,0.56285 0.25028,0.56222 0.25459,0.56157 0.25889,0.56091 0.26319,0.56025 0.26748,0.55957 0.27177,0.55888 0.27606,0.55818 0.28032,0.55747 0.2846,0.55675 0.28887,0.55601 0.29312,0.55527 0.29738,0.55452 0.30163,0.55375 0.30587,0.55298 0.3101,0.55218 0.31434,0.5514 0.31855,0.55058 0.32278,0.54976 0.32699,0.54893 0.33119,0.54809 0.33539,0.54724 0.33959,0.54638 0.34377,0.5455 0.34795,0.54462 0.35212,0.54373 0.35628,0.54282 0.36044,0.5419 0.3646,0.54098 0.36873,0.54004 0.37288,0.5391 0.377,0.53813 0.38112,0.53717 0.38524,0.53619 0.38935,0.5352 0.39344,0.53419 0.39754,0.53319 0.40162,0.53217 0.40569,0.53113 0.40976,0.53009 0.41383,0.52904 0.41787,0.52798 0.42192,0.52691 0.42595,0.52582 0.42998,0.52473 0.434,0.52362 0.43801,0.52251 0.44201,0.52138 0.44601,0.52026 0.44998,0.5191 0.45396,0.51795 0.45793,0.51679 0.46189,0.51561 0.46583,0.51442 0.46978,0.51323 0.4737,0.51203 0.47762,0.51081 0.48154,0.50958 0.48543,0.50835 0.48933,0.5071 0.49322,0.50584 0.49708,0.50459 0.50095,0.5033 0.5048,0.50202 0.50865,0.50073 0.51248,0.49942 0.5163,0.49811 0.52012,0.49678 0.52392,0.49545 0.52771,0.4941 0.53149,0.49276 0.53527,0.49139 0.53903,0.49001 0.54278,0.48864 0.54653,0.48724 0.55025,0.48584 0.55397,0.48443 0.55768,0.48301 0.56138,0.48158 0.56506,0.48014 0.56874,0.47869 0.5724,0.47723 0.57606,0.47577 0.57969,0.47429 0.58333,0.4728 0.58695,0.47131 0.59055,0.4698 0.59415,0.46829 0.59774,0.46677 0.6013,0.46524 0.60487,0.46369 0.60842,0.46214 0.61195,0.46059 0.61548,0.45901 0.61899,0.45744 0.62249,0.45585 0.62598,0.45426 0.62946,0.45266 0.63292,0.45104 0.63637,0.44941 0.63981,0.44779 0.64324,0.44615 0.64665,0.4445 0.65006,0.44284 0.65344,0.44118 0.65682,0.43951 0.66018,0.43782 0.66353,0.43613 0.66687,0.43443 0.67019,0.43272 0.6735,0.431 0.6768,0.42928 0.68008,0.42755 0.68336,0.4258 0.68661,0.42406 0.68986,0.42229 0.69309,0.42053 0.6963,0.41875 0.69951,0.41697 0.7027,0.41518 0.70587,0.41338 0.70904,0.41156 0.71218,0.40976 0.71532,0.40793 0.71844,0.4061 0.72154,0.40425 0.72464,0.40241 0.72771,0.40056 0.73078,0.39869 0.73383,0.39682 0.73686,0.39494 0.73989,0.39305 0.74289,0.39116 0.74588,0.38926 0.74885,0.38735 0.75182,0.38543 0.75477,0.3835 0.7577,0.38157 0.76062,0.37964 0.76352,0.37768 0.76641,0.37573 0.76928,0.37377 0.77214,0.3718 0.77498,0.36982 0.77781,0.36783 0.78062,0.36585 0.78342,0.36385 0.7862,0.36184 0.78897,0.35983 0.79171,0.35781 0.79446,0.35578 0.79717,0.35375 0.79988,0.35171 0.80256,0.34966 0.80524,0.34761 0.80789,0.34555 0.81054,0.34348 0.81316,0.3414 0.81577,0.33932 0.81836,0.33724 0.82095,0.33514 0.8235,0.33304 0.82605,0.33093 0.82857,0.32881 0.83109,0.3267 0.83359,0.32457 0.83606,0.32244 0.83853,0.32029 0.84098,0.31815 0.8434,0.316 0.84583,0.31384 0.84822,0.31168 0.8506,0.3095 0.85296,0.30733 0.85531,0.30515 0.85765,0.30295 0.85995,0.30077 0.86226,0.29856 0.86453,0.29635 0.8668,0.29415 0.86905,0.29192 0.87127,0.2897 0.87349,0.28748 0.87568,0.28523 0.87786,0.283 0.88002,0.28075 0.88217,0.2785 0.88429,0.27624 0.8864,0.27398 0.88849,0.27172 0.89057,0.26943 0.89262,0.26717 0.89466,0.26487 0.89669,0.26259 0.89869,0.26029 0.90067,0.258 0.902646,0.25569 0.904596,0.25338 0.906529,0.25107 0.908446,0.24875 0.910343,0.24642 0.912224,0.2441 0.914086,0.24176 0.91593,0.23943 0.917757,0.23708 0.919565,0.23473 0.921356,0.23238 0.923129,0.23003 0.924883,0.22766 0.926619,0.2253 0.928337,0.22293 0.930037,0.22055 0.931719,0.21818 0.933382,0.21579 0.935028,0.2134 0.936654,0.21102 0.938263,0.20861 0.939853,0.20622 0.941425,0.20382 0.942978,0.2014 0.944512,0.199 0.946029,0.19658 0.947527,0.19415 0.949006,0.19174 0.950467,0.18931 0.951908,0.18688 0.953332,0.18444 0.954737,0.18201 0.956122,0.17956 0.95749,0.17712 0.958838,0.17468 0.960168,0.17221 0.961478,0.16977 0.962771,0.1673 0.964044,0.16485 0.965298,0.16238 0.966534,0.15991 0.96775,0.15743 0.968947,0.15497 0.970126,0.15248 0.971286,0.15001 0.972426,0.14752 0.973547,0.14504 0.97465,0.14254 0.975733,0.14006 0.976797,0.13756 0.977842,0.13506 0.978868,0.13256 0.979875,0.13006 0.980862,0.12756 0.98183,0.12504 0.982779,0.12254 0.983709,0.12002 0.98462,0.11751 0.985511,0.11499 0.986383,0.11248 0.987235,0.10995 0.988068,0.10742 0.988883,0.1049 0.989677,0.10238 0.990452,0.0998 0.991207,0.0973 0.991944,0.0948 0.992661,0.0922 0.993359,0.0897 0.994036,0.0872 0.994695,0.0846 0.995333,0.0821 0.995954,0.0795 0.996553,0.077 0.997134,0.0744 0.997694,0.0719 0.998236,0.0693 0.998758,0.0668 0.99926,0.0642 0.999743,0.0617 1.000206,0.0591 1.000649,0.0566 1.001073,0.054 1.001478,0.0515 1.001862,0.0489 1.002227,0.0463 1.002573,0.0438 1.002899,0.0412 1.003204,0.0387 1.003491,0.0361 1.003758,0.0335 1.004005,0.0309 1.004233,0.0284 1.0044398,0.0258 1.0046284,0.0232 1.0047968,0.0207 1.0049456,0.0181 1.0050747,0.0156 1.0051841,0.013 1.0052737,0.0104 1.0053438,0.008 1.005394,0.005 1.00542464,0.003 1.00543555,1.4e-4 1.00542681,-0.002 1.0053982,-0.005 1.0053501,-0.008 1.0052822,-0.0101 1.0051947,-0.0127 1.0050874,-0.0153 1.0049604,-0.0179 1.0048138,-0.0204 1.0046474,-0.023 1.0044619,-0.0256 1.004255,-0.0281 1.004031,-0.0307 1.003785,-0.0332 1.003521,-0.0358 1.003236,-0.0384 1.002932,-0.0409 1.002609,-0.0435 1.002266,-0.0461 1.001902,-0.0486 1.00152,-0.0512 1.001118,-0.0537 1.000695,-0.0563 1.000255,-0.0589 0.999793,-0.0614 0.999313,-0.064 0.998813,-0.0665 0.998293,-0.0691 0.997754,-0.0716 0.997195,-0.0742 0.996617,-0.0767 0.996018,-0.0793 0.995402,-0.0818 0.994764,-0.0843 0.994108,-0.0869 0.993432,-0.0894 0.992737,-0.092 0.992022,-0.0945 0.991288,-0.097 0.990534,-0.0996 0.989761,-0.1021 0.988969,-0.10463 0.988157,-0.10716 0.987326,-0.10968 0.986475,-0.1122 0.985606,-0.11472 0.984716,-0.11724 0.983808,-0.11975 0.98288,-0.12227 0.981934,-0.12477 0.980967,-0.12729 0.979982,-0.12979 0.978977,-0.13229 0.977953,-0.13479 0.976911,-0.1373 0.975848,-0.13978 0.974767,-0.14228 0.973667,-0.14477 0.972547,-0.14725 0.971409,-0.14974 0.970252,-0.15222 0.969075,-0.1547 0.96788,-0.15717 0.966665,-0.15965 0.965432,-0.16211 0.96418,-0.16458 0.962908,-0.16704 0.961619,-0.1695 0.96031,-0.17195 0.958982,-0.17441 0.957635,-0.17686 0.956271,-0.1793 0.954886,-0.18174 0.953484,-0.18419 0.952063,-0.18661 0.950622,-0.18905 0.949164,-0.19148 0.947687,-0.1939 0.946191,-0.19631 0.944677,-0.19874 0.943144,-0.20115 0.941592,-0.20355 0.940023,-0.20596 0.938435,-0.20836 0.936828,-0.21076 0.935203,-0.21314 0.93356,-0.21554 0.931899,-0.21792 0.930219,-0.2203 0.928521,-0.22267 0.926805,-0.22504 0.92507,-0.22741 0.923318,-0.22977 0.921548,-0.23213 0.919759,-0.23448 0.917952,-0.23683 0.916128,-0.23917 0.914285,-0.24152 0.912425,-0.24384 0.910546,-0.24618 0.908651,-0.24849 0.906736,-0.25082 0.904805,-0.25314 0.902856,-0.25544 0.90089,-0.25775 0.8989,-0.26004 0.8969,-0.26235 0.89488,-0.26463 0.89285,-0.26691 0.89078,-0.2692 0.88872,-0.27146 0.88663,-0.27374 0.88452,-0.276 0.88239,-0.27826 0.88025,-0.28051 0.8781,-0.28275 0.87591,-0.285 0.87373,-0.28723 0.87151,-0.28946 0.86929,-0.29169 0.86704,-0.2939 0.86478,-0.29612 0.8625,-0.29833 0.8602,-0.30052 0.8579,-0.30272 0.85556,-0.30491 0.85322,-0.3071 0.85085,-0.30927 0.84848,-0.31144 0.84608,-0.31361 0.84367,-0.31577 0.84123,-0.31792 0.8388,-0.32006 0.83633,-0.32221 0.83385,-0.32434 0.83136,-0.32647 0.82885,-0.32859 0.82632,-0.3307 0.82378,-0.33281 0.82121,-0.33492 0.81864,-0.33701 0.81605,-0.33909 0.81345,-0.34118 0.81082,-0.34326 0.80818,-0.34532 0.80552,-0.34739 0.80285,-0.34944 0.80017,-0.35149 0.79746,-0.35353 0.79475,-0.35557 0.79201,-0.35759 0.78927,-0.35961 0.78649,-0.36163 0.78372,-0.36363 0.78093,-0.36563 0.77811,-0.36762 0.77529,-0.36961 0.77244,-0.37159 0.76959,-0.37356 0.76672,-0.37551 0.76383,-0.37748 0.76093,-0.37942 0.75802,-0.38137 0.75508,-0.38329 0.75214,-0.38523 0.74917,-0.38714 0.7462,-0.38905 0.74322,-0.39095 0.7402,-0.39285 0.73719,-0.39474 0.73416,-0.39662 0.7311,-0.39849 0.72805,-0.40035 0.72497,-0.40222 0.72188,-0.40406 0.71877,-0.4059 0.71565,-0.40773 0.71253,-0.40956"
         id="path7" />
      <path
         d="M 5.9958378,-0.12900777 6.2033265,3.032667 6.4180324,6.193121 6.640183,9.3523531 l 0.2298335,3.1579949 0.1178754,1.578525 0.1198905,1.578204 0.1219384,1.577877 0.1240199,1.577544 0.1261356,1.577202 0.1282864,1.576852 0.1304727,1.576494 0.1326952,1.576125 0.1349548,1.575745 0.1372521,1.575353 0.1395877,1.574948 0.1419623,1.574531 0.1443766,1.574098 0.1468315,1.57365 0.1493272,1.573186 0.1518649,1.572705 0.1544451,1.572206 0.1570682,1.571688 0.1597353,1.57115 0.162447,1.570593 0.1652037,1.570013 0.1680064,1.569411 0.1708556,1.568787 0.173752,1.568137 0.176697,1.567464 0.179689,1.566765 0.182732,1.566039 0.185825,1.565285 0.188967,1.564503 0.192162,1.563693 0.195409,1.562851 0.198707,1.561979 0.202061,1.561076 0.205467,1.560139 0.208928,1.55917 0.212446,1.558164 0.216018,1.557126 0.219649,1.556049 0.223336,1.554937 0.227083,1.553786 0.230886,1.552597 0.234751,1.551367 0.238676,1.550099 0.24266,1.548787 0.246708,1.547435 0.250818,1.546039 0.25499,1.544598 0.259226,1.543114 0.263526,1.541584 0.267892,1.540006 0.272324,1.538382 0.276821,1.53671 0.281386,1.534987 0.286019,1.533216 0.29072,1.531393 0.29549,1.529519 0.2286,1.162409 0.23128,1.161 0.23401,1.15958 0.236789,1.15815 0.239616,1.1567 0.24249,1.15524 0.24541,1.15376 0.248375,1.15226 0.251385,1.15074 0.254438,1.14919 0.257533,1.14762 0.260671,1.146 0.263849,1.14436 0.267066,1.14269 0.270323,1.14097 0.273617,1.13922 0.27695,1.13741 0.280316,1.13557 0.28372,1.13368 0.287157,1.13174 0.290628,1.12974 0.294131,1.12769 0.297665,1.12558 0.301232,1.12342 0.304826,1.12118 0.308451,1.11888 0.312103,1.11651 0.315782,1.11408 0.319488,1.11157 0.323218,1.10899 0.326973,1.10633 0.330752,1.10358 0.334552,1.10076 0.338375,1.09785 0.342218,1.09486 0.34608,1.09176 0.349963,1.08859 0.353863,1.08531 0.357779,1.08194 0.361712,1.07847 0.365661,1.07489 0.369623,1.07122 0.373599,1.06742 0.377588,1.06353 0.381588,1.05953 0.385598,1.05539 0.389619,1.05116 0.393649,1.0468 0.397686,1.04231 0.40173,1.0377 0.405781,1.03297 0.409837,1.02811 0.413898,1.02311 0.41796,1.01797 0.422027,1.01271 0.426095,1.00731 0.430163,1.00175 0.434232,0.99606 0.438298,0.99021 0.442364,0.98423 0.446425,0.97808 0.450484,0.97179 0.454538,0.96533 0.458585,0.95872 0.383197,0.79358 0.385704,0.78735 0.38813,0.78116 0.390481,0.77502 0.392758,0.76888 0.394967,0.76276 0.397107,0.7566 0.39918,0.75042 0.401186,0.74419 0.403124,0.73787 0.404991,0.73149 0.406786,0.72501 0.408504,0.71841 0.41014,0.71168 0.41169,0.70481 0.413146,0.6978 0.414501,0.6906 0.415748,0.68323 0.416874,0.67567 0.417874,0.6679 0.418732,0.65992 0.41944,0.6517 0.419983,0.64325 0.420347,0.63455 0.420518,0.62558 0.42048,0.61636 0.420217,0.60684 0.41971,0.59705 0.418943,0.58696 0.417895,0.57656 0.416545,0.56586 0.414874,0.55482 0.412858,0.54348 0.410476,0.53178 0.407701,0.51977 0.404511,0.5074 0.40088,0.49468 0.396779,0.4816 0.392184,0.46818 0.387063,0.45438 0.381389,0.44022 0.375131,0.42568 0.368256,0.41078 0.360735,0.3955 0.352533,0.37984 0.343616,0.36379 0.333949,0.34737 0.323498,0.33056 0.312223,0.31338 0.30009,0.2958 0.287057,0.27784 0.273087,0.2595 0.258139,0.24078 0.24217,0.22168 0.225141,0.20219 0.207005,0.18234 0.187721,0.16209 0.167242,0.14149 0.268043,0.2197 0.170635,0.13289 0.0453,0.033 0.01201,0.008 0.0047,0.002"
         id="path8" />
      <path
         d="m -61.363329,201.32973 0.0055,-0.003 0.0137,-0.009 0.05104,-0.037 0.08113,-0.0622 0.109552,-0.0869 0.136367,-0.11112 0.161634,-0.13495 0.185408,-0.15831 0.20775,-0.18125 0.228713,-0.20372 0.248352,-0.22574 0.266721,-0.24731 0.28387,-0.26843 0.299854,-0.28909 0.314719,-0.3093 0.328514,-0.32905 0.34129,-0.34834 0.353089,-0.36719 0.363959,-0.38558 0.373943,-0.40352 0.383084,-0.42102 0.391424,-0.43807 0.399003,-0.45468 0.405861,-0.47086 0.412036,-0.48659 0.417565,-0.50191 0.422484,-0.5168 0.426827,-0.53127 0.43063,-0.54533 0.433924,-0.55898 0.436739,-0.57223 0.439106,-0.58509 0.441056,-0.59757 0.442615,-0.60966 0.443808,-0.62139 0.444665,-0.63275 0.445205,-0.64377 0.445456,-0.65444 0.445438,-0.66479 0.445171,-0.6748 0.444676,-0.68451 0.443971,-0.69393 0.443073,-0.70304 0.442001,-0.71188 0.440766,-0.72047 0.439384,-0.7288 0.437869,-0.73689 0.43623,-0.74476 0.43448,-0.75242 0.432626,-0.75988 0.430678,-0.76716 0.428642,-0.77429 0.426524,-0.78125 0.424329,-0.78809 0.42206,-0.79481 0.41972,-0.80144 0.41731,-0.80797 0.414829,-0.81444 0.412279,-0.82088 0.409653,-0.82728 0.406952,-0.83367 0.404169,-0.84008 0.401298,-0.84652 0.398334,-0.85301 0.395268,-0.85957 0.458188,-1.00529 0.45381,-1.01162 0.449437,-1.0178 0.445069,-1.02383 0.440708,-1.0297 0.436354,-1.03542 0.432008,-1.04101 0.427671,-1.04645 0.423343,-1.05175 0.419025,-1.05691 0.414718,-1.06194 0.410423,-1.06683 0.40614,-1.0716 0.401869,-1.07623 0.397613,-1.08075 0.393371,-1.08513 0.389144,-1.0894 0.384934,-1.09354 0.380739,-1.09759 0.376563,-1.1015 0.372404,-1.10531 0.368264,-1.10901 0.364144,-1.1126 0.360044,-1.1161 0.355965,-1.11948 0.351907,-1.12277 0.347873,-1.12597 0.343861,-1.12906 0.339873,-1.13208 0.335911,-1.13499 0.331972,-1.13782 0.328061,-1.14057 0.324176,-1.14324 0.320319,-1.14582 0.31649,-1.14833 0.31269,-1.15076 0.30892,-1.15313 0.30518,-1.15541 0.301471,-1.15764 0.297794,-1.1598 0.294151,-1.16189 0.290539,-1.16393 0.286963,-1.16591 0.283421,-1.16783 0.279915,-1.16969 0.276445,-1.17152 0.273012,-1.17329 0.269616,-1.17501 0.26626,-1.17669 0.262942,-1.17833 0.259663,-1.17994 0.256427,-1.18149 0.253231,-1.18304 0.250077,-1.18453 0.246966,-1.186 0.243899,-1.18745 0.240875,-1.18886 0.237897,-1.19027 0.234965,-1.19165 0.232079,-1.193009 0.229239,-1.194359 0.226449,-1.195695 0.223706,-1.197022 0.221013,-1.198343 0.262618,-1.448619 0.258596,-1.450099 0.254632,-1.45154 0.250722,-1.452943 0.246868,-1.454308 0.243067,-1.455634 0.239319,-1.456926 0.235626,-1.458181 0.231984,-1.459399 0.228395,-1.460585 0.224857,-1.461736 0.22137,-1.462853 0.217934,-1.463937 0.214546,-1.46499 0.21121,-1.466011 0.20792,-1.467 0.204681,-1.467961 0.201488,-1.468891 0.198342,-1.469792 0.195244,-1.470665 0.192191,-1.471511 0.189184,-1.472329 0.186222,-1.47312 0.183305,-1.473887 0.180431,-1.474627 0.1776,-1.475344 0.174814,-1.476037 0.172069,-1.476706 0.169366,-1.477352 0.166704,-1.477978 0.164083,-1.478581 0.161503,-1.479164 0.1589616,-1.479727 0.1564596,-1.48027 0.1539963,-1.480795 0.1515711,-1.481302 0.1491835,-1.48179 0.1468328,-1.482263 0.1445186,-1.482719 0.1422404,-1.483159 0.1399974,-1.483585 0.1377895,-1.483996 0.1356157,-1.484394 0.1334759,-1.484778 0.1313692,-1.48515 0.1292952,-1.485511 0.1272535,-1.48586 0.1252434,-1.486199 0.2445802,-2.973376 0.2369061,-2.974621 0.2294657,-2.975805 0.2222505,-2.97694 0.2152522,-2.9780335 0.2084618,-2.9790968 0.2018709,-2.98014 0.1954711,-2.98117347"
         id="path9" />
      <path
         d="m 226.23999,209.29108 -0.0873,0.55152 -0.0893,0.55135 -0.0913,0.55118 -0.0933,0.551 -0.0953,0.55081 -0.0974,0.55061 -0.0994,0.55039 -0.10139,0.55017 -0.10343,0.54993 -0.10545,0.54969 -0.10747,0.54943 -0.10951,0.54916 -0.11153,0.54889 -0.11357,0.54861 -0.11559,0.5483 -0.11763,0.548 -0.11966,0.54768 -0.1217,0.54735 -0.12372,0.54701 -0.12576,0.54667 -0.1278,0.54631 -0.12983,0.54594 -0.13186,0.54557 -0.1339,0.54518 -0.13593,0.54478 -0.13797,0.54438 -0.14001,0.54396 -0.14203,0.54354 -0.14407,0.5431 -0.14611,0.54266 -0.14814,0.54221 -0.15017,0.54175 -0.15221,0.54127 -0.15424,0.54079 -0.15627,0.54031 -0.1583,0.53981 -0.16033,0.5393 -0.16236,0.53878 -0.16439,0.53826 -0.16641,0.53773 -0.16845,0.53718 -0.17047,0.53664 -0.17249,0.53607 -0.17452,0.53551 -0.17654,0.53493 -0.17856,0.53435 -0.18059,0.53376 -0.1826,0.53315 -0.18462,0.53255 -0.18663,0.53192 -0.18865,0.53131 -0.19067,0.53067 -0.19267,0.53003 -0.19468,0.52938 -0.1967,0.52872 -0.19869,0.52806 -0.20071,0.52739 -0.2027,0.52671 -0.20471,0.52602 -0.20671,0.52532 -0.2087,0.52462 -0.2107,0.52392 -0.21269,0.52319 -0.21469,0.52248 -0.21667,0.52174 -0.21866,0.521 -0.22064,0.52025 -0.22263,0.51951 -0.22461,0.51874 -0.22658,0.51798 -0.22856,0.5172 -0.23053,0.51642 -0.23251,0.51564 -0.23447,0.51484 -0.23644,0.51404 -0.2384,0.51323 -0.24036,0.51242 -0.24232,0.5116 -0.24427,0.51077 -0.24623,0.50994 -0.24818,0.5091 -0.25012,0.50826 -0.25207,0.5074 -0.25401,0.50655 -0.25595,0.50568 -0.25788,0.50481 -0.25982,0.50394 -0.26175,0.50305 -0.26367,0.50217 -0.2656,0.50127 -0.26752,0.50038 -0.26943,0.49946 -0.27136,0.49856 -0.27326,0.49764 -0.27517,0.49672 -0.27708,0.4958 -0.27898,0.49486 -0.28088,0.49392 -0.28277,0.49298 -0.28467,0.49203 -0.28655,0.49108 -0.28844,0.49012 -0.29033,0.48915 -0.2922,0.48818 -0.29408,0.48722 -0.29595,0.48623 -0.29782,0.48524 -0.29968,0.48426 -0.30155,0.48327 -0.3034,0.48226 -0.30526,0.48127 -0.30711,0.48025 -0.30896,0.47925 -0.3108,0.47822 -0.31264,0.47721 -0.31448,0.47618 -0.31631,0.47514 -0.31814,0.47412 -0.31997,0.47307 -0.32179,0.47203 -0.3236,0.47099 -0.32542,0.46993 -0.32723,0.46888 -0.32904,0.46782 -0.33084,0.46675 -0.33264,0.46568 -0.33443,0.46462 -0.33623,0.46354 -0.33801,0.46245 -0.3398,0.46138 -0.34158,0.46029 -0.34335,0.45919 -0.34512,0.45811 -0.34689,0.457 -0.34866,0.45591 -0.35041,0.45479 -0.35217,0.45369 -0.35392,0.45258 -0.35567,0.45146 -0.35742,0.45035 -0.35915,0.44922 -0.36089,0.44809 -0.36262,0.44697 -0.36434,0.44583 -0.36607,0.4447 -0.36779,0.44357 -0.3695,0.44242 -0.37121,0.44127 -0.37292,0.44013 -0.37462,0.43898 -0.37632,0.43783 -0.37801,0.43667 -0.37971,0.43551 -0.38138,0.43435 -0.38307,0.43319 -0.38475,0.43202 -0.38641,0.43085 -0.38809,0.42967 -0.38975,0.4285 -0.3914,0.42733 -0.39307,0.42614 -0.39471,0.42496 -0.39636,0.42378 -0.398,0.42259 -0.39964,0.4214 -0.40127,0.4202 -0.80742,0.83683 -0.81391,0.83203 -0.82034,0.82721 -0.82676,0.82238 -0.83312,0.81754 -0.83946,0.81267 -0.84576,0.80778 -0.85202,0.80289 -0.85825,0.79798 -0.86443,0.79306 -0.87059,0.78811 -0.8767,0.78316 -0.88278,0.77819 -0.88881,0.77321 -0.89482,0.76822 -0.90078,0.76321 -0.90671,0.75819 -0.91259,0.75317 -0.91843,0.74812 -0.92425,0.74307 -0.93001,0.73801 -0.93575,0.73294 -0.94144,0.72785 -0.94708,0.72276 -0.9527,0.71765 -0.95826,0.71255 -0.9638,0.70741 -0.96929,0.70229 -0.97473,0.69714 -0.98014,0.69199 -0.9855,0.68683 -0.99083,0.68166 -0.99611,0.67649 -1.00134,0.67129 -1.00655,0.6661 -1.01169,0.6609 -1.0168,0.65568 -1.02187,0.65046 -1.02689,0.64522 -1.03187,0.63999 -1.03679,0.63474 -1.04169,0.62947 -1.04652,0.62421 -1.05132,0.61893 -1.05607,0.61365"
         id="path10" />
      <path
         d="m -226.23999,209.29108 0.14364,0.90438 0.14913,0.90381 0.1546,0.90319 0.16009,0.90254 0.16556,0.90185 0.17104,0.90111 0.17652,0.90034 0.182,0.89952 0.18748,0.89867 0.19295,0.89777 0.19843,0.89683 0.20389,0.89587 0.20937,0.89484 0.21483,0.8938 0.2203,0.89271 0.22576,0.89159 0.23122,0.89041 0.23668,0.88922 0.24213,0.88798 0.24758,0.8867 0.25302,0.8854 0.25846,0.88404 0.2639,0.88266 0.26933,0.88125 0.27476,0.87979 0.28018,0.8783 0.28559,0.87678 0.29101,0.87523 0.29641,0.87363 0.30181,0.87201 0.3072,0.87036 0.31259,0.86866 0.31797,0.86694 0.32334,0.86519 0.32871,0.8634 0.33406,0.86158 0.33942,0.85973 0.34475,0.85785 0.35009,0.85594 0.35542,0.85399 0.36074,0.85203 0.36604,0.85002 0.37134,0.84799 0.37664,0.84593 0.38191,0.84384 0.38718,0.84172 0.39245,0.83958 0.3977,0.8374 0.40293,0.83519 0.40817,0.83297 0.41339,0.83071 0.41859,0.82843 0.42379,0.82611 0.42897,0.82378 0.43415,0.82142 0.43931,0.81903 0.44446,0.81662 0.44959,0.81418 0.45472,0.81172 0.45982,0.80923 0.46493,0.80671 0.47,0.80419 0.47508,0.80162 0.48013,0.79905 0.48518,0.79644 0.4902,0.79381 0.49522,0.79117 0.50021,0.7885 0.5052,0.7858 0.51016,0.78309 0.51512,0.78035 0.52005,0.7776 0.52497,0.77483 0.52988,0.77203 0.53476,0.76921 0.53964,0.76638 0.54448,0.76353 0.54933,0.76065 0.55414,0.75776 0.55895,0.75485 0.56373,0.75193 0.5685,0.74898 0.57324,0.74602 0.57797,0.74304 0.58269,0.74004 0.58737,0.73703 0.59204,0.734 0.5967,0.73096 0.60133,0.7279 0.60594,0.72483 0.61054,0.72173 0.6151,0.71863 0.61966,0.71552 0.62419,0.71238 0.6287,0.70923 0.63318,0.70608 0.63766,0.70291 0.64209,0.69971 0.64652,0.69653 0.65092,0.69331 0.6553,0.69009 0.65965,0.68686 0.66398,0.68362 0.66829,0.68036 0.67258,0.67709 0.67684,0.67382 0.68108,0.67054 0.68529,0.66724 0.68948,0.66394 0.69364,0.66062 0.69779,0.6573 0.70189,0.65397 0.70599,0.65063 0.71005,0.64729 0.71409,0.64393 0.71811,0.64057 0.72208,0.6372 0.72605,0.63383 0.72998,0.63044 0.73389,0.62706 0.73776,0.62367 0.74161,0.62027 0.74544,0.61687 0.74924,0.61346 0.753,0.61004 0.75674,0.60663 0.76045,0.60321 0.76414,0.59979 0.49353,0.38324 0.49508,0.38185 0.49662,0.38046 0.49816,0.37906 0.4997,0.37767 0.50124,0.37627 0.50277,0.37487 0.50429,0.37348 0.50581,0.37208 0.50733,0.37068 0.50885,0.36928 0.51036,0.36788 0.51187,0.36649 0.51337,0.36508 0.51487,0.36368 0.51636,0.36227 0.51786,0.36088 0.51934,0.35947 1.04313,0.71473 1.04904,0.7091 1.0549,0.70348 1.06075,0.69784 1.06655,0.69221 1.07231,0.68657 1.07806,0.68091 1.08376,0.67526 1.08943,0.66961 1.09507,0.66393 1.10067,0.65827 1.10623,0.6526 1.11177,0.64691 1.11726,0.64123 1.12271,0.63553 1.12815,0.62984 1.13353,0.62414 1.13887,0.61843 1.1442,0.61272 1.14947,0.607 1.1547,0.60127 1.15991,0.59555 1.16507,0.58981 1.17019,0.58407 1.17528,0.57832 1.18032,0.57258 1.18533,0.56681 1.19029,0.56106 1.19523,0.55528 1.20011,0.54952 1.20495,0.54373 1.20976,0.53795 1.21453,0.53216 1.21924,0.52636 1.22393,0.52057 1.22857,0.51475 1.23316,0.50894 1.23772,0.50313 1.24222,0.4973 1.2467,0.49147 1.25112,0.48564 1.2555,0.47979 1.25984,0.47395 1.26413,0.4681 1.26837,0.46223 1.27258,0.45638 1.27674,0.4505 1.28085,0.44463 1.284913,0.43875 1.288934,0.43286 1.292907,0.42696 1.296834,0.42107 1.300713,0.41517 1.304546,0.40925 1.30833,0.40334 1.312067,0.39741 1.315755,0.39149 1.319395,0.38556 1.322987,0.37961 1.326529,0.37367 1.330022,0.36772 1.333465,0.36176 1.336858,0.35579 1.340201,0.34983 1.343494,0.34385 1.346735,0.33788 1.349926,0.33188 1.353064,0.32589 1.356152,0.31989 1.359187,0.31389 1.36217,0.30787 1.365101,0.30186 1.367978,0.29583 1.370802,0.28981 1.373573,0.28377 1.37629,0.27772 1.378953,0.27168 1.381561,0.26563 1.384115,0.25956 1.386614,0.2535 1.389058,0.24743 1.391446,0.24135 1.393778,0.23526 1.396055,0.22918 1.398274,0.22307 1.400437,0.21698 1.402543,0.21086 1.404591,0.20475 1.406583,0.19862 1.408516,0.1925 1.410391,0.18636 1.412207,0.18023 1.413965,0.17407 1.415664,0.16793 1.417302,0.16176 1.418883,0.15559 1.420402,0.14943 1.421861,0.14324 1.42326,0.13707 1.424598,0.13086 1.425875,0.12468 1.42709,0.11846 1.428244,0.11226 1.429336,0.10604 1.430364,0.0998 1.431332,0.0936 1.432235,0.0873 1.433077,0.0811 1.433853,0.0749 1.434566,0.0686 1.435216,0.0623 1.435801,0.0561 1.436321,0.0498 1.4367761,0.0435 1.4371663,0.0372 1.4374908,0.0309 1.4377493,0.0246 1.4379419,0.0183 1.4380679,0.012 1.22471267,0.006 1.22478221,0.002 1.22480992,-0.003 1.224796,-0.008 1.2247406,-0.0121 1.2246437,-0.0167 1.2245058,-0.0212 1.2243266,-0.0257 1.2241067,-0.0303 1.2238455,-0.0348 1.223545,-0.0393 1.223203,-0.0439 1.222821,-0.0484 1.222399,-0.0529 1.221938,-0.0574 1.221435,-0.0619 1.220894,-0.0665 1.220313,-0.071 1.219693,-0.0755 1.219033,-0.08 1.218336,-0.0845 1.217598,-0.089 1.216822,-0.0935 1.216008,-0.098 1.215155,-0.10246 1.214265,-0.10695 1.213335,-0.11144 1.212369,-0.11591 1.211364,-0.1204 1.210322,-0.12487 1.209242,-0.12934 1.208125,-0.13381 1.206972,-0.13829 1.205781,-0.14274 1.204553,-0.1472 1.203288,-0.15167 1.201989,-0.15611 1.200651,-0.16057 1.199277,-0.16502 1.197869,-0.16946 1.196424,-0.1739 1.194943,-0.17834 1.193426,-0.18278 1.191875,-0.18721 1.190289,-0.19164 1.188666,-0.19606 1.18701,-0.20048 1.185318,-0.20491 1.183593,-0.20931 1.181832,-0.21373 1.180037,-0.21814 1.178208,-0.22255 1.176346,-0.22694 1.174449,-0.23135 1.17252,-0.23573 1.170555,-0.24013 1.168559,-0.24452 1.166528,-0.2489 1.164466,-0.25328 1.16237,-0.25766 1.160241,-0.26203 1.15808,-0.26641 1.155886,-0.27076 1.153661,-0.27513 1.151404,-0.27949 1.149113,-0.28384 1.146793,-0.2882 1.144439,-0.29254 1.142056,-0.29689 1.139639,-0.30122 1.137194,-0.30556 1.134715,-0.3099 1.132207,-0.31422 1.129669,-0.31855 1.127099,-0.32286 1.124499,-0.32719 1.121869,-0.3315 1.119209,-0.3358 1.11652,-0.34011 1.1138,-0.34441 1.111051,-0.34871 1.108273,-0.35301 1.105466,-0.35729 1.102629,-0.36157 1.099763,-0.36586 1.09687,-0.37013 1.093949,-0.37441 1.09099,-0.37867 1.08802,-0.38294 1.08501,-0.38719 1.08197,-0.39146 1.07891,-0.3957 1.07582,-0.39996 1.0727,-0.40419 1.06956,-0.40844 1.06638,-0.41266 1.06319,-0.4169 1.05995,-0.42113 1.05671,-0.42534 1.05342,-0.42957 1.05012,-0.43377 1.04678,-0.43799 1.04343,-0.44219 1.04004,-0.44638 1.03664,-0.45059 1.03319,-0.45477 1.02974,-0.45896 1.02625,-0.46314 1.02274,-0.46731 1.0192,-0.47149 1.01564,-0.47566 1.01206,-0.47982 1.00845,-0.48397 1.00481,-0.48814 1.00115,-0.49228 0.99747,-0.49642 0.99377,-0.50056 0.99003,-0.5047 0.98628,-0.50883 0.9825,-0.51296 0.97871,-0.51707 0.97488,-0.52119 0.97103,-0.5253 0.96717,-0.52941 0.96327,-0.53351 0.95936,-0.5376 0.95543,-0.5417 0.95147,-0.54578"
         id="path11" />
    </g>
  </g>
</svg>
