<?xml version="1.0" encoding="UTF-8" standalone="no"?>
<svg
   width="730.0"
   height="416.0"
   version="1.1"
   id="svg36"
   sodipodi:docname="plywood_connectors.svg"
   inkscape:version="1.3.2 (091e20ef0f, 2023-11-25, custom)"
   xmlns:inkscape="http://www.inkscape.org/namespaces/inkscape"
   xmlns:sodipodi="http://sodipodi.sourceforge.net/DTD/sodipodi-0.dtd"
   xmlns="http://www.w3.org/2000/svg"
   xmlns:svg="http://www.w3.org/2000/svg">
  <defs
     id="defs36" />
  <sodipodi:namedview
     id="namedview36"
     pagecolor="#ffffff"
     bordercolor="#000000"
     borderopacity="0.25"
     inkscape:showpageshadow="2"
     inkscape:pageopacity="0.0"
     inkscape:pagecheckerboard="0"
     inkscape:deskcolor="#d1d1d1"
     inkscape:zoom="2.0575342"
     inkscape:cx="365"
     inkscape:cy="208.01598"
     inkscape:window-width="2560"
     inkscape:window-height="1440"
     inkscape:window-x="0"
     inkscape:window-y="0"
     inkscape:window-maximized="0"
     inkscape:current-layer="svg36" />
  <g
     transform="matrix(3.5108116,6.0809041,6.0809041,-3.5108116,224.83777,290.11618)"
     stroke-width="0.5"
     fill="none"
     id="g36">
    <!-- hidden lines -->
    <g
       stroke="#0000ff"
       fill="none"
       stroke-dasharray="0.5, 0.5"
       id="g1" />
    <!-- solid lines -->
    <g
       stroke="#82b9ff"
       fill="none"
       id="g35">
      <path
         d="M -19.091883,-4.4907312 -7.7781746,-11.022704"
         id="path1" />
      <path
         d="M 7.7781746,11.022704 -19.091883,-4.4907312"
         id="path2" />
      <path
         d="M -7.7781746,-11.022704 19.091883,4.4907312"
         id="path3" />
      <path
         d="M 19.091883,4.4907312 7.7781746,11.022704"
         id="path4" />
      <path
         d="m -3.959798,-2.2861904 -0.095986,0.056795 -0.093543,0.058137 -0.091043,0.059445 -0.088489,0.060717 -0.085882,0.061953 -0.083222,0.063151 -0.080513,0.064311 -0.077755,0.065433 -0.07495,0.066515 -0.0721,0.067557 -0.069207,0.068558 -0.066272,0.069518 -0.063297,0.070436 -0.060284,0.071311 -0.057235,0.072144 -0.054151,0.072933 -0.051034,0.073678 -0.047887,0.07438 -0.044711,0.075036 -0.041508,0.0756465 -0.03828,0.0762118 -0.035029,0.0767313 -0.031757,0.0772045 -0.028466,0.0776312 -0.025157,0.0780111 -0.021834,0.0783441 -0.018497,0.0786298 -0.015149,0.0788682 -0.011792,0.0790591 -0.00843,0.0792024 -0.00506,0.07929796 L -5.6,0"
         id="path5" />
      <path
         d="m -5.6,0 0.00169,0.07934576 0.00506,0.07929796 0.00843,0.0792024 0.011792,0.0790591 0.015149,0.0788682 0.018497,0.0786298 0.021834,0.0783441 0.025157,0.0780111 0.028466,0.0776312 0.031757,0.0772045 0.035029,0.0767313 0.03828,0.0762118 0.041508,0.0756465 0.044711,0.075036 0.047887,0.07438 0.051034,0.073678 0.054151,0.072933 0.057235,0.072144 0.060284,0.071311 0.063297,0.070436 0.066272,0.069518 0.069207,0.068558 0.0721,0.067557 0.07495,0.066515 0.077755,0.065433 0.080513,0.064311 0.083222,0.063151 0.085882,0.061953 0.088489,0.060717 0.091043,0.059445 0.093543,0.058137 0.095986,0.056795 0.098371,0.055417 0.100697,0.054007 0.1029622,0.052564 0.1051655,0.051089 0.1073055,0.049584 0.1093808,0.048048 0.1113902,0.046484 0.1133326,0.044892 0.1152066,0.043273 0.1170113,0.041627 0.1187455,0.039957 0.1204082,0.038262 0.1219983,0.036544 0.1235149,0.034805 0.1249571,0.033044 0.1263242,0.031264 0.127615,0.029465 0.128829,0.027648 0.1299655,0.025814 0.1310235,0.023965 0.2649052,0.042325 0.2681832,0.034769 0.27081514,0.02713 0.27279467,0.019426 0.27411701,0.011674 L 0,3.2331615 0.27477898,3.229267 0.54889599,3.217593 0.82169066,3.1981674 1.0925058,3.1710372 1.360689,3.1362677 1.6255942,3.0939427 1.7566177,3.069978 1.8865832,3.044164 2.0154122,3.016516 2.1430272,2.987051 2.2693514,2.955787 2.3943085,2.922743 2.5178234,2.887938 2.6398217,2.851394 2.7602299,2.813132 2.8789754,2.773175 2.9959867,2.731548 3.1111933,2.688275 3.2245259,2.643383 3.3359161,2.596899 3.4452969,2.548851 3.5526024,2.499267 3.6577679,2.448178 3.7607301,2.395614 3.8614271,2.341607 3.9597981,2.28619 4.0557841,2.229395 4.1493271,2.171258 4.2403701,2.111813 4.3288591,2.051096 4.4147411,1.989143 4.4979631,1.925992 4.5784761,1.861681 4.6562311,1.796248 4.7311811,1.729733 4.8032811,1.662176 4.8724881,1.593618 4.9387601,1.5241 5.0020571,1.453664 5.0623411,1.382353 5.1195761,1.310209 5.1737271,1.237276 5.2247611,1.163598 5.2726481,1.089218 5.3173591,1.014182 5.3588671,0.9385355 5.3971471,0.8623237 5.4321761,0.7855924 5.4639331,0.7083879 5.4923991,0.6307567 5.5175561,0.5527456 5.5393901,0.4744015 5.5578871,0.3957717 5.5730361,0.3169035 5.5848281,0.2378444 5.5932581,0.158642 5.5983181,0.07934404 5.6,0"
         id="path6" />
      <path
         d="M 5.6,0 5.5962054,-0.1190037 5.5848266,-0.23784612 5.565879,-0.3563662 5.5393885,-0.47440332 5.5053907,-0.59179752 5.4639319,-0.7083897 5.4150682,-0.82402184 5.3588659,-0.93853724 5.295401,-1.0517807 5.2247597,-1.1635988 5.1470376,-1.2738399 5.06234,-1.3823547 4.9707819,-1.488996 4.8724872,-1.5936195 4.7675891,-1.6960832 4.6562298,-1.7962483 4.5385603,-1.8939791 4.41474,-1.9891431 4.2849367,-2.0816114 4.1493263,-2.1712586 4.0080926,-2.2579632 3.8614271,-2.3416078 3.7095284,-2.422079 3.5526024,-2.499268 3.3908618,-2.57307 3.2245259,-2.643384 3.0538199,-2.710116 2.8789754,-2.773175 2.7002291,-2.832476 2.5178234,-2.887938 2.3320055,-2.939486 2.1430272,-2.987051 1.9511446,-3.030568 1.7566177,-3.069978 1.5597103,-3.105227 1.360689,-3.136268 1.1598237,-3.163058 0.95738658,-3.185562 0.75365197,-3.203749 0.54889599,-3.217594 l -0.20549987,-0.00948 -0.20596524,-0.00511 -0.20615149,-7.304e-4 -0.20605837,0.00365 -0.20568597,0.00803 -0.20503483,0.012393 -0.20410582,0.016742 -0.2029002,0.021068 -0.2014196,0.025365 -0.199666,0.029628 -0.1976419,0.033851 -0.1953499,0.038028 -0.1927931,0.042154 -0.1899751,0.046222 -0.1868995,0.050228 -0.1835708,0.054166 -0.1799932,0.05803 -0.1761718,0.061816 -0.1721114,0.065518 -0.167818,0.069131 -0.163297,0.07265 -0.1585548,0.076071 -0.1535977,0.079389 -0.1484324,0.082599"
         id="path7" />
      <path
         d="m -19.091883,-4.4907312 -21,12.1243557"
         id="path8" />
      <path
         d="m -40.091883,7.6336245 12,6.9282035"
         id="path9" />
      <path
         d="M -28.091883,14.561828 -15.577164,7.3364515"
         id="path10" />
      <path
         d="m -15.577164,7.3364515 2.828427,4.8989795"
         id="path11" />
      <path
         d="M 1.4350288,20.424432 -12.748737,12.235431"
         id="path12" />
      <path
         d="M 4.263456,18.791439 1.4350288,20.424432"
         id="path13" />
      <path
         d="M 16.778175,40.467568 4.263456,18.791439"
         id="path14" />
      <path
         d="m 28.778175,47.395771 -12,-6.928203"
         id="path15" />
      <path
         d="M 7.7781746,11.022704 28.778175,47.395771"
         id="path16" />
      <path
         d="m 19.091883,4.4907312 21,36.3730668"
         id="path17" />
      <path
         d="M 40.091883,40.863798 28.778175,47.395771"
         id="path18" />
      <path
         d="M 3.6551334,2.4494897 3.4630146,2.3581443 3.2640558,2.2718176 3.05865,2.1906799 2.8472027,2.1148916 2.6301317,2.0446023 2.4078657,1.979951 2.1808438,1.9210652 1.9495143,1.8680614 1.7143342,1.8210441 1.475768,1.7801064 1.2342868,1.7453289 0.99036777,1.7167805 0.74449254,1.6945174 0.49714682,1.6785838 0.24881914,1.669011 0,1.665818 -0.24881914,1.669008 -0.49714682,1.678578 -0.74449254,1.694512 -0.99036777,1.716775 -1.2342868,1.745323 -1.475768,1.7801 -1.7143342,1.821038 -1.9495143,1.868055 -2.1808438,1.921059 -2.4078657,1.979945 -2.6301317,2.044596 -2.8472027,2.114885 -3.05865,2.190673 -3.2640558,2.271811 -3.4630146,2.358138 -3.6551334,2.449483"
         id="path19" />
      <path
         d="M 1.4487063,3.1230994 1.2773601,3.07979 1.1021479,3.0419864 0.92360008,3.009803 0.74225693,2.9833373 0.55866732,2.9626693 0.37338689,2.9478617 0.18697639,2.9389591 0,2.9359886 l -0.18697639,0.00297 -0.1864105,0.0089 -0.18528043,0.014808 -0.18358961,0.020668 -0.18134315,0.026466 -0.17854782,0.032183 -0.1752122,0.037804 -0.1713462,0.043309"
         id="path20" />
      <path
         d="M -12.748737,24.48288 -2.1421356,18.359155"
         id="path21" />
      <path
         d="M 1.4350288,32.671881 -12.748737,24.48288"
         id="path22" />
      <path
         d="m 2.1421356,20.016184 4.2426407,2.44949"
         id="path23" />
      <path
         d="m 9.5667568,27.977026 -8.131728,4.694855"
         id="path24" />
      <path
         d="m -2.4041631,23.92335 -0.1150707,0.06978 -0.1090017,0.07296 -0.1026701,0.07596 -0.096091,0.07877 -0.089281,0.0814 -0.082255,0.08383 -0.075031,0.08606 -0.067627,0.08808 -0.060059,0.08989 -0.052347,0.09149 -0.044509,0.09286 -0.036564,0.09401 -0.02853,0.09493 -0.01123,0.04774 -0.0092,0.04788 -0.00716,0.048 -0.00512,0.04809 -0.00307,0.04815 -0.00102,0.04817"
         id="path25" />
      <path
         d="m -3.4,25.311394 0.00102,0.04817 0.00307,0.04815 0.00512,0.04809 0.00716,0.048 0.0092,0.04788 0.01123,0.04774 0.02853,0.09493 0.036564,0.09401 0.044509,0.09286 0.052347,0.09149 0.060059,0.08989 0.067627,0.08808 0.075031,0.08606 0.082255,0.08383 0.089281,0.0814 0.096091,0.07877 0.1026701,0.07596 0.1090017,0.07296 0.1150707,0.06978 0.1208627,0.06644 0.1263632,0.06293 0.1315596,0.05928 0.1364388,0.05548 0.1409895,0.05155 0.1452004,0.04749 0.1490616,0.04332 0.1525636,0.03904 0.1556982,0.03468 0.1584576,0.03022 0.16083529,0.0257 0.16282552,0.02111 0.16442348,0.01647 0.16562533,0.01179 0.16642819,0.0071 L 0,27.274385 l 0.16683009,-0.0024 0.16642819,-0.0071 0.16562533,-0.01179 0.16442348,-0.01647 0.16282552,-0.02111 0.16083529,-0.0257 0.1584576,-0.03022 0.1556982,-0.03468 0.1525636,-0.03904 0.1490616,-0.04332 0.1452004,-0.04749 0.1409895,-0.05155 0.1364388,-0.05548 0.1315596,-0.05928 0.1263632,-0.06293 0.1208627,-0.06644 0.1150707,-0.06978 0.1090017,-0.07296 0.1026701,-0.07596 0.096091,-0.07877 0.089281,-0.0814 0.082255,-0.08383 0.075031,-0.08606 0.067627,-0.08808 0.060059,-0.08989 0.052347,-0.09149 0.044509,-0.09286 0.036564,-0.09401 0.02853,-0.09493 0.01123,-0.04774 0.0092,-0.04788 0.00716,-0.048 0.00512,-0.04809 0.00307,-0.04815 L 3.4,25.311394"
         id="path26" />
      <path
         d="M 3.4,25.311394 3.3977,25.239144 3.39079,25.166984 3.379286,25.095024 3.363202,25.023354 3.342561,24.952084 3.31739,24.881294 3.287723,24.811094 3.2536,24.741564 3.215068,24.672814 3.172179,24.604924 3.124991,24.537994 3.073568,24.472114 3.017979,24.407364 2.9583,24.343844 l -0.063688,-0.06221 -0.067611,-0.06081 -0.071442,-0.05934 -0.075177,-0.05778 -0.078809,-0.05614 -0.082335,-0.05443 -0.085749,-0.05264 -0.089047,-0.05078 -0.092224,-0.04886 -0.095276,-0.04686 -0.0982,-0.04481 -0.1009896,-0.04269 -0.1036429,-0.04052 -0.1061557,-0.03829 -0.1085245,-0.036 -0.1107463,-0.03367 -0.112818,-0.0313 -0.1147368,-0.02888 -0.1165002,-0.02642 -0.1181056,-0.02393 -0.11955096,-0.0214 -0.12083433,-0.01885 -0.12195393,-0.01627 -0.12290826,-0.01366 -0.12369601,-0.01104 -0.12431613,-0.0084 -0.12476778,-0.0058 -0.12505032,-0.0031 -0.12516341,-4.43e-4 -0.12510686,0.0022 -0.12488077,0.0049 -0.12448544,0.0075 -0.12392139,0.01016 -0.1231894,0.01279 -0.12229048,0.0154 -0.12122581,0.01799 -0.11999682,0.02055 -0.1186053,0.02309 -0.117053,0.02559 -0.115342,0.02806 -0.1134747,0.0305 -0.1114537,0.03289 -0.1092816,0.03523 -0.1069614,0.03753 -0.1044963,0.03978 -0.1018894,0.04197 -0.099145,0.04411 -0.096265,0.04619 -0.093256,0.0482 -0.09012,0.05015"
         id="path27" />
      <path
         d="m -12.748737,24.48288 -9.686292,5.592383"
         id="path28" />
      <path
         d="m -22.435029,30.075263 8.485282,4.898979"
         id="path29" />
      <path
         d="m -13.949747,34.974242 1.20101,-0.693403"
         id="path30" />
      <path
         d="M 1.4350288,42.46984 -12.748737,34.280839"
         id="path31" />
      <path
         d="M 2.636039,44.55005 1.4350288,42.46984"
         id="path32" />
      <path
         d="M 11.12132,49.44903 2.636039,44.55005"
         id="path33" />
      <path
         d="M 1.4350288,32.671881 11.12132,49.44903"
         id="path34" />
      <path
         d="M 21.727922,43.325306 11.12132,49.44903"
         id="path35" />
    </g>
  </g>
</svg>
