<?xml version="1.0" encoding="UTF-8" standalone="no"?>
<svg
   width="730.0"
   height="416.0"
   version="1.1"
   id="svg20"
   sodipodi:docname="right_angle_guide.svg"
   inkscape:version="1.3.2 (091e20ef0f, 2023-11-25, custom)"
   xmlns:inkscape="http://www.inkscape.org/namespaces/inkscape"
   xmlns:sodipodi="http://sodipodi.sourceforge.net/DTD/sodipodi-0.dtd"
   xmlns="http://www.w3.org/2000/svg"
   xmlns:svg="http://www.w3.org/2000/svg">
  <defs
     id="defs20" />
  <sodipodi:namedview
     id="namedview20"
     pagecolor="#ffffff"
     bordercolor="#000000"
     borderopacity="0.25"
     inkscape:showpageshadow="2"
     inkscape:pageopacity="0.0"
     inkscape:pagecheckerboard="0"
     inkscape:deskcolor="#d1d1d1"
     inkscape:zoom="1.4548964"
     inkscape:cx="364.97444"
     inkscape:cy="208.26225"
     inkscape:window-width="2560"
     inkscape:window-height="1440"
     inkscape:window-x="0"
     inkscape:window-y="0"
     inkscape:window-maximized="0"
     inkscape:current-layer="svg20" />
  <g
     transform="matrix(2.5971005,4.49831,4.49831,-2.5971005,368.15381,211.99455)"
     stroke-width="0.5"
     fill="none"
     id="g20">
    <!-- hidden lines -->
    <g
       stroke="#0000ff"
       fill="none"
       stroke-dasharray="0.5, 0.5"
       id="g1" />
    <!-- solid lines -->
    <g
       stroke="#82b9ff"
       fill="none"
       id="g19">
      <path
         d="M -30.052038,-17.350552 5.3033009,-37.762967"
         id="path1" />
      <path
         d="M -30.052038,-17.350552 V 23.474277"
         id="path2" />
      <path
         d="m -30.052038,23.474277 24.7487371,14.28869"
         id="path3" />
      <path
         d="M -5.3033009,37.762967 7.4246212,30.414498"
         id="path4" />
      <path
         d="M 7.4246212,-10.410331 6.0104076,-11.226828"
         id="path5" />
      <path
         d="M 7.4246212,30.414498 V -10.410331"
         id="path6" />
      <path
         d="M 28.637825,-14.492814 7.4246212,-2.2453656"
         id="path7" />
      <path
         d="m 28.637825,-14.492814 v -9.797959"
         id="path8" />
      <path
         d="M 5.3033009,-37.762967 28.637825,-24.290773"
         id="path9" />
      <path
         d="M 6.0104076,-11.226828 28.637825,-24.290773"
         id="path10" />
      <path
         d="M -5.3033009,-3.0618622 7.4246212,-10.410331"
         id="path11" />
      <path
         d="M -30.052038,-17.350552 -5.3033009,-3.0618622"
         id="path12" />
      <path
         d="M -5.3033009,-3.0618622 V 37.762967"
         id="path13" />
      <path
         d="m 1.0606602,-0.69402209 -0.0676693,0.0405074 -0.0675775,0.0433295 -0.0673943,0.0460929 -0.0671196,0.0487938 -0.0667541,0.0514286 -0.066298,0.0539937 -0.0657521,0.0564856 -0.0651171,0.058901 -0.0643938,0.0612365 -0.0635833,0.0634891 -0.0626866,0.0656556 -0.0617049,0.06773315 -0.0606397,0.06971888 -0.0594922,0.07161015 -0.0582641,0.0734044 -0.05695704,0.0750991 -0.05557282,0.0766921 -0.05411326,0.0781811 -0.05258037,0.0795641 -0.0509762,0.0808394 -0.049303,0.082005 -0.0475629,0.0830596 -0.0457584,0.0840016 -0.0438919,0.0848297 -0.0419659,0.0855429 -0.039983,0.0861401 -0.037946,0.086621 -0.0358575,0.086984 -0.0337204,0.087229 -0.0315376,0.087356 -0.0293121,0.087365 -0.0270469,0.087255 -0.0247449,0.087027 -0.0224095,0.086681 -0.0200437,0.086217 -0.0176507,0.085637 -0.0152338,0.084941 -0.0127963,0.084129 -0.0103414,0.083204 -0.007873,0.082166 -0.005393,0.081016 -0.002906,0.079757 -4.1529e-4,0.078389 0.002076,0.076916 0.004565,0.075338 0.007047,0.073657 0.00952,0.071878 0.0119798,0.07 0.0144235,0.068028 0.0168476,0.065964 0.0192489,0.06381 0.0216241,0.06157 0.02397,0.059246 0.0262835,0.056843 0.0285613,0.054361 0.0308004,0.051807 0.0329977,0.049182 0.0351504,0.04649 0.0372554,0.043736 0.0393099,0.040922 0.0413112,0.038053 0.0432564,0.035132 0.045143,0.032164 0.0469685,0.029152"
         id="path14" />
      <path
         d="m -0.23933983,3.6805351 0.0653539,0.034116 0.0683283,0.028609 0.07113802,0.023034 0.0737764,0.017402 0.07623705,0.011729 0.078514,0.00603 0.0806019,3.125e-4 0.0824955,-0.0054 0.0841905,-0.011108 0.0856826,-0.016784 0.0869683,-0.02242 0.0880444,-0.028003 0.0889085,-0.033518 0.0895584,-0.038952 0.0899925,-0.044292 0.0902099,-0.049526 0.09021,-0.05464 0.089992,-0.059622 0.089558,-0.064461 0.088909,-0.069145 0.088044,-0.073662 0.086968,-0.078002 0.085683,-0.082153 0.08419,-0.086107 0.082496,-0.089854 0.080602,-0.093384 0.078514,-0.096688 0.076237,-0.09976 L 2.15584,2.5016888 2.226978,2.3965121 2.2953063,2.2890043 2.3606602,2.1794244 2.4228822,2.0680363 2.4818226,1.9551084 2.5373393,1.8409127 2.5892985,1.7257244 2.637575,1.6098209 2.6820527,1.4934816 2.7226243,1.3769865 2.759192,1.2606164 2.7916679,1.1446517 2.8199736,1.0293717 2.8440409,0.91505412 2.863812,0.80197435 2.8792391,0.69040483 2.890285,0.58061433 2.8969233,0.47286735 2.8991378,0.36742346 2.8969233,0.26453669 2.890285,0.1644549 2.8792391,0.06741919 2.863812,-0.02633667 2.844041,-0.11658681 l -0.024067,-0.086527 -0.028306,-0.0825954 -0.032476,-0.0784648 -0.036568,-0.0741452 -0.040572,-0.069647 -0.044478,-0.064981 -0.048277,-0.0601585 -0.051959,-0.055191 -0.055517,-0.0500906 -0.05894,-0.0448694 -0.062222,-0.0395402"
         id="path15" />
      <path
         d="m 2.3606602,-0.82279703 -0.065354,-0.0341158 -0.068328,-0.0286091 -0.071138,-0.0230336 -0.073776,-0.0174025 -0.076237,-0.0117295 -0.078514,-0.006028 -0.080602,-3.125e-4 -0.082496,0.005404 -0.08419,0.0111075 -0.085683,0.0167843 -0.086968,0.0224206 -0.088044,0.0280029 -0.088909,0.0335177 -0.089558,0.0389518 -0.089992,0.044292 -0.09021,0.0495255"
         id="path16" />
      <path
         d="m 1.0606602,23.800875 -0.0676693,0.04051 -0.0675775,0.04333 -0.0673943,0.04609 -0.0671196,0.04879 -0.0667541,0.05143 -0.066298,0.05399 -0.0657521,0.05649 -0.0651171,0.0589 -0.0643938,0.06124 -0.0635833,0.06349 -0.0626866,0.06566 -0.0617049,0.06773 -0.0606397,0.06972 -0.0594922,0.07161 -0.0582641,0.0734 -0.05695704,0.0751 -0.05557282,0.07669 -0.05411326,0.07818 -0.05258037,0.07956 -0.0509762,0.08084 -0.049303,0.082 -0.0475629,0.08306 -0.0457584,0.084 -0.0438919,0.08483 -0.0419659,0.08554 -0.039983,0.08614 -0.037946,0.08662 -0.0358575,0.08698 -0.0337204,0.08723 -0.0315376,0.08736 -0.0293121,0.08736 -0.0270469,0.08725 -0.0247449,0.08703 -0.0224095,0.08668 -0.0200437,0.08622 -0.0176507,0.08564 -0.0152338,0.08494 -0.0127963,0.08413 -0.0103414,0.0832 -0.007873,0.08217 -0.005393,0.08102 -0.002906,0.07976 -4.1529e-4,0.07839 0.002076,0.07692 0.004565,0.07534 0.007047,0.07366 0.00952,0.07188 0.0119798,0.07 0.0144235,0.06803 0.0168476,0.06596 0.0192489,0.06381 0.0216241,0.06157 0.02397,0.05925 0.0262835,0.05684 0.0285613,0.05436 0.0308004,0.05181 0.0329977,0.04918 0.0351504,0.04649 0.0372554,0.04374 0.0393099,0.04092 0.0413112,0.03805 0.0432564,0.03513 0.045143,0.03216 0.0469685,0.02915"
         id="path17" />
      <path
         d="m -0.23933983,28.175432 0.0653539,0.03412 0.0683283,0.02861 0.07113802,0.02303 0.0737764,0.0174 0.07623705,0.01173 0.078514,0.006 0.0806019,3.13e-4 0.0824955,-0.0054 0.0841905,-0.01111 0.0856826,-0.01678 0.0869683,-0.02242 0.0880444,-0.028 0.0889085,-0.03352 0.0895584,-0.03895 0.0899925,-0.04429 0.0902099,-0.04952 0.09021,-0.05464 0.089992,-0.05962 0.089558,-0.06446 0.088909,-0.06915 0.088044,-0.07366 0.086968,-0.078 0.085683,-0.08215 0.08419,-0.08611 0.082496,-0.08985 0.080602,-0.09338 0.078514,-0.09669 0.076237,-0.09976 0.073776,-0.102592 0.071138,-0.105176 0.068328,-0.107508 0.065354,-0.10958 0.062222,-0.111388 0.05894,-0.112928 0.055517,-0.114196 0.051959,-0.115188 0.048277,-0.115904 0.044478,-0.116339 0.040572,-0.116495 0.036568,-0.11637 0.032476,-0.115965 0.028306,-0.11528 0.024067,-0.114317 0.019771,-0.11308 0.015427,-0.11157 0.011046,-0.10979 0.00664,-0.107747 0.00221,-0.105444 -0.00221,-0.102887 -0.00664,-0.100082 -0.011046,-0.09703 -0.015427,-0.09376 -0.019771,-0.09025 -0.024067,-0.08653 -0.028306,-0.0826 -0.032476,-0.07847 -0.036568,-0.07415 -0.040572,-0.06965 -0.044478,-0.06498 -0.048277,-0.06016 -0.051959,-0.05519 -0.055517,-0.05009 -0.05894,-0.04487 -0.062222,-0.03954"
         id="path18" />
      <path
         d="m 2.3606602,23.6721 -0.065354,-0.03411 -0.068328,-0.02861 -0.071138,-0.02303 -0.073776,-0.0174 -0.076237,-0.01173 -0.078514,-0.006 -0.080602,-3.13e-4 -0.082496,0.0054 -0.08419,0.01111 -0.085683,0.01678 -0.086968,0.02242 -0.088044,0.028 -0.088909,0.03352 -0.089558,0.03895 -0.089992,0.04429 -0.09021,0.04953"
         id="path19" />
    </g>
  </g>
</svg>
