<?xml version="1.0" encoding="UTF-8" standalone="no"?>
<svg
   width="730.0"
   height="416.0"
   version="1.1"
   id="svg82"
   sodipodi:docname="screwed_knob.svg"
   inkscape:version="1.3.2 (091e20ef0f, 2023-11-25, custom)"
   xmlns:inkscape="http://www.inkscape.org/namespaces/inkscape"
   xmlns:sodipodi="http://sodipodi.sourceforge.net/DTD/sodipodi-0.dtd"
   xmlns="http://www.w3.org/2000/svg"
   xmlns:svg="http://www.w3.org/2000/svg">
  <defs
     id="defs82" />
  <sodipodi:namedview
     id="namedview82"
     pagecolor="#ffffff"
     bordercolor="#000000"
     borderopacity="0.25"
     inkscape:showpageshadow="2"
     inkscape:pageopacity="0.0"
     inkscape:pagecheckerboard="0"
     inkscape:deskcolor="#d1d1d1"
     inkscape:zoom="1.4548964"
     inkscape:cx="364.97444"
     inkscape:cy="208.26225"
     inkscape:window-width="2556"
     inkscape:window-height="1436"
     inkscape:window-x="0"
     inkscape:window-y="0"
     inkscape:window-maximized="0"
     inkscape:current-layer="svg82" />
  <g
     transform="matrix(6.1029006,10.570534,10.570534,-6.1029006,365.7537,320.82463)"
     stroke-width="0.5"
     fill="none"
     id="g82">
    <!-- hidden lines -->
    <g
       stroke="#0000ff"
       fill="none"
       stroke-dasharray="0.5, 0.5"
       id="g1" />
    <!-- solid lines -->
    <g
       stroke="#82b9ff"
       fill="none"
       id="g81">
      <path
         d="m -10.46518,-8.6548638 9.89949458,5.7154761"
         id="path1" />
      <path
         d="m -10.46518,-8.6548638 -2.121321,1.2247449"
         id="path2" />
      <path
         d="M -0.56568542,-2.9393877 -2.6870058,-1.7146428"
         id="path3" />
      <path
         d="m -12.586501,-7.4301189 9.8994952,5.7154761"
         id="path4" />
      <path
         d="M -0.56568542,-2.9393877 2.2627417,1.9595918"
         id="path5" />
      <path
         d="M 2.2627417,1.9595918 V 13.390544"
         id="path6" />
      <path
         d="m -12.586501,-7.4301189 -2.828427,1.6329932"
         id="path7" />
      <path
         d="M 2.2627417,1.9595918 0.14142136,3.1843367"
         id="path8" />
      <path
         d="M -2.6870058,-1.7146428 0.14142136,3.1843367"
         id="path9" />
      <path
         d="M -15.414928,-2.5311394 V -5.7971257"
         id="path10" />
      <path
         d="M -15.414928,-2.5311394 0.14142136,6.450323"
         id="path11" />
      <path
         d="M 0.14142136,3.1843367 V 6.450323"
         id="path12" />
      <path
         d="M 2.2627417,13.390544 0.14142136,14.615289"
         id="path13" />
      <path
         d="m 0.14142136,11.349302 v 3.265987"
         id="path14" />
      <path
         d="m 0.14142136,6.450323 v 4.898979"
         id="path15" />
      <path
         d="M 0.14142136,14.615289 -2.6870058,16.248282"
         id="path16" />
      <path
         d="M -2.6870058,16.248282 -7.939799,13.21558"
         id="path17" />
      <path
         d="m -7.9903066,-8.4507396 4.1426382,2.3917533"
         id="path18" />
      <path
         d="m -3.8741849,-6.043677 0.026517,-0.015309"
         id="path19" />
      <path
         d="M -3.6741799,-5.9282041 -3.8741849,-6.043677"
         id="path20" />
      <path
         d="m -3.6741799,-5.9282041 0.026517,-0.015309"
         id="path21" />
      <path
         d="m -3.6476634,-5.9435134 4.14263815,2.3917533"
         id="path22" />
      <path
         d="m 0.49497475,-3.5517601 -1.06066017,0.6123724"
         id="path23" />
      <path
         d="m -7.9903066,-8.4507396 -1.0606602,0.6123724"
         id="path24" />
      <path
         d="M 0.49497475,-3.5517601 3.3234019,1.3472194"
         id="path25" />
      <path
         d="M 3.3234019,1.3472194 2.2627417,1.9595918"
         id="path26" />
      <path
         d="M 3.3234019,1.3472194 V 6.1307259"
         id="path27" />
      <path
         d="m 3.2968854,6.1460352 0.026517,-0.015309"
         id="path28" />
      <path
         d="M 3.2968854,6.3769811 V 6.1460352"
         id="path29" />
      <path
         d="m 3.2968854,6.3769811 0.026517,-0.015309"
         id="path30" />
      <path
         d="M 3.3234019,6.3616718 V 11.145178"
         id="path31" />
      <path
         d="M 3.3234019,11.145178 2.2627417,11.757551"
         id="path32" />
      <path
         d="M 0.14142136,6.450323 -14.000714,12.982296"
         id="path33" />
      <path
         d="m -23.900209,7.2668196 9.899495,5.7154764"
         id="path34" />
      <path
         d="m -15.414928,-2.5311394 -8.485281,9.797959"
         id="path35" />
      <path
         d="M -23.900209,8.8998127 V 7.2668196"
         id="path36" />
      <path
         d="M 0.14142136,11.349302 -14.000714,14.615289"
         id="path37" />
      <path
         d="m -14.000714,12.982296 v 1.632993"
         id="path38" />
      <path
         d="M 3.2975925,6.2619164 3.2968854,6.3769811"
         id="path39" />
      <path
         d="m -3.8741849,-6.043677 0.200005,0.1154729"
         id="path40" />
      <path
         d="m 3.2968854,6.1460352 7.071e-4,0.1158812"
         id="path41" />
      <path
         d="M 3.5223938,6.1321273 3.5172462,5.8989341 3.5063878,5.6625855 3.4898305,5.4232735 3.4675937,5.1812144 3.4397736,4.9371877 3.4064445,4.6914549 3.3676432,4.444002 3.3234019,4.1948685"
         id="path42" />
      <path
         d="m -1.8420076,-4.9010175 -0.2274688,-0.1985955 -0.2288373,-0.1906361 -0.2299343,-0.1824663 -0.2307638,-0.1740934 -0.2313327,-0.1655253 -0.2316159,-0.1567882 -0.2316437,-0.14787 -0.2315108,-0.138728 -0.1156716,-0.06586 -0.1155899,-0.06349 -0.1154739,-0.061102 -0.1153195,-0.0587 -0.1151283,-0.056283 -0.1149031,-0.053851 -0.1146465,-0.051403 -0.1143576,-0.04894 -0.1140351,-0.046465 -0.1136775,-0.043977 -0.1132866,-0.041477 -0.1128635,-0.038966 -0.1124074,-0.036444 -0.1119183,-0.033913 -0.1113963,-0.031372 -0.1108416,-0.028823"
         id="path43" />
      <path
         d="m 3.3234019,9.3435914 0.06892,-0.086408 0.067052,-0.088795 0.065163,-0.091155 0.063256,-0.093486 0.06133,-0.09579 0.059386,-0.098063 0.057425,-0.1003078 0.055447,-0.1025215 0.053454,-0.1047044 0.051445,-0.1068555 0.049421,-0.1089742 0.047383,-0.1110603 0.045332,-0.1131126 0.043268,-0.115131 0.041192,-0.1171146 0.039105,-0.1190629 0.037006,-0.1209753 0.034897,-0.1228512 0.032779,-0.1246899 0.030651,-0.126491 0.028515,-0.1282536 0.026371,-0.1299774 0.02422,-0.1316615 0.022063,-0.1333055 0.019899,-0.1349086 0.017731,-0.1364702 0.015558,-0.1379898 0.013382,-0.1394666 0.011202,-0.1408998 0.00902,-0.1422891 0.00684,-0.1436334 0.00465,-0.1449324"
         id="path44" />
      <path
         d="m 3.4320306,7.4634705 -1.272e-4,7.35e-5"
         id="path45" />
      <path
         d="m 3.4319034,7.463544 0.022361,-0.1558871 0.021431,-0.1784473 0.019164,-0.2021343 0.012494,-0.1763327 0.00974,-0.2031973 0.00501,-0.2062549 2.831e-4,-0.2091631"
         id="path46" />
      <path
         d="M -14.000714,14.615289 -23.900209,8.8998127"
         id="path47" />
      <path
         d="m -6.3258888,-8.3847967 0.066411,-0.058786 0.067711,-0.05682 0.068995,-0.054841 0.070264,-0.052849 0.071515,-0.050845 0.07275,-0.04883 0.073968,-0.046802 0.075169,-0.044764"
         id="path48" />
      <path
         d="m -5.7591057,-8.7993344 0.1254509,-0.068777 0.1285347,-0.063256 0.1315381,-0.057696 0.1344593,-0.052099 0.1372965,-0.046469 0.140048,-0.040809 0.1427122,-0.035123 0.1452873,-0.029414 0.147772,-0.023686 0.1501646,-0.017942 0.1524639,-0.012185 0.1546682,-0.00642 0.1567765,-6.47e-4 0.1587872,0.00513 0.1606995,0.010899 0.1625117,0.016667 0.1642232,0.022426 0.1658328,0.028173 0.1673395,0.033905 0.1687423,0.039619 0.1700405,0.04531 0.1712334,0.050976 0.17232,0.056613 0.1733,0.062217 0.1741724,0.067786 0.174937,0.073315 0.1755932,0.078803 0.1761407,0.084244 0.176579,0.089636 0.176908,0.094977 0.17712752,0.1002611 0.17723722,0.105487 0.17723721,0.1106513 0.17712746,0.1157505 0.17690801,0.1207817 0.176579,0.125742 0.17614063,0.1306281 0.17559317,0.1354374 0.17493694,0.1401669 0.17417235,0.1448135 0.17329985,0.1493747 0.17231994,0.1538477 0.1712333,0.1582296 0.1700404,0.1625181 0.1687422,0.1667104 0.1673394,0.1708039 0.1658326,0.1747963 0.1642231,0.1786852 0.1625116,0.1824682 0.1606992,0.1861429 0.1587871,0.1897072 0.1567763,0.1931591 0.1546681,0.1964963 0.1524637,0.1997169 0.1501644,0.2028188 0.1477718,0.2058005 0.1452871,0.2086597 0.1427119,0.2113951 0.1400478,0.2140048 0.1372962,0.2164875 0.1344591,0.2188413 0.1315379,0.2210651 0.1285344,0.2231575 0.1254507,0.2251172 0.1222882,0.226943 0.1190492,0.2286338 0.1157354,0.2301887 0.112349,0.2316066 0.1088918,0.2328867 0.1053661,0.2340283 0.101774,0.2350307 0.098117,0.23589316 0.094399,0.2366153 0.09062,0.23719663 0.086784,0.23763683 0.082893,0.23793559 0.078949,0.23809278 0.074954,0.23810827 0.070911,0.23798207 0.066823,0.23771427 0.062691,0.2373049 0.058518,0.2367544 0.054307,0.2360631 0.050061,0.2352312 0.045781,0.2342594 0.041471,0.2331482 0.037132,0.2318983 0.032769,0.2305104 0.028382,0.2289854 0.023976,0.2273243 0.019552,0.2255278 0.015113,0.2235974 0.010663,0.2215339 0.0062,0.2193387 0.00174,0.2170131 -0.00274,0.2145586 -0.00721,0.2119764 L 6.419321,5.2773472 6.4031754,5.4837833 6.3825696,5.6872644 6.357513,5.8876697 6.3280178,6.0848801 6.2940987,6.2787787 6.2557731,6.4692504 6.2130611,6.6561821 6.1659855,6.8394631 6.1145716,7.0189845 6.0588475,7.19464 5.9988436,7.3663256 5.9345931,7.5339395 5.8661317,7.6973825 5.7934978,7.8565579 5.7167319,8.0113715 5.6358775,8.1617318 5.5509801,8.30755 5.4620879,8.44874 5.3692515,8.5852183 5.2725239,8.7169047 5.1719602,8.8437214 5.067618,8.9655938 4.9595573,9.0824503 4.8478401,9.1942221 4.7325307,9.3008436 4.6136955,9.4022525 4.4914032,9.4983892 4.3657245,9.5891977 4.2367319,9.674625 4.1045004,9.7546213"
         id="path49" />
      <path
         d="m 4.1045004,9.7546213 -0.076227,0.042841 -0.077226,0.041079 -0.07821,0.03931 -0.079179,0.037534 -0.080134,0.03575 -0.081074,0.03396 -0.081999,0.032164 -0.082908,0.03036"
         id="path50" />
      <path
         d="m -7.1724072,-7.9785252 0.069723,-0.043884 0.070786,-0.042078"
         id="path51" />
      <path
         d="m -7.0318978,-8.0644876 0.1216271,-0.066786 0.1245302,-0.061594 0.12736,-0.056366 0.130115,-0.051104 0.1327934,-0.045811 0.135394,-0.040491 0.137915,-0.035147 0.1403551,-0.029781 0.1427131,-0.024396 0.1449874,-0.018997 0.1471768,-0.013584 0.1492801,-0.00816 0.151296,-0.00274 0.1532236,0.0027 0.1550616,0.00813 0.1568089,0.013554 0.1584648,0.018976 0.1600279,0.024388 0.1614979,0.029789 0.1628735,0.035173 0.164154,0.04054 0.165339,0.045885 0.1664273,0.051206 0.1674188,0.056499 0.1683125,0.061762 0.1691083,0.066992 0.1698054,0.072185 0.1704036,0.077339 0.1709025,0.08245 0.1713019,0.087517 0.1716014,0.092535 0.1718009,0.097503 0.1719005,0.1024167 0.1718999,0.1072741 0.1717991,0.1120724 0.1715982,0.1168086 0.1712974,0.1214803 0.1708969,0.1260848 0.17039662,0.1306194 0.1697972,0.1350814 0.1690988,0.1394687 0.16830186,0.1437783 0.16740681,0.1480082 0.16641418,0.1521557 0.16532452,0.1562187 0.16413846,0.1601946 0.16285665,0.1640813 0.16147984,0.1678768 0.16000879,0.1715785 0.15844435,0.1751848 0.15678742,0.1786933 0.1550388,0.182102 0.1531998,0.1854093 0.1512711,0.1886131 0.149254,0.1917115 0.1471497,0.1947029 0.1449591,0.1975855 0.1426837,0.2003578 0.1403248,0.2030181 0.1378836,0.205565 0.1353615,0.2079969 0.13276,0.2103126 0.1300806,0.2125107 0.1273247,0.21459 0.1244939,0.2165492 0.1215899,0.2183873 0.1186142,0.2201033 0.1155686,0.2216961 0.1124548,0.2231648 0.1092745,0.22450874 0.1060296,0.22572701 0.1027218,0.22681894 0.099353,0.22778393 0.095925,0.22862144 0.092441,0.22933097 0.088901,0.22991214 0.085308,0.23036462 0.081664,0.23068814 0.077971,0.23088257 0.074231,0.2309476 0.070446,0.2308835 0.066618,0.2306902 0.06275,0.2303676 0.058844,0.2299161 0.054902,0.2293359 0.050926,0.2286274 0.046918,0.2277909 0.042881,0.2268268 0.038817,0.2257359 0.034728,0.2245186 0.030617,0.2231757 0.026486,0.2217078 0.022337,0.220116 0.018172,0.218401 0.013995,0.2165638 0.00981,0.2146055 0.00561,0.2125272 0.00141,0.2103299 -0.0028,0.2080152 -0.007,0.2055842 -0.01121,0.2030381 L 5.1316961,6.203849 5.1120875,6.4014563 5.0882912,6.5961818 5.0603178,6.7879167 5.0281806,6.976554 4.991895,7.1619883 4.9514788,7.3441162 4.9069523,7.5228361 4.8583378,7.6980482 4.8056603,7.8696549 4.7489468,8.0375605 4.6882267,8.2016714 4.6235318,8.3618963 4.5548958,8.5181458 4.4823551,8.6703331 4.405948,8.8183735 4.3257149,8.9621848 4.2416987,9.1016869 4.1539443,9.2368024 4.0624985,9.3674563 3.9674106,9.4935762 3.8687316,9.6150923 3.7665148,9.7319371 3.6608153,9.8440462 3.5516902,9.9513574 3.4391988,10.053812 3.3234019,10.151353"
         id="path52" />
      <path
         d="m -6.8178693,-7.7738326 0.096022,-0.00584 0.096873,-0.00359 0.0977,-0.00133 0.098503,9.287e-4 0.099282,0.00319 0.1000373,0.00544 0.1007681,0.0077 0.1014745,0.00995 0.1021561,0.012207 0.1028131,0.014458 0.103445,0.016706 0.104052,0.01895 0.1046336,0.02119 0.1051898,0.023425 0.1057206,0.025655 0.1062258,0.02788 0.2138638,0.06241 0.2155738,0.071227 0.217075,0.079981 0.2183661,0.088667 0.2194448,0.097265 0.2203117,0.1057811 0.220966,0.1142069 0.2214026,0.1224996 0.2216298,0.1307202 0.2216503,0.1389437 0.2214531,0.1471597 0.2210265,0.1552784 0.2203679,0.1632161 0.2194787,0.1709959 0.2183602,0.1786115 0.217013,0.1860451 0.2154385,0.1932953 0.2136385,0.2003536 0.2116145,0.2072121 0.20936859,0.2138645 0.20690293,0.2203038 0.20421996,0.2265232 0.2013223,0.2325168 0.1982128,0.2382782"
         id="path53" />
      <path
         d="m 3.3234019,2.9291285 0.066458,0.3086855 0.058723,0.3068809 0.050912,0.3047306 0.043032,0.3022368 0.035093,0.2994019 0.027105,0.2962291 0.019074,0.2927212 0.011013,0.2888823 0.00248,0.1428995 4.524e-4,0.1418175 -0.00157,0.1406949 -0.0036,0.1395326 -0.00562,0.1383313 -0.00765,0.1370913 -0.00967,0.135812 -0.011696,0.1344919 -0.013717,0.133134 L 3.5684756,6.704443 3.550725,6.834755 3.530963,6.9635988 3.5091948,7.0909344 3.4854258,7.2167233 3.4596608,7.3409332 3.4319034,7.463544"
         id="path54" />
      <path
         d="M 4.5267634,5.5522542 4.529191,5.4102838 4.5295584,5.2671631 4.5278665,5.1229337 4.5241168,4.9776375 4.5183113,4.8313167 4.5104529,4.6840134 4.4885907,4.3866298 4.4585639,4.085829 4.4204156,3.7819567 4.3741983,3.4753615 4.3199737,3.1663952 4.2578129,2.8554127 4.1877963,2.5427718 4.1100139,2.2288337 4.0245653,1.9139627 3.9315568,1.5985161 3.8311019,1.282848 3.7233273,0.96732812 3.6083677,0.65232357 3.4863663,0.33819901 3.3574735,0.02531649 3.2218477,-0.28596449 3.0796547,-0.595287 2.9310674,-0.90229663 2.7762666,-1.2066416 2.61544,-1.5079727 2.4487829,-1.8059433 2.2764982,-2.1002098 2.0987962,-2.390431 1.9158952,-2.676269 1.7280177,-2.9573941 1.5353765,-3.2335039 1.338207,-3.5042761 1.136751,-3.7693935 0.93125422,-4.0285479 0.72196575,-4.2814401 0.50913817,-4.5277799 0.29302733,-4.7672853 l -0.219135,-0.2323979 -0.22189692,-0.2250256 -0.2243935,-0.2173969 -0.22662164,-0.2095204 -0.2285783,-0.2014047 -0.23026037,-0.1930584 -0.2316649,-0.1844905 -0.2327886,-0.1757101 -0.2336283,-0.1667266 -0.2341813,-0.1575497 -0.1172128,-0.075279 -0.1172499,-0.072922 -0.1172514,-0.070544 -0.1172172,-0.068145 -0.1171476,-0.065727 -0.1170428,-0.06329 -0.1169026,-0.060835 -0.1167273,-0.058363 -0.116517,-0.055875 -0.1162717,-0.053371 -0.1159917,-0.050852 -0.1156768,-0.048319 -0.1153275,-0.045772 -0.1149435,-0.043213 -0.1145251,-0.040642 -0.1140725,-0.03806 -0.1135857,-0.035466 -0.1130647,-0.032864 -0.1125099,-0.030252 -0.111921,-0.027632 -0.1112986,-0.025004 -0.1106423,-0.02237 -0.1099527,-0.01973 -0.1092296,-0.017084 -0.1084734,-0.014435 -0.1076865,-0.011781 -0.1068678,-0.00913 -0.1060164,-0.00647 -0.1051326,-0.00381 -0.104217,-0.00115 -0.1032697,0.00151 -0.1022913,0.00417 -0.1012818,0.00683 -0.1002419,0.00948 -0.099172,0.012135 -0.098072,0.014781 -0.096942,0.017424 -0.095784,0.02006"
         id="path55" />
      <path
         d="m 4.5028788,8.7185551 0.074232,-0.086704 0.072235,-0.089326 0.070215,-0.091919 0.068173,-0.094481 0.066108,-0.097012 0.064023,-0.099511 0.061917,-0.1019776 0.059792,-0.1044104 0.057649,-0.1068091 0.055487,-0.1091728 0.053308,-0.1115007 0.051113,-0.1137922 0.048902,-0.1160466 0.046677,-0.118263 0.044436,-0.120441 0.042183,-0.1225795 0.039916,-0.124678 0.037637,-0.1267357 0.035347,-0.1287521 0.033047,-0.1307261 0.030736,-0.1326573 0.028416,-0.1345447 0.026088,-0.1363878 0.023752,-0.1381857 0.02141,-0.1399376 0.019062,-0.141643 0.016708,-0.1433008 0.01435,-0.1449104 0.011988,-0.1464709 0.00962,-0.1479815 0.00726,-0.1494414 0.00489,-0.1508498"
         id="path56" />
      <path
         d="M 5.7995571,4.8174064 5.8019843,4.6754806 5.8023525,4.5324017 5.8006626,4.388212 5.7969159,4.2429539 5.7911145,4.0966701 5.783261,3.9494034 5.7614115,3.6520929 5.7314014,3.3513675 5.6932739,3.0475745 5.6470819,2.7410635 5.5928875,2.4321859 5.5307617,2.1212954 5.4607846,1.8087476 5.3830453,1.4948999 5.2976417,1.1801119 5.204681,0.86474466 5.1042793,0.54916156 4.9965621,0.23372764 4.8816645,-0.08119008 4.7597312,-0.39522268 4.6309149,-0.7080046 4.4953414,-1.0192501 4.353171,-1.3286046 4.2045852,-1.635687 4.0497724,-1.9401244 3.8889274,-2.2415525 3.7222509,-2.5396146 3.5499493,-2.8339614 3.3722343,-3.1242511 3.1893229,-3.4101491 3.0014369,-3.6913276 2.808803,-3.9674657 2.6116525,-4.2382495 2.4102212,-4.5033715 2.2047495,-4.7625313 1.995482,-5.0154351 1.7826677,-5.261796 1.5665599,-5.5013338 1.3474162,-5.7337755 1.1254983,-5.9588553 0.90107254,-6.1763145 0.67440932,-6.3859021 0.44578356,-6.5873749 0.2154747,-6.7804978 l -0.23170794,-0.1845465 -0.23281821,-0.1757524 -0.23363474,-0.1667501 -0.23415238,-0.1575496 -0.11717799,-0.075267 -0.11722447,-0.072917 -0.11724077,-0.070548 -0.1172191,-0.068157 -0.1171597,-0.065745 -0.117063,-0.063312 -0.1169291,-0.060859 -0.1167586,-0.058389 -0.1165513,-0.055901 -0.1163079,-0.053396 -0.1160285,-0.050876 -0.1157134,-0.048341 -0.1153627,-0.045793 -0.114977,-0.043232 -0.1145562,-0.040658 -0.1141007,-0.038073 -0.1136108,-0.035478 -0.1130867,-0.032874 -0.1125286,-0.03026 -0.1119369,-0.027638 -0.1113115,-0.02501 -0.1106531,-0.022374 -0.1099616,-0.019733 -0.1092374,-0.017087 -0.1084806,-0.014437 -0.1076917,-0.011783 -0.1068707,-0.00913 -0.106018,-0.00647 -0.1051336,-0.00381 -0.1042181,-0.00115 -0.1032716,0.00151 -0.1022941,0.00417 -0.1012863,0.00683 -0.1002482,0.00948 -0.09918,0.012135 -0.098082,0.014782 -0.096955,0.017425 -0.095798,0.020063"
         id="path57" />
      <path
         d="m -5.6954891,-8.8360635 0.081973,-0.045755 0.083312,-0.043384 0.08463,-0.041001 0.085924,-0.038606 0.087196,-0.036202 0.088444,-0.033787 0.089668,-0.031364 0.090868,-0.028931 0.092043,-0.026491 0.093194,-0.024043 0.09432,-0.021589 0.095421,-0.019128 0.096496,-0.016662 0.097545,-0.014192 0.098568,-0.011717 0.099564,-0.00924 0.1005341,-0.00676 0.101477,-0.00427 0.1023927,-0.00179 0.1032811,6.982e-4 0.1041417,0.00318 0.1049746,0.00567 0.1057793,0.00816 0.1065559,0.010639 0.1073037,0.013121 0.1080231,0.015599 0.1087136,0.018074 0.1093749,0.020544 0.110007,0.02301 0.1106099,0.02547 0.111183,0.027924 0.1117267,0.030372 0.1122403,0.032812 0.1127242,0.035244 0.1131778,0.037667 0.1136012,0.040081 0.1139944,0.042485 0.1143572,0.044879 0.1146893,0.047261 0.114991,0.049632 0.115262,0.05199 0.1155021,0.054336 0.2316016,0.1156521 0.23219209,0.1248621 0.23253481,0.1339465 0.23262954,0.1428958 0.23247612,0.1517007 0.23207472,0.1603522 0.23142576,0.1688412 0.2305299,0.1771588 0.2293881,0.1852967 0.2280015,0.1932462 0.22637156,0.200999"
         id="path58" />
      <path
         d="m 1.1495202,-6.8971684 0.2209118,0.2051405 0.2188714,0.212246 0.2166047,0.219142 0.2141141,0.2258216 0.211402,0.232278 0.2084709,0.2385049 0.205324,0.2444958 0.2019644,0.250245 0.1983956,0.2557465 0.1946209,0.2609948 0.1906443,0.2659846 0.1864698,0.2707109 0.1821014,0.2751691 0.1775438,0.2793546 0.1728013,0.2832632 0.1678787,0.286891 0.1627812,0.2902342 0.1575136,0.2932897 0.1520813,0.2960543 0.1464899,0.2985251 0.1407448,0.3007 0.134852,0.3025764 0.1288171,0.30415252 0.1226464,0.30542697 0.1163462,0.30639828 0.1099225,0.30706552 0.103382,0.30742806 0.096731,0.30748548 0.089977,0.30723777 0.083126,0.3066851 0.076184,0.3058282 0.06916,0.3046677"
         id="path59" />
      <path
         d="m 6.2083945,1.9525754 0.066781,0.3277282 0.058396,0.3256384 0.049934,0.323171 0.021772,0.160543 0.019633,0.1597859 0.017486,0.1589824 0.015333,0.1581329 0.013175,0.1572375 0.011012,0.1562966 0.00884,0.1553105 0.00667,0.1542791 0.0045,0.1532033 0.00232,0.152083 1.458e-4,0.1509186 -0.00203,0.1497106 -0.00421,0.1484591 -0.00639,0.1471647 -0.00857,0.1458277 -0.010747,0.1444484 -0.012922,0.1430274 -0.015094,0.1415649 -0.017263,0.1400615 -0.019427,0.1385176 -0.021587,0.1369335 -0.023741,0.1353098 -0.02589,0.1336472 -0.028032,0.1319457 -0.030167,0.1302061 -0.032293,0.128429 -0.034412,0.1266147 -0.036521,0.1247638 -0.038621,0.1228769 -0.04071,0.1209545 -0.042789,0.1189972 -0.044856,0.1170055 -0.04691,0.1149802 -0.048952,0.1129215 -0.050981,0.1108304 -0.052996,0.1087074 -0.054996,0.1065529 -0.056981,0.1043679 -0.05895,0.1021527 -0.060903,0.099908 -0.062839,0.097635 -0.064758,0.095334 -0.066659,0.093005 -0.068541,0.090649 -0.070404,0.088268 -0.072248,0.085861 -0.074071,0.08343 -0.075874,0.080974 -0.077655,0.078496 -0.079415,0.075995 -0.081152,0.073472 -0.082866,0.070929 -0.084557,0.068365 -0.086225,0.065781 -0.087868,0.063179 -0.089486,0.060559 -0.091079,0.057922 -0.092646,0.055268"
         id="path60" />
      <path
         d="m -6.9682811,-8.1012167 0.081682,-0.045598 0.083013,-0.043244 0.084321,-0.040877 0.085606,-0.0385 0.086869,-0.036113 0.088109,-0.033715 0.089325,-0.031309 0.090517,-0.028894 0.091685,-0.026471 0.092829,-0.02404 0.093948,-0.021603 0.095041,-0.01916 0.09611,-0.016712 0.097153,-0.014259 0.09817,-0.011801 0.099161,-0.00934 0.1001252,-0.00688 0.1010632,-0.00441 0.1019741,-0.00194 0.1028581,5.259e-4 0.1037147,0.00299 0.1045437,0.00546 0.105345,0.00793 0.1061183,0.010398 0.1068634,0.012862 0.1075801,0.015323 0.1082684,0.017781 0.1089279,0.020234 0.1095584,0.022683 0.11016,0.025127 0.1107323,0.027564 0.1112752,0.029995 0.1117888,0.032419 0.1122725,0.034835 0.1127266,0.037242 0.1131508,0.039641 0.113545,0.042029 0.1139091,0.044407 0.1142431,0.046774 0.1145467,0.04913 0.1148201,0.051474 0.115063,0.053804 0.2307328,0.1145468 0.2313381,0.1237015 0.2316984,0.1327325 0.2318132,0.1416306 0.2316826,0.1503868 0.2313064,0.1589917 0.2306854,0.1674369 0.22981989,0.1757134 0.22871095,0.1838126 0.22735968,0.1917264 0.22576746,0.1994465"
         id="path61" />
      <path
         d="m -0.14865422,-6.1853185 0.22212999,0.2052588 0.22009631,0.2124518 0.21783299,0.2194331 0.21534232,0.2261958 0.21262682,0.232733 0.20968929,0.2390379 0.2065326,0.2451045 0.2031601,0.2509262 0.199575,0.2564975 0.1957812,0.2618125 0.1917823,0.2668659 0.1875826,0.2716526 0.183186,0.2761676 0.1785974,0.2804065 0.1738211,0.2843649 0.1688621,0.2880389 0.1637253,0.2914247 0.1584162,0.2945187 0.1529398,0.2973182 0.1473019,0.2998199 0.1415081,0.30202152 0.1355645,0.30392076 0.1294767,0.3055157 0.1232512,0.30680473 0.1168943,0.30778654 0.1104124,0.30846013 0.1038119,0.30882482 0.0971,0.3088802 0.090283,0.3086264 0.083367,0.3080633 0.076361,0.3071919 0.069271,0.3060128"
         id="path62" />
      <path
         d="m 4.9376276,2.6968193 0.06181,0.3029999 0.054646,0.301229 0.047421,0.2991595 0.040142,0.2967935 0.032817,0.2941335 0.025452,0.2911818 0.018055,0.2879419 0.010634,0.2844165 0.00319,0.2806097 -0.00425,0.2765248 -0.011704,0.2721662 -0.019149,0.2675382 -0.026581,0.2626455 -0.016072,0.1294066 -0.017921,0.1280863 -0.019768,0.1267345 -0.02161,0.1253512 -0.023447,0.123937 -0.025279,0.1224921 -0.027106,0.121017 -0.028927,0.1195121 -0.030742,0.1179775 -0.032549,0.1164138 -0.034349,0.1148214 -0.036142,0.1132007 -0.037926,0.111552 -0.039701,0.1098757 -0.041467,0.1081725 -0.043224,0.1064425 -0.04497,0.1046863 -0.046706,0.1029042 -0.048431,0.1010969 -0.050145,0.099265 -0.051847,0.097408 -0.053537,0.095527 -0.055214,0.093623 -0.056878,0.091696 -0.058529,0.089746 -0.060166,0.087774 -0.061788,0.085781 -0.063396,0.083767 -0.064989,0.081731 -0.066566,0.079676 -0.068127,0.077602 -0.069672,0.075508 -0.071201,0.073396 -0.072712,0.071266 -0.074206,0.069119 -0.075682,0.066955 -0.07714,0.06477 -0.078579,0.06258"
         id="path63" />
      <path
         d="m -6.8648305,-7.8009457 0.1524701,-0.01246 0.1546821,-0.00669 0.1567977,-9.06e-4 0.1588158,0.00488 0.160735,0.010657 0.1625543,0.016433 0.1642726,0.022201 0.1658887,0.027958 0.1674018,0.033698 0.1688108,0.039421 0.1701151,0.045122 0.1713137,0.050797 0.1724061,0.056443 0.1733913,0.062056 0.174269,0.067636 0.1750385,0.073175 0.1756996,0.078668 0.1762515,0.08412 0.176694,0.089529 0.1770272,0.094872 0.1772513,0.1001505 0.1773633,0.1054137 0.177358,0.1106886 0.1772302,0.1159695 0.1769789,0.1212222 0.1766095,0.1263917 0.1761239,0.1314658 0.1755195,0.1364623 0.1747968,0.1413764 0.1739576,0.1461972 0.1730016,0.1509243 0.1719295,0.1555568"
         id="path64" />
      <path
         d="m -1.4020755,-5.4215173 0.1996879,0.187793 0.197878,0.1938368 0.195886,0.1997117 0.19371365,0.2054123 0.1913628,0.210933 0.1888354,0.2162693 0.18613367,0.2214164 0.1832599,0.2263695"
         id="path65" />
      <path
         d="M 3.3234019,2.7811779 3.3491101,2.894583"
         id="path66" />
      <path
         d="m 3.3491101,2.894583 0.065418,0.3108445 0.057605,0.3090601 0.049716,0.3069255 0.041759,0.304443 0.033744,0.3016148 0.025679,0.2984442 0.017574,0.2949341 0.00574,0.1460456 0.0037,0.1450428 0.00166,0.1439988 -3.807e-4,0.1429133 -0.00242,0.1417868 -0.00447,0.1406201 -0.00651,0.1394138 -0.00855,0.1381684 -0.010595,0.136883 -0.012634,0.1355564 -0.014672,0.1341913 -0.016707,0.1327908 -0.018738,0.1313535 -0.020766,0.1298767 -0.022788,0.1283594 -0.024804,0.1268029 -0.026815,0.1252137 -0.028823,0.123604"
         id="path67" />
      <path
         d="M 3.3696282,2.988362 3.3234019,2.7729532"
         id="path68" />
      <path
         d="M 1.7783793,-1.3288383 1.6615329,-1.5418532 1.5417564,-1.7528525 1.4191226,-1.9617141 1.2937069,-2.1683154"
         id="path69" />
      <path
         d="m 0.204802,-3.7192914 -0.19156852,-0.2353064 -0.19482525,-0.229485 -0.19787518,-0.2234308 -0.20071946,-0.2171553 -0.20335542,-0.2106644 -0.2057802,-0.2039649 -0.20799537,-0.197067 -0.2099995,-0.1899776"
         id="path70" />
      <path
         d="M 4.8908438,2.4782016 4.825224,2.1852558 4.7527833,1.8911604 4.673602,1.5962109 4.5877671,1.300704 4.4953727,1.0049377 4.3965198,0.7092111 4.2913165,0.41382479 4.1798782,0.1190805 4.0623279,-0.17471873 3.9387961,-0.4672686 3.8094181,-0.75827068 3.6743213,-1.0474574 3.5336513,-1.3345345 3.3875606,-1.619207 3.2362069,-1.9011842 3.0797528,-2.18018 2.9183652,-2.4559123 2.7522158,-2.7281034 2.5814808,-2.9964795 2.4063409,-3.2607712 2.2269809,-3.5207131 2.0435903,-3.776044 1.8563627,-4.026507 1.6654964,-4.2718494 1.4711939,-4.5118229 1.2736624,-4.7461836 1.0731136,-4.9746924 0.86976391,-5.1971148 0.66382449,-5.4132317 0.45550799,-5.6228312 0.24503471,-5.825702 0.03262669,-6.0216403"
         id="path71" />
      <path
         d="M 6.1655815,1.7525158 6.0998787,1.45834 6.0272937,1.1629967 5.9479076,0.86678501 5.8618087,0.57000556 5.7690919,0.27296024 5.6698595,-0.02404776 5.5642212,-0.32071398 5.4522938,-0.61673262 5.3342019,-0.91179659 5.210078,-1.2055975 5.080051,-1.4978508 4.9442282,-1.788329 4.8027606,-2.0767182 4.6558084,-2.3627035 4.5035364,-2.6459773 4.3461144,-2.9262386 4.1837162,-3.2031934 4.0165202,-3.4765538 3.8447085,-3.7460379 3.6684668,-4.0113702 3.487985,-4.2722808 3.3034559,-4.5285057 3.1150762,-4.7797864 2.9230456,-5.0258702 2.7275673,-5.2665102 2.5288475,-5.5014647 2.3270955,-5.7304981 2.1225238,-5.9533801 1.9153481,-6.1698865 1.7057869,-6.3797985 1.494062,-6.5829038 1.280398,-6.7789956"
         id="path72" />
      <path
         d="M 7.389973,3.8991794 7.388143,4.0837826 7.382663,4.2661795 7.373523,4.4462758 7.36074,4.6239784 7.344316,4.7991954 7.324259,4.9718363 7.30058,5.1418117 7.273291,5.3090339 7.242407,5.4734163 7.207943,5.6348739 7.169917,5.7933234 7.128348,5.9486827 7.083258,6.1008716 7.034671,6.2498113 6.982612,6.3954249 6.927107,6.5376371 6.868185,6.6763743 6.805877,6.8115649 6.740215,6.9431389 6.671232,7.0710283 6.598965,7.1951671 6.523451,7.3154909 6.444729,7.4319377 6.362839,7.5444471 6.277824,7.6529612 6.189728,7.7574236 6.098597,7.8577805 l -0.09412,0.096199 -0.09706,0.091992 -0.099949,0.087737 -0.1027874,0.083437 -0.1055721,0.079094"
         id="path73" />
      <path
         d="m -3.4581622,-9.2680129 0.1002082,-0.013885 0.1012301,-0.011356 0.1022239,-0.00882 0.1031892,-0.00629 0.1041258,-0.00375 0.1050336,-0.00121 0.105912,0.00132 0.1067611,0.00386 0.1075805,0.0064 0.10837,0.00893 0.1091294,0.011463 0.1098583,0.013992 0.1105569,0.016518 0.1112246,0.019038 0.1118615,0.021553 0.1124671,0.024062 0.1130417,0.026565 0.1135847,0.02906 0.1140962,0.031547 0.114576,0.034025 0.1150238,0.036494 0.1154399,0.038953 0.11582363,0.0414 0.11617532,0.043837 0.11649467,0.046261 0.11678166,0.048672 0.11703617,0.05107 0.11725814,0.053454 0.11744754,0.055822 0.11760427,0.058175 0.11772832,0.060512 0.11781963,0.062833 0.23578222,0.1325551 0.23575432,0.1416181 0.23546431,0.1505234 0.2349125,0.1592614 0.2340995,0.1678224 0.2330263,0.1761967 0.2316938,0.1843752 0.230104,0.1923487 0.2282581,0.2001083 0.2261585,0.2076453 0.2238075,0.2149517 0.2212076,0.2220189 0.2183618,0.2288393 0.2152732,0.2354053 0.2119453,0.2417095 0.2083816,0.247745 0.2045864,0.2535051 0.2005636,0.2589833 0.1963179,0.2641736 0.1918538,0.2690701 0.1871765,0.2736674 0.1822911,0.2779606 0.177203,0.2819446 0.1719178,0.2856152 0.1664416,0.2889682 0.1607802,0.292 0.1549402,0.294707 0.1489278,0.2970865 0.1427498,0.2991356 0.1364132,0.300852 0.1299248,0.3022342 0.1232921,0.30328005 0.1165222,0.30398888 0.1096228,0.30435969 0.1026015,0.30439209 0.095466,0.30408607 0.088225,0.30344194 0.080885,0.30246048 0.073456,0.3011426 0.065944,0.2994901 0.05836,0.2975045 0.05071,0.2951881 0.043005,0.2925435 0.035251,0.2895737 0.027458,0.286282 0.019635,0.2826718 0.01179,0.2787475 0.00393,0.2745132"
         id="path74" />
      <path
         d="m -5.7591057,-8.7993344 0.063617,-0.036729"
         id="path75" />
      <path
         d="m 4.1045004,9.7546213 0.063613,-0.036727"
         id="path76" />
      <path
         d="m -7.0318978,-8.0644876 0.063617,-0.036729"
         id="path77" />
      <path
         d="M 1.1495202,-6.8971684 1.280398,-6.7789955"
         id="path78" />
      <path
         d="M 6.2083945,1.9525754 6.1655815,1.7525157"
         id="path79" />
      <path
         d="m -0.14865422,-6.1853185 0.1812809,0.1636783"
         id="path80" />
      <path
         d="M 4.9376276,2.6968193 4.8908438,2.4782015"
         id="path81" />
    </g>
  </g>
</svg>
