<?xml version="1.0" encoding="UTF-8" standalone="no"?>
<svg
   width="730.0"
   height="416.0"
   version="1.1"
   id="svg75"
   sodipodi:docname="spiral_lampshade.svg"
   inkscape:version="1.3.2 (091e20ef0f, 2023-11-25, custom)"
   xmlns:inkscape="http://www.inkscape.org/namespaces/inkscape"
   xmlns:sodipodi="http://sodipodi.sourceforge.net/DTD/sodipodi-0.dtd"
   xmlns="http://www.w3.org/2000/svg"
   xmlns:svg="http://www.w3.org/2000/svg">
  <defs
     id="defs75" />
  <sodipodi:namedview
     id="namedview75"
     pagecolor="#ffffff"
     bordercolor="#000000"
     borderopacity="0.25"
     inkscape:showpageshadow="2"
     inkscape:pageopacity="0.0"
     inkscape:pagecheckerboard="0"
     inkscape:deskcolor="#d1d1d1"
     inkscape:zoom="1.4548964"
     inkscape:cx="364.97444"
     inkscape:cy="208.26225"
     inkscape:window-width="2560"
     inkscape:window-height="1440"
     inkscape:window-x="0"
     inkscape:window-y="0"
     inkscape:window-maximized="0"
     inkscape:current-layer="svg75" />
  <g
     transform="matrix(0.98609048,1.7079588,1.7079588,-0.98609048,359.89247,308.41839)"
     stroke-width="0.5"
     fill="none"
     id="g75">
    <!-- hidden lines -->
    <g
       stroke="#0000ff"
       fill="none"
       stroke-dasharray="0.5, 0.5"
       id="g1" />
    <!-- solid lines -->
    <g
       stroke="#82b9ff"
       fill="none"
       id="g74">
      <path
         d="M -83.574845,58.171497 V 90.27356"
         id="path1" />
      <path
         d="m -83.574845,90.27356 -15.156258,5.915876"
         id="path2" />
      <path
         d="m -94.34235,69.982956 -4.388753,26.20648"
         id="path3" />
      <path
         d="M -83.574845,58.171497 -94.34235,69.982956"
         id="path4" />
      <path
         d="m -73.750182,45.298737 5.310391,37.841752"
         id="path5" />
      <path
         d="M -68.439791,83.140489 -83.574845,90.27356"
         id="path6" />
      <path
         d="m -73.750182,45.298737 -9.824663,12.87276"
         id="path7" />
      <path
         d="M -98.731103,96.189436 -139.00289,64.73898"
         id="path8" />
      <path
         d="m -139.00289,64.73898 4.38876,-26.20648"
         id="path9" />
      <path
         d="m -134.61413,38.5325 40.27178,31.450456"
         id="path10" />
      <path
         d="m -128.55719,32.200927 44.982345,25.97057"
         id="path11" />
      <path
         d="m -128.55719,32.200927 -6.05694,6.331573"
         id="path12" />
      <path
         d="m -65.032405,31.434866 11.505371,43.143576"
         id="path13" />
      <path
         d="m -53.527034,74.578442 -14.912757,8.562047"
         id="path14" />
      <path
         d="m -65.032405,31.434866 -8.717777,13.863871"
         id="path15" />
      <path
         d="m -122.47904,27.086549 48.728858,18.212188"
         id="path16" />
      <path
         d="m -122.47904,27.086549 -6.07815,5.114378"
         id="path17" />
      <path
         d="m -57.571941,16.707851 18.5017,47.685362"
         id="path18" />
      <path
         d="M -39.070241,64.393213 -53.527034,74.578442"
         id="path19" />
      <path
         d="m -57.571941,16.707851 -7.460464,14.727015"
         id="path20" />
      <path
         d="m -116.17859,23.401148 51.146185,8.033718"
         id="path21" />
      <path
         d="m -116.17859,23.401148 -6.30045,3.685401"
         id="path22" />
      <path
         d="m -51.496213,1.3100124 26.16386,51.1102836"
         id="path23" />
      <path
         d="M -25.332353,52.420296 -39.070241,64.393213"
         id="path24" />
      <path
         d="M -51.496213,1.3100124 -57.571941,16.707851"
         id="path25" />
      <path
         d="m -109.42218,21.338928 1.33682,-0.1194"
         id="path26" />
      <path
         d="m -108.08536,21.219528 50.513419,-4.511677"
         id="path27" />
      <path
         d="m -109.42218,21.338928 -6.75641,2.06222"
         id="path28" />
      <path
         d="m -46.89927,-14.496814 34.298961,53.03508"
         id="path29" />
      <path
         d="m -12.600309,38.538266 -12.732044,13.88203"
         id="path30" />
      <path
         d="M -46.89927,-14.496814 -51.496213,1.3100124"
         id="path31" />
      <path
         d="m -93.407709,17.720816 4.645197,-1.818866"
         id="path32" />
      <path
         d="M -88.762512,15.90195 -51.496213,1.3100124"
         id="path33" />
      <path
         d="M -43.830701,-30.378047 -1.1776285,22.683097"
         id="path34" />
      <path
         d="m -1.1776285,22.683097 -0.5465331,0.758612"
         id="path35" />
      <path
         d="M -1.7241616,23.441709 -12.600309,38.538266"
         id="path36" />
      <path
         d="m -43.830701,-30.378047 -3.068569,15.881233"
         id="path37" />
      <path
         d="m -74.405149,7.4740083 2.347433,-1.8750549"
         id="path38" />
      <path
         d="M -72.057716,5.5989534 -46.89927,-14.496814"
         id="path39" />
      <path
         d="M -42.28414,-45.925612 8.6252851,4.862999"
         id="path40" />
      <path
         d="M 8.6252851,4.862999 2.7750872,15.497705"
         id="path41" />
      <path
         d="m 2.7750872,15.497705 -3.9527157,7.185392"
         id="path42" />
      <path
         d="m -42.28414,-45.925612 -1.546561,15.547565"
         id="path43" />
      <path
         d="m -1.1776285,22.683097 -4.3910234,6.246889"
         id="path44" />
      <path
         d="M -5.5686519,28.929986 -41.022113,79.367842"
         id="path45" />
      <path
         d="M -41.022113,79.367842 -56.477754,76.272576"
         id="path46" />
      <path
         d="m -59.624431,-7.9091018 0.664989,-0.9460465"
         id="path47" />
      <path
         d="M -58.959442,-8.8551483 -43.830701,-30.378047"
         id="path48" />
      <path
         d="m -42.185795,-60.660228 58.688974,45.833455"
         id="path49" />
      <path
         d="M 16.503179,-14.826773 8.6252851,4.862999"
         id="path50" />
      <path
         d="m -42.185795,-60.660228 -0.09835,14.734616"
         id="path51" />
      <path
         d="M 8.6252851,4.862999 -21.355471,82.667958"
         id="path52" />
      <path
         d="M -21.355471,82.667958 -41.022113,79.367842"
         id="path53" />
      <path
         d="m -49.685915,-26.716797 7.401775,-19.208815"
         id="path54" />
      <path
         d="m -43.383492,-74.037266 65.553781,37.847493"
         id="path55" />
      <path
         d="m 22.170289,-36.189773 -5.66711,21.363"
         id="path56" />
      <path
         d="m -43.383492,-74.037266 1.197697,13.377038"
         id="path57" />
      <path
         d="M 16.503179,-14.826773 -0.24061213,85.155126"
         id="path58" />
      <path
         d="M -0.24061213,85.155126 -21.355471,82.667958"
         id="path59" />
      <path
         d="m -44.526083,-46.68571 2.340288,-13.974518"
         id="path60" />
      <path
         d="m -32.77689,-80.16099 65.55378,37.847493"
         id="path61" />
      <path
         d="m 32.77689,-42.313497 -10.606601,6.123724"
         id="path62" />
      <path
         d="m -32.77689,-80.16099 -10.606602,6.123724"
         id="path63" />
      <path
         d="M 22.170289,-36.189773 V 86.284714"
         id="path64" />
      <path
         d="M 22.170289,86.284714 -0.24061213,85.155126"
         id="path65" />
      <path
         d="m -43.383492,-65.276564 v -8.760702"
         id="path66" />
      <path
         d="M 32.77689,-42.313497 V 80.16099"
         id="path67" />
      <path
         d="M 32.77689,80.16099 22.170289,86.284714"
         id="path68" />
      <path
         d="m -93.407709,17.720816 -0.45307,0.175203 -0.453691,0.171041 -0.454288,0.166864 -0.454858,0.162672 -0.455404,0.158465 -0.455924,0.154246 -0.456418,0.150015 -0.456885,0.145774 -0.457328,0.141521 -0.457743,0.13726 -0.458134,0.132991 -0.458498,0.128713 -0.458834,0.12443 -0.459145,0.120143 -0.459431,0.11585 -0.45968,0.111555 -0.45991,0.107257 -0.46012,0.102959 -0.46029,0.09866 -0.46044,0.09436 -0.46057,0.09007 -0.46066,0.08577 -0.46073,0.08148 -0.46078,0.0772 -0.4608,0.07292 -0.4608,0.06865 -0.46076,0.06438 -0.46071,0.06012 -0.46062,0.05588 -0.46052,0.05164 -0.46039,0.04742 -0.46022,0.0432"
         id="path69" />
      <path
         d="m -74.405149,7.4740083 -0.420808,0.3333003 -0.42276,0.3291827 -0.424701,0.3250215 -0.426632,0.3208172 -0.42855,0.3165703 -0.430457,0.3122812 -0.43235,0.3079506 -0.43423,0.3035789 -0.436094,0.299167 -0.437945,0.294715 -0.439778,0.290224 -0.441594,0.285693 -0.443395,0.281124 -0.445176,0.276518 -0.446938,0.271875 -0.448681,0.267193 -0.450404,0.262479 -0.452105,0.25773 -0.453786,0.252947 -0.455442,0.248132 -0.457077,0.243284 -0.458687,0.238405 -0.460273,0.233498 -0.461834,0.22856 -0.46337,0.223596 -0.464878,0.218606 -0.466361,0.213589 -0.467815,0.20855 -0.469243,0.203486 -0.47064,0.198402 -0.47201,0.193295 -0.473349,0.188171"
         id="path70" />
      <path
         d="m -59.624431,-7.9091018 -0.344095,0.48578 -0.346897,0.48223 -0.34971,0.4786262 -0.352535,0.4749682 -0.355368,0.4712557 -0.358213,0.4674884 -0.361065,0.4636661 -0.363926,0.4597883 -0.366795,0.4558549 -0.36967,0.4518655 -0.372553,0.4478199 -0.37544,0.4437175 -0.378333,0.4395584 -0.381231,0.4353421 -0.384131,0.4310682 -0.387036,0.42673653 -0.389942,0.4223482 -0.392847,0.41790405 -0.395754,0.41340167 -0.398661,0.40884135 -0.401565,0.4042235 -0.404467,0.3995484 -0.407366,0.3948165 -0.410261,0.3900281 -0.413149,0.3851834 -0.416032,0.3802831 -0.418908,0.3753272 -0.421774,0.3703164 -0.424631,0.3652507 -0.427479,0.3601308 -0.430314,0.3549568 -0.433137,0.3497291"
         id="path71" />
      <path
         d="m -49.685915,-26.716797 -0.236798,0.609096 -0.239963,0.606365 -0.243154,0.603583 -0.246372,0.600752 -0.249617,0.597869 -0.252889,0.594935 -0.256186,0.591947 -0.259511,0.588906 -0.262861,0.585811 -0.266236,0.58266 -0.269639,0.579454 -0.273066,0.57619 -0.276518,0.57287 -0.279996,0.569489 -0.283499,0.56605 -0.287026,0.562551 -0.290577,0.558991 -0.294151,0.555371 -0.297748,0.551687 -0.301369,0.54794 -0.305011,0.544128 -0.308677,0.540254 -0.312362,0.536312 -0.31607,0.532306 -0.319795,0.528233 -0.323541,0.524093 -0.327305,0.519886 -0.331088,0.515611 -0.334886,0.511267 -0.338702,0.5068535 -0.342533,0.5023707 -0.346381,0.4978175"
         id="path72" />
      <path
         d="m -44.526083,-46.68571 -0.113945,0.670554 -0.116965,0.668751 -0.120017,0.666913 -0.123101,0.665039 -0.126218,0.663128 -0.129367,0.661178 -0.132549,0.65919 -0.135763,0.657161 -0.139012,0.655093 -0.142294,0.652982 -0.14561,0.650831 -0.148959,0.648635 -0.152344,0.646395 -0.155761,0.644112 -0.159215,0.641783 -0.162703,0.639406 -0.166227,0.636984 -0.169783,0.634512 -0.173376,0.631991 -0.177005,0.62942 -0.180669,0.626797 -0.184368,0.624124 -0.188103,0.621396 -0.191875,0.618615 -0.19568,0.615778 -0.199522,0.612887 -0.203399,0.609937 -0.207312,0.606931 -0.211259,0.603865 -0.215242,0.600741 -0.219261,0.597554 -0.223314,0.594306"
         id="path73" />
      <path
         d="m -43.383492,-65.276564 -0.0012,0.647233 -0.0037,0.646246 -0.0062,0.64524 -0.0087,0.644213 -0.01124,0.643166 -0.01381,0.642097 -0.01641,0.641006 -0.01903,0.639894 -0.02169,0.638758 -0.02437,0.6376 -0.02709,0.636417 -0.02983,0.63521 -0.03261,0.633979 -0.03541,0.632721 -0.03824,0.631439 -0.04111,0.63013 -0.04401,0.628793 -0.04694,0.62743 -0.0499,0.626038 -0.05289,0.624616 -0.05591,0.623166 -0.05897,0.621685 -0.06207,0.620175 -0.06519,0.618631 -0.06835,0.617058 -0.07155,0.615449 -0.07478,0.613809 -0.07804,0.612134 -0.08134,0.610423 -0.08467,0.608679 -0.08804,0.606896 -0.09145,0.605077"
         id="path74" />
    </g>
  </g>
</svg>
