<?xml version="1.0" encoding="UTF-8" standalone="no"?>
<svg
   width="730.0"
   height="416.0"
   version="1.1"
   id="svg57"
   sodipodi:docname="stepper_bracket.svg"
   inkscape:version="1.3.2 (091e20ef0f, 2023-11-25, custom)"
   xmlns:inkscape="http://www.inkscape.org/namespaces/inkscape"
   xmlns:sodipodi="http://sodipodi.sourceforge.net/DTD/sodipodi-0.dtd"
   xmlns="http://www.w3.org/2000/svg"
   xmlns:svg="http://www.w3.org/2000/svg">
  <defs
     id="defs57" />
  <sodipodi:namedview
     id="namedview57"
     pagecolor="#ffffff"
     bordercolor="#000000"
     borderopacity="0.25"
     inkscape:showpageshadow="2"
     inkscape:pageopacity="0.0"
     inkscape:pagecheckerboard="0"
     inkscape:deskcolor="#d1d1d1"
     inkscape:zoom="2.0575342"
     inkscape:cx="328.5486"
     inkscape:cy="228.42876"
     inkscape:window-width="2560"
     inkscape:window-height="1440"
     inkscape:window-x="0"
     inkscape:window-y="0"
     inkscape:window-maximized="0"
     inkscape:current-layer="svg57" />
  <g
     stroke="#0000ff"
     fill="none"
     stroke-dasharray="0.5, 0.5"
     id="g1"
     transform="matrix(1.6949971,2.9358211,2.9358211,-1.6949971,460.94241,148.08556)"
     style="stroke-width:0.5" />
  <path
     d="M 369.85307,20.7613 393.82395,6.9217068"
     id="path1"
     style="fill:none;stroke:#82b9ff;stroke-width:1.695" />
  <path
     d="M 369.85307,66.431959 V 20.7613"
     id="path2"
     style="fill:none;stroke:#82b9ff;stroke-width:1.695" />
  <path
     d="M 369.85307,66.431959 286.43441,234.99821"
     id="path3"
     style="fill:none;stroke:#82b9ff;stroke-width:1.695" />
  <path
     d="m 286.43441,234.99821 -122.7309,70.85872"
     id="path4"
     style="fill:none;stroke:#82b9ff;stroke-width:1.695" />
  <path
     d="m 163.70351,305.85693 -1e-5,11.07167"
     id="path5"
     style="fill:none;stroke:#82b9ff;stroke-width:1.695" />
  <path
     d="M 393.82395,6.9217068 552.03175,98.263024"
     id="path6"
     style="fill:none;stroke:#82b9ff;stroke-width:1.695" />
  <path
     d="M 552.03175,98.263024 V 275.40982"
     id="path7"
     style="fill:none;stroke:#82b9ff;stroke-width:1.695" />
  <path
     d="m 439.12891,116.1161 0.009,-0.90343 0.0275,-0.89235 0.0458,-0.88081 0.0641,-0.86877 0.0823,-0.85627 0.10052,-0.84329 0.11867,-0.82988 0.13676,-0.816 0.15476,-0.80168 0.17268,-0.78694 0.19052,-0.77175 0.20825,-0.75616 0.22586,-0.74015 0.24336,-0.72374 0.26072,-0.70694 0.27793,-0.68976"
     id="path8"
     style="fill:none;stroke:#82b9ff;stroke-width:1.695" />
  <path
     d="m 485.23122,179.08334 -0.47935,-0.0652 -0.48207,-0.0753 -0.48469,-0.0852 -0.48719,-0.0952 -0.48958,-0.10515 -0.49186,-0.11506 -0.49403,-0.12496 -0.49607,-0.13482 -0.49801,-0.14465 -0.49983,-0.15445 -0.50154,-0.16421 -0.50313,-0.17394 -0.5046,-0.18362 -0.50596,-0.19327 -0.5072,-0.20286 -0.50832,-0.21241 -0.50934,-0.22192 -0.51022,-0.23137 -0.51099,-0.24076 -0.51165,-0.25011 -0.51219,-0.25939 -0.5126,-0.26861 -0.51291,-0.27778 -0.51309,-0.28688 -0.51315,-0.29591 -0.51309,-0.30488 -0.51293,-0.31377 -0.51263,-0.32259 -0.51222,-0.33134 -0.5117,-0.34001 -0.51105,-0.3486 -0.51029,-0.35711 -0.50941,-0.36555 -0.50841,-0.37389 -0.50729,-0.38215 -0.50607,-0.39032 -0.50471,-0.3984 -0.50325,-0.4064 -0.50167,-0.41429 -0.49997,-0.42209 -0.49816,-0.42979 -0.49623,-0.4374 -0.49419,-0.4449 -0.49204,-0.4523 -0.48976,-0.4596 -0.48739,-0.46679 -0.48489,-0.47387 -0.48229,-0.48085 -0.95631,-0.98217 -0.94456,-1.00871 -0.93195,-1.03433 -0.91846,-1.05899 -0.90415,-1.08267 -0.88898,-1.10536 -0.87301,-1.12703 -0.85622,-1.14766 -0.83865,-1.16723 -0.82031,-1.18572 -0.8012,-1.20312 -0.78136,-1.21942 -0.7608,-1.23458 -0.73955,-1.2486 -0.7176,-1.26149 -0.69499,-1.2732 -0.67174,-1.28375 -0.64788,-1.2931 -0.62341,-1.30127 -0.59838,-1.30823 -0.57278,-1.314 -0.54667,-1.31854 -0.52005,-1.32187 -0.49294,-1.32398 -0.46539,-1.32488 -0.43741,-1.32455 -0.40901,-1.323 -0.38025,-1.32024 -0.35114,-1.31624 -0.16454,-0.65625 -0.15715,-0.65479 -0.14972,-0.6532 -0.14224,-0.65144 -0.13475,-0.64954 -0.1272,-0.64748 -0.11965,-0.64529 -0.11206,-0.64293 -0.10444,-0.64043 -0.0968,-0.63779 -0.0891,-0.63499 -0.0815,-0.63205 -0.0738,-0.62897 -0.066,-0.62574 -0.0583,-0.62236 -0.0506,-0.61884 -0.0428,-0.61518 -0.035,-0.61138 -0.0273,-0.60744 -0.0195,-0.60335 -0.0117,-0.59913 -0.004,-0.59477"
     id="path9"
     style="fill:none;stroke:#82b9ff;stroke-width:1.695" />
  <path
     d="m 163.7035,316.9286 158.20781,91.34132"
     id="path10"
     style="fill:none;stroke:#82b9ff;stroke-width:1.695" />
  <path
     d="M 552.03175,275.40982 321.91131,408.26992"
     id="path11"
     style="fill:none;stroke:#82b9ff;stroke-width:1.695" />
  <path
     d="m 286.43441,234.99821 7.19126,4.15187"
     id="path13"
     style="fill:none;stroke:#82b9ff;stroke-width:1.695" />
  <path
     d="M 377.04433,70.583835 293.62567,239.15008"
     id="path14"
     style="fill:none;stroke:#82b9ff;stroke-width:1.695" />
  <path
     d="m 377.04433,70.583835 -7.19126,-4.151876"
     id="path15"
     style="fill:none;stroke:#82b9ff;stroke-width:1.695" />
  <path
     d="m 520.86961,153.6214 7.19126,4.15188"
     id="path16"
     style="fill:none;stroke:#82b9ff;stroke-width:1.695" />
  <path
     d="M 528.06087,157.77328 V 112.10262"
     id="path17"
     style="fill:none;stroke:#82b9ff;stroke-width:1.695" />
  <path
     d="m 369.85307,20.7613 158.2078,91.34132"
     id="path18"
     style="fill:none;stroke:#82b9ff;stroke-width:1.695" />
  <path
     d="M 377.04433,70.583835 V 190.9883"
     id="path19"
     style="fill:none;stroke:#82b9ff;stroke-width:1.695" />
  <path
     d="M 474.52591,247.26931 377.04433,190.9883"
     id="path20"
     style="fill:none;stroke:#82b9ff;stroke-width:1.695" />
  <path
     d="m 398.49827,185.52166 -0.004,-0.25704 -0.0122,-0.26138 -0.0203,-0.26537 -0.0284,-0.26899 -0.0364,-0.27225 -0.0444,-0.27516 -0.0523,-0.27768 -0.0601,-0.27982 -0.0679,-0.28158 -0.0756,-0.28296 -0.0832,-0.28395 -0.0906,-0.28458 -0.098,-0.28482 -0.10519,-0.28464 -0.23143,-0.56729 -0.25842,-0.56205 -0.28407,-0.55373 -0.3081,-0.54246 -0.33044,-0.52826 -0.35109,-0.51115 -0.36979,-0.49127 -0.19129,-0.23735 -0.19521,-0.2314 -0.19884,-0.22513 -0.20224,-0.21856 -0.20532,-0.2117 -0.20816,-0.20453 -0.21072,-0.1971 -0.21297,-0.1894 -0.21494,-0.18145 -0.21663,-0.17324 -0.21802,-0.1648 -0.21913,-0.15613 -0.21991,-0.14726 -0.2204,-0.1382 -0.2206,-0.12894 -0.22052,-0.11949 -0.22011,-0.1099 -0.21941,-0.10016 -0.21841,-0.0903 -0.21713,-0.0803 -0.21555,-0.0702 -0.21366,-0.0599 -0.21151,-0.0497 -0.20906,-0.0393 -0.2063,-0.0289 -0.20331,-0.0184 -0.20001,-0.008 -0.19643,0.002 -0.19261,0.013 -0.18852,0.0235 -0.18418,0.0339 -0.17959,0.0443 -0.17473,0.0546 -0.16968,0.0649 -0.16435,0.075 -0.15885,0.0851"
     id="path21"
     style="fill:none;stroke:#82b9ff;stroke-width:1.695" />
  <path
     d="m 388.26806,174.72221 -0.20282,0.12888 -0.19211,0.14626 -0.18095,0.16327 -0.16937,0.1799 -0.15735,0.19609 -0.14498,0.21181 -0.13226,0.22703 -0.1192,0.24169 -0.10587,0.25577 -0.0923,0.26923 -0.0785,0.28204 -0.0644,0.29417 -0.0503,0.30561 -0.036,0.3163 -0.0216,0.32622 -0.007,0.33537 0.007,0.34371 0.0216,0.3512 0.036,0.35789 0.0503,0.36366 0.0645,0.3686 0.0784,0.37263 0.0923,0.37576 0.10586,0.37801 0.11918,0.37932 0.13226,0.37973 0.14496,0.37923 0.15737,0.37779 0.16938,0.37547 0.18088,0.37228 0.19215,0.36808 0.20294,0.36302 0.21291,0.35725 0.22269,0.35045 0.23196,0.34279 0.24048,0.33441 0.2485,0.32519 0.25594,0.31516 0.26272,0.30439 0.26891,0.29289 0.27443,0.28067 0.27929,0.26779 0.28348,0.25426 0.28699,0.24011 0.2898,0.22539 0.29194,0.21011 0.29333,0.19435 0.29405,0.17811 0.29405,0.16143 0.29333,0.14438 0.29192,0.12697 0.2898,0.10926 0.28699,0.0913 0.28348,0.0731 0.27929,0.0547 0.27444,0.0362 0.26891,0.0176 0.26273,-0.001 0.25593,-0.0196 0.2485,-0.0382 0.24047,-0.0567 0.23188,-0.0751 0.22272,-0.0932 0.21302,-0.1112"
     id="path22"
     style="fill:none;stroke:#82b9ff;stroke-width:1.695" />
  <path
     d="m 396.74304,189.40131 0.20282,-0.12887 0.19211,-0.14626 0.18095,-0.16328 0.16937,-0.1799 0.15735,-0.19608 0.14498,-0.21182 0.13226,-0.22702 0.1192,-0.24169 0.10587,-0.25577 0.0923,-0.26923 0.0785,-0.28205 0.0644,-0.29417 0.0503,-0.30561 0.036,-0.31629 0.0216,-0.32623 0.007,-0.33537"
     id="path23"
     style="fill:none;stroke:#82b9ff;stroke-width:1.695" />
  <path
     d="m 398.49827,55.15269 -0.004,-0.25703 -0.0122,-0.261383 -0.0203,-0.26536 -0.0283,-0.268995 -0.0364,-0.272263 -0.0444,-0.275165 -0.0523,-0.277678 -0.0601,-0.279804 -0.0679,-0.281577 -0.0756,-0.282972 -0.0832,-0.283963 -0.0906,-0.284584 -0.098,-0.284809 -0.10518,-0.284642 -0.23143,-0.567291 -0.25842,-0.562045 -0.28402,-0.553765 -0.3081,-0.542459 -0.33049,-0.52823 -0.35109,-0.511144 -0.36978,-0.491279 -0.19128,-0.23736 -0.19519,-0.231387 -0.19885,-0.225125 -0.20222,-0.218553 -0.20533,-0.211675 -0.20817,-0.204519 -0.21071,-0.197096 -0.21298,-0.189405 -0.21496,-0.181454 -0.21664,-0.173244 -0.21802,-0.164808 -0.21913,-0.15615 -0.21991,-0.147276 -0.22041,-0.138185 -0.22062,-0.128945 -0.22051,-0.119493 -0.22011,-0.1099 -0.21941,-0.100159 -0.21843,-0.09028 -0.21713,-0.08027 -0.21553,-0.07015 -0.21367,-0.05995 -0.2115,-0.04966 -0.20905,-0.03929 -0.20631,-0.02889 -0.2033,-0.01845 -0.20001,-0.008 -0.19644,0.0025 -0.19262,0.01299 -0.18852,0.02347 -0.18418,0.03388 -0.17959,0.04427 -0.17476,0.05459 -0.16974,0.06473 -0.1644,0.07495 -0.15886,0.08506"
     id="path24"
     style="fill:none;stroke:#82b9ff;stroke-width:1.695" />
  <path
     d="m 388.26806,44.353239 -0.20284,0.128852 -0.19217,0.146179 -0.18096,0.163275 -0.16937,0.179906 -0.15735,0.196108 -0.14498,0.21182 -0.13225,0.227021 -0.11919,0.24168 -0.10586,0.255778 -0.0923,0.269229 -0.0784,0.282039 -0.0645,0.294188 -0.0503,0.305621 -0.036,0.31629 -0.0216,0.326233 -0.007,0.335368 0.007,0.343707 0.0216,0.351202 0.036,0.357889 0.0503,0.363672 0.0644,0.368597 0.0784,0.372631 0.0923,0.375768 0.10586,0.377999 0.11919,0.379322 0.13225,0.379729 0.14498,0.379223 0.15736,0.377798 0.16937,0.375471 0.18097,0.372229 0.19212,0.368099 0.20282,0.363083 0.21303,0.357185 0.22272,0.350438 0.23188,0.342837 0.24048,0.334411 0.2485,0.325179 0.25593,0.315169 0.26273,0.304393 0.2689,0.292887 0.27443,0.280676 0.2793,0.267787 0.28348,0.254255 0.28699,0.24011 0.28981,0.225384 0.29193,0.210133 0.29334,0.194333 0.29404,0.178106 0.29405,0.161431 0.29335,0.144379 0.29192,0.12696 0.28979,0.10924 0.287,0.09129 0.28348,0.07308 0.27929,0.05471 0.27444,0.03622 0.2689,0.01761 0.26273,-10e-4 0.25593,-0.01964 0.24851,-0.03822 0.24048,-0.05672 0.23188,-0.07508 0.22268,-0.09334 0.21301,-0.111237"
     id="path25"
     style="fill:none;stroke:#82b9ff;stroke-width:1.695" />
  <path
     d="m 396.74304,59.032345 0.20284,-0.128853 0.19217,-0.146177 0.18096,-0.163275 0.16937,-0.179906 0.15735,-0.196107 0.14497,-0.211821 0.13225,-0.22702 0.1192,-0.24168 0.10585,-0.255778 0.0923,-0.269229 0.0784,-0.28204 0.0644,-0.294187 0.0503,-0.305592 0.036,-0.316291 0.0216,-0.326232 0.007,-0.335369"
     id="path26"
     style="fill:none;stroke:#82b9ff;stroke-width:1.695" />
  <path
     d="m 401.01521,121.79033 0.004,-0.67724 0.0108,-0.67298 0.0181,-0.66861 0.0253,-0.66413 0.0325,-0.65956 0.0397,-0.65489 0.0469,-0.65012 0.0541,-0.64526 0.0613,-0.64028 0.0684,-0.63522 0.0756,-0.63007 0.0828,-0.62481 0.0899,-0.61947 0.097,-0.61403 0.10413,-0.60849 0.11124,-0.60287 0.11832,-0.59716 0.12538,-0.59135 0.13242,-0.58546 0.13945,-0.57948 0.14645,-0.5734 0.15343,-0.56725 0.16039,-0.56101 0.16733,-0.55469 0.17423,-0.54827 0.18112,-0.54179 0.18797,-0.53521 0.1948,-0.52856 0.2016,-0.52182 0.20837,-0.51502 0.2151,-0.50812 0.22181,-0.50114 0.22848,-0.49411 0.23512,-0.48699 0.24171,-0.4798 0.24828,-0.47255 0.2548,-0.46523 0.26128,-0.457821 0.26774,-0.450351 0.27414,-0.442815 0.28052,-0.435186 0.28684,-0.427523 0.29312,-0.419795 0.29935,-0.412003 0.30556,-0.404117 0.31171,-0.396196 0.31779,-0.38824 0.32385,-0.38019 0.32986,-0.372075 0.33581,-0.363925 0.3417,-0.355738 0.34757,-0.347458 0.35336,-0.339141 0.35911,-0.33079 0.36479,-0.322372 0.37043,-0.313918 0.37601,-0.305401 0.38154,-0.296846 0.38701,-0.288225 0.39241,-0.279599 0.39776,-0.270907 0.40311,-0.262091 0.40831,-0.253355 0.41346,-0.244584"
     id="path27"
     style="fill:none;stroke:#82b9ff;stroke-width:1.695" />
  <path
     d="m 415.05703,90.753096 0.41854,-0.235777 0.42357,-0.226932 0.42853,-0.218054 0.4335,-0.209019 0.43834,-0.200038 0.44312,-0.191051 0.44784,-0.181996 0.45249,-0.172936 0.45708,-0.16384 0.46158,-0.154736 0.46602,-0.145598 0.47039,-0.136453 0.47469,-0.127271 0.47893,-0.118054 0.48307,-0.10886 0.48716,-0.09963 0.49118,-0.09037 0.49512,-0.08109 0.49897,-0.07185 0.50275,-0.06256 0.50649,-0.05325 0.51011,-0.04395 0.51367,-0.03465 0.51714,-0.02535 0.52056,-0.01601 0.52388,-0.0067 0.52713,0.0026 0.5303,0.01196 0.53337,0.02126 0.53638,0.03056 0.5393,0.03988 0.54216,0.04919 0.54491,0.05848 0.54759,0.06777 0.5502,0.07706 0.55271,0.08632 0.55515,0.09558 0.55749,0.104816 0.55976,0.114041 0.56194,0.123246 0.56403,0.132437 0.56605,0.141602 0.56797,0.150746 0.56981,0.159873 0.57156,0.168975 0.57324,0.178045 0.57481,0.187093 0.57631,0.196114 0.57772,0.205103 0.57904,0.214063 0.58027,0.222988 0.58143,0.231884 0.58248,0.240738 0.58345,0.249564 0.58434,0.258346 0.58513,0.267091 0.58584,0.275797 0.58646,0.284463 0.58699,0.293081 0.58743,0.301657 0.58779,0.310189 0.58806,0.318675 0.58823,0.32711 0.58831,0.335498 0.58832,0.343833 0.58823,0.352122 0.58806,0.360349 0.58778,0.368529 0.58744,0.376654 0.58699,0.384717 0.58646,0.392724 0.58584,0.400673 0.58513,0.408561 0.58434,0.416389 0.58345,0.42415 0.58248,0.431848 1.1617,0.886544 1.15676,0.916541 1.15112,0.946 1.1448,0.97488 1.13778,1.00318 1.13008,1.03086 1.1217,1.05794 1.11264,1.08437 1.10291,1.11015 1.09251,1.13526 1.08147,1.15968 1.06976,1.18342 1.05741,1.20643 1.04443,1.22872 1.03082,1.25027 1.01659,1.27106 1.00173,1.29109 0.98629,1.31035 0.97024,1.32881 0.95362,1.34648 0.93641,1.36332 0.91864,1.37936 0.90033,1.39455 0.88146,1.40891 0.86207,1.42243 0.84216,1.43507 0.82173,1.44687 0.80082,1.45779 0.77943,1.46783 0.75756,1.47698 0.73523,1.48524 0.71247,1.49262 0.68927,1.49909 0.66574,1.5048 0.64165,1.50932 0.61725,1.51308 0.59248,1.51592 0.56736,1.51785 0.54188,1.51886 0.5161,1.51896 0.48998,1.51815 0.46359,1.51642 0.43691,1.51378 0.40996,1.51022 0.38277,1.50576 0.35535,1.50038 0.32772,1.49411 0.29988,1.48694 0.27188,1.47886 0.24369,1.46991 0.21537,1.46005 0.18692,1.44933 0.0827,0.72037 0.0756,0.71736 0.0684,0.71424 0.0613,0.71102 0.0541,0.70769 0.0469,0.70425 0.0397,0.70071 0.0325,0.69706 0.0253,0.6933 0.0181,0.68945 0.0108,0.68548 0.004,0.68142 -0.004,0.67724 -0.0108,0.67298 -0.0181,0.66861 -0.0253,0.66413 -0.0325,0.65956 -0.0397,0.65489 -0.0469,0.65012 -0.0541,0.64525 -0.0613,0.64029 -0.0684,0.63522 -0.0756,0.63007 -0.0828,0.62481 -0.0899,0.61947 -0.097,0.61403 -0.10414,0.60849 -0.11123,0.60287 -0.11831,0.59716 -0.12538,0.59135 -0.13243,0.58546 -0.13945,0.57947 -0.14645,0.57341 -0.15343,0.56725 -0.16039,0.56101 -0.16733,0.55469 -0.17423,0.54827 -0.18112,0.54179 -0.18797,0.53521 -0.1948,0.52856 -0.2016,0.52182 -0.20836,0.51502 -0.21511,0.50811 -0.22181,0.50115 -0.22848,0.49411 -0.23511,0.48699 -0.24171,0.47983 -0.24827,0.47255 -0.25481,0.4652 -0.26129,0.45782 -0.26773,0.45035 -0.27415,0.44282 -0.28052,0.43518 -0.28684,0.42753 -0.29312,0.41979 -0.29935,0.412 -0.30556,0.40412 -0.31171,0.3962 -0.31779,0.38824 -0.32385,0.38019 -0.32986,0.37207 -0.33581,0.36393 -0.3417,0.35573 -0.34757,0.34746 -0.35336,0.33914 -0.3591,0.33079 -0.3648,0.32237 -0.37043,0.31392 -0.37601,0.3054 -0.38154,0.29685 -0.38701,0.28823 -0.39241,0.27959 -0.39776,0.27091 -0.40311,0.26209 -0.40831,0.25336 -0.41346,0.24458"
     id="path28"
     style="fill:none;stroke:#82b9ff;stroke-width:1.695" />
  <path
     d="m 482.85691,208.18594 -0.62975,0.35028 -0.641,0.33031 -0.65206,0.31016 -0.66289,0.28994 -0.6735,0.26962 -0.68389,0.24919 -0.69403,0.22869 -0.70397,0.20809 -0.71363,0.18745 -0.72306,0.16674 -0.73225,0.14597 -0.74119,0.12515 -0.74988,0.10429 -0.75832,0.0834 -0.76651,0.0624 -0.77442,0.0415 -0.78208,0.0205 -0.78947,-4.4e-4 -0.7966,-0.0214 -0.80346,-0.0424 -0.81003,-0.0633 -0.81635,-0.0842 -0.82238,-0.10515 -0.82813,-0.12601 -0.8336,-0.14684 -0.83879,-0.1676 -0.8437,-0.18831 -0.84832,-0.20897 -0.85265,-0.22955 -0.8567,-0.25004 -0.86044,-0.27047 -0.86391,-0.29079 -0.86708,-0.31101 -0.86996,-0.33114 -0.87253,-0.35115 -0.87483,-0.37104 -0.8768,-0.3908 -0.8785,-0.41043 -0.8799,-0.42993 -0.88099,-0.44927 -0.88178,-0.46847 -0.88229,-0.48751 -0.88248,-0.50637 -0.88239,-0.52508 -0.88198,-0.54359 -0.88129,-0.56194 -0.88029,-0.58008 -0.879,-0.59804 -0.87741,-0.61577 -0.87551,-0.63333 -0.87333,-0.65064 -0.87085,-0.66775 -0.86807,-0.68462 -0.865,-0.70127 -0.86164,-0.71768 -0.85797,-0.73385 -0.85404,-0.74976 -0.84979,-0.76543 -0.84527,-0.78082 -0.84046,-0.79597 -0.83536,-0.81084 -0.82999,-0.82542 -0.82432,-0.83975 -0.81838,-0.85377 -0.81217,-0.86752 -0.80569,-0.88095 -0.79891,-0.89411 -0.79188,-0.90695 -0.78457,-0.9195 -0.77702,-0.93171 -0.76917,-0.94362 -0.76108,-0.95522 -0.75274,-0.96648 -0.74411,-0.97743 -0.73527,-0.98803 -0.72618,-0.9983 -0.7168,-1.00824 -0.7072,-1.01784 -0.69738,-1.02708 -0.6873,-1.03598 -0.677,-1.04453 -0.66647,-1.05273 -0.65569,-1.06057 -0.6448,-1.06801 -0.63363,-1.0751 -0.62209,-1.08192 -0.61037,-1.08837 -0.59856,-1.09437 -0.58661,-1.09997 -0.57435,-1.10526 -0.56195,-1.11015 -0.5493,-1.11468 -0.53651,-1.11882 -0.52353,-1.12259 -0.51034,-1.12598 -0.49701,-1.12899 -0.48352,-1.1316 -0.46983,-1.13385 -0.45601,-1.13569 -0.44204,-1.13717 -0.4279,-1.13825 -0.41362,-1.13895 -0.39921,-1.13926 -0.38464,-1.13919 -0.36994,-1.13875 -0.35516,-1.13789 -0.3402,-1.13666 -0.32518,-1.13505 -0.31001,-1.13305 -0.29474,-1.13067 -0.2794,-1.12789 -0.26392,-1.12476 -0.24839,-1.12122 -0.23276,-1.11731 -0.21705,-1.11302 -0.20128,-1.10836 -0.18542,-1.10332 -0.1695,-1.0979 -0.15354,-1.09211 -0.13752,-1.08596 -0.12145,-1.07943 -0.10534,-1.07254 -0.0892,-1.06529 -0.073,-1.05767 -0.0568,-1.0497 -0.0406,-1.04137 -0.0244,-1.03269 -0.008,-1.02365"
     id="path29"
     style="fill:none;stroke:#82b9ff;stroke-width:1.695" />
  <path
     d="m 511.40111,120.33718 -0.004,-0.25704 -0.0122,-0.26138 -0.0203,-0.26537 -0.0284,-0.26899 -0.0364,-0.27226 -0.0444,-0.27515 -0.0523,-0.27768 -0.0601,-0.27982 -0.0679,-0.28158 -0.0756,-0.28296 -0.0832,-0.28396 -0.0906,-0.28458 -0.098,-0.28481 -0.10519,-0.28465 -0.23143,-0.56729 -0.25842,-0.56205 -0.28407,-0.55372 -0.3081,-0.54246 -0.33044,-0.52827 -0.35109,-0.51114 -0.36979,-0.49128 -0.19129,-0.23735 -0.19521,-0.23139 -0.19884,-0.22514 -0.20224,-0.21855 -0.20532,-0.2117 -0.20816,-0.20454 -0.21072,-0.1971 -0.21297,-0.1894 -0.21494,-0.18144 -0.21663,-0.17324 -0.21803,-0.1648 -0.21912,-0.15613 -0.21991,-0.14727 -0.2204,-0.1382 -0.2206,-0.12893 -0.22052,-0.11949 -0.22011,-0.10991 -0.21941,-0.10015 -0.21841,-0.0903 -0.21713,-0.0803 -0.21555,-0.0701 -0.21366,-0.06 -0.21151,-0.0497 -0.20906,-0.0393 -0.2063,-0.0289 -0.20331,-0.0184 -0.20001,-0.008 -0.19643,0.003 -0.19261,0.013 -0.18852,0.0235 -0.18418,0.0339 -0.17959,0.0443 -0.17473,0.0546 -0.16968,0.0648 -0.16435,0.075 -0.15885,0.0851"
     id="path30"
     style="fill:none;stroke:#82b9ff;stroke-width:1.695" />
  <path
     d="m 501.1709,109.53772 -0.20282,0.12888 -0.19211,0.14626 -0.18095,0.16328 -0.16937,0.1799 -0.15735,0.19608 -0.14499,0.21182 -0.13225,0.22702 -0.1192,0.24169 -0.10587,0.25577 -0.0923,0.26923 -0.0784,0.28205 -0.0644,0.29417 -0.0503,0.3056 -0.036,0.3163 -0.0216,0.32622 -0.007,0.33538 0.007,0.3437 0.0217,0.35121 0.036,0.35788 0.0503,0.36367 0.0644,0.36859 0.0785,0.37264 0.0923,0.37576 0.10586,0.378 0.11918,0.37933 0.13226,0.37972 0.14496,0.37923 0.15737,0.3778 0.16938,0.37546 0.18088,0.37228 0.19215,0.36808 0.20294,0.36302 0.21291,0.35725 0.22269,0.35046 0.23196,0.34278 0.24048,0.33442 0.2485,0.32518 0.25594,0.31516 0.26272,0.3044 0.26891,0.29288 0.27443,0.28068 0.27929,0.26779 0.28348,0.25425 0.28699,0.24011 0.2898,0.22539 0.29194,0.21012 0.29333,0.19435 0.29405,0.1781 0.29405,0.16143 0.29333,0.14439 0.29192,0.12696 0.2898,0.10926 0.28699,0.0913 0.28348,0.0731 0.27929,0.0547 0.27444,0.0362 0.26891,0.0176 0.26273,-10e-4 0.25593,-0.0197 0.2485,-0.0382 0.24047,-0.0567 0.23188,-0.0751 0.22272,-0.0932 0.21302,-0.11121"
     id="path31"
     style="fill:none;stroke:#82b9ff;stroke-width:1.695" />
  <path
     d="m 509.64588,124.21683 0.20282,-0.12888 0.19211,-0.14626 0.18095,-0.16327 0.16937,-0.1799 0.15735,-0.19609 0.14498,-0.21181 0.13226,-0.22703 0.1192,-0.24169 0.10587,-0.25577 0.0923,-0.26923 0.0784,-0.28204 0.0644,-0.29418 0.0503,-0.3056 0.036,-0.3163 0.0216,-0.32622 0.007,-0.33537"
     id="path32"
     style="fill:none;stroke:#82b9ff;stroke-width:1.695" />
  <path
     d="M 528.06087,112.10262 552.03175,98.263024"
     id="path33"
     style="fill:none;stroke:#82b9ff;stroke-width:1.695" />
  <path
     d="M 321.91131,408.26992 V 397.19824"
     id="path34"
     style="fill:none;stroke:#82b9ff;stroke-width:1.695" />
  <path
     d="M 321.91131,397.19824 163.70351,305.85693"
     id="path35"
     style="fill:none;stroke:#82b9ff;stroke-width:1.695" />
  <path
     d="m 444.64221,326.33952 -7.19126,-4.15188"
     id="path36"
     style="fill:none;stroke:#82b9ff;stroke-width:1.695" />
  <path
     d="m 377.04433,190.9883 -83.41866,48.16178"
     id="path37"
     style="fill:none;stroke:#82b9ff;stroke-width:1.695" />
  <path
     d="m 444.64221,326.33952 -122.7309,70.85872"
     id="path38"
     style="fill:none;stroke:#82b9ff;stroke-width:1.695" />
  <path
     d="m 451.95333,289.5954 0.4934,-0.26998 0.51767,-0.25441 0.54048,-0.23807 0.56176,-0.22103"
     id="path39"
     style="fill:none;stroke:#82b9ff;stroke-width:1.695" />
  <path
     d="m 449.45559,297.92956 -0.14629,-0.1847 -0.13731,-0.18698 -0.12836,-0.1891 -0.1193,-0.19104 -0.11005,-0.19289 -0.10064,-0.19466 -0.0913,-0.19615 -0.0819,-0.1975 -0.0725,-0.19874 -0.0629,-0.19981 -0.0534,-0.20074 -0.0437,-0.2015 -0.034,-0.20211 -0.0243,-0.20259 -0.0146,-0.20291 -0.005,-0.20306"
     id="path40"
     style="fill:none;stroke:#82b9ff;stroke-width:1.695" />
  <path
     d="m 448.22993,294.78525 0.004,-0.18011 0.0115,-0.18 0.0191,-0.1798 0.0268,-0.17947 0.0344,-0.17905 0.042,-0.1785 0.0496,-0.17783 0.0571,-0.1771 0.0646,-0.17623 0.0721,-0.17527 0.0795,-0.17419 0.0869,-0.17301 0.0942,-0.17172 0.10148,-0.17035 0.1087,-0.16884 0.11587,-0.16726 0.25285,-0.32934 0.28053,-0.32179 0.30756,-0.31343 0.3338,-0.30437 0.35929,-0.29453 0.38388,-0.28399 0.40751,-0.27285 0.43024,-0.26093"
     id="path41"
     style="fill:none;stroke:#82b9ff;stroke-width:1.695" />
  <path
     d="m 332.09894,220.39744 0.33695,-0.18751 0.34868,-0.18022 0.35993,-0.17269 0.3707,-0.16492 0.38096,-0.15693 0.39071,-0.14873 0.39992,-0.14033 0.40861,-0.13173 0.41672,-0.12297 0.42427,-0.11402 0.43126,-0.10492 0.43766,-0.0957 0.44346,-0.0863 0.44867,-0.0768 0.45325,-0.0673 0.45724,-0.0576 0.4606,-0.0478 0.46334,-0.038 0.46545,-0.0281 0.46692,-0.0182 0.46777,-0.008 0.46799,0.002 0.46756,0.0116 0.4665,0.0215 0.46481,0.0314 0.46249,0.0413 0.45956,0.0511 0.45598,0.0608 0.45179,0.0705 0.447,0.08 0.4416,0.0895 0.4356,0.0988 0.429,0.10797 0.42182,0.11703 0.41407,0.1259 0.40575,0.13463 0.39691,0.14315 0.3875,0.1515 0.3776,0.15962 0.36717,0.16753 0.35623,0.17523 0.34483,0.18267 0.33295,0.18988 0.3206,0.19683 0.30785,0.2035 0.29468,0.20991 0.28107,0.21604 0.26712,0.22185 0.25279,0.22739 0.23814,0.23259 0.22313,0.23751 0.20784,0.24209 0.19228,0.24633 0.17655,0.25019 0.16028,0.25389 0.1441,0.25705 0.12773,0.25988 0.11092,0.26249 0.0941,0.26467 0.0772,0.26649 0.0601,0.26796 0.043,0.26904 0.0258,0.26978 0.009,0.27016"
     id="path42"
     style="fill:none;stroke:#82b9ff;stroke-width:1.695" />
  <path
     d="m 353.80049,225.58728 -0.004,0.18012 -0.0115,0.18002 -0.0192,0.1798 -0.0268,0.17947 -0.0344,0.17904 -0.042,0.17849 -0.0495,0.17784 -0.0571,0.17709 -0.0646,0.17623 -0.0721,0.17527 -0.0795,0.17418 -0.0869,0.17301 -0.0942,0.17172 -0.10149,0.17034 -0.10872,0.16885 -0.11587,0.16727 -0.25286,0.32934 -0.28054,0.32177 -0.30754,0.31345 -0.33382,0.30435 -0.35928,0.29453 -0.38388,0.284 -0.40756,0.27276 -0.43025,0.2609 -0.4519,0.24841 -0.47246,0.23532 -0.49189,0.22163 -0.51014,0.20743 -0.52716,0.19273 -0.5429,0.17756 -0.55733,0.16197 -0.57043,0.14599 -0.58215,0.12964 -0.59247,0.11301 -0.60136,0.0961 -0.6088,0.0789 -0.61477,0.0616 -0.61927,0.0441 -0.62227,0.0265 -0.62377,0.009 -0.62377,-0.009 -0.62227,-0.0265 -0.61926,-0.0441 -0.61478,-0.0616 -0.6088,-0.0789 -0.60135,-0.0961 -0.59247,-0.113 -0.58215,-0.12965 -0.57043,-0.14599 -0.55734,-0.16197 -0.5429,-0.17756 -0.52715,-0.19273 -0.51014,-0.20743 -0.49189,-0.22164 -0.47246,-0.2353 -0.45191,-0.2484 -0.43024,-0.26091 -0.40754,-0.27278 -0.38388,-0.284 -0.35928,-0.29453 -0.33382,-0.30435 -0.30755,-0.31344 -0.28055,-0.32178 -0.25285,-0.32934 -0.11577,-0.1673 -0.10881,-0.16879 -0.1015,-0.17034 -0.0941,-0.1718 -0.087,-0.17297 -0.0795,-0.17423 -0.0722,-0.1752 -0.0646,-0.17626 -0.0571,-0.17709 -0.0496,-0.17785 -0.042,-0.1785 -0.0344,-0.17903 -0.0268,-0.17947 -0.0191,-0.17979 -0.0115,-0.18002 -0.004,-0.18013"
     id="path43"
     style="fill:none;stroke:#82b9ff;stroke-width:1.695" />
  <path
     d="m 328.37554,225.58728 0.004,-0.18011 0.0115,-0.18001 0.0191,-0.1798 0.0268,-0.17947 0.0344,-0.17904 0.042,-0.17849 0.0496,-0.17784 0.0571,-0.17709 0.0646,-0.17623 0.0721,-0.17527 0.0795,-0.17419 0.0869,-0.17301 0.0942,-0.17173 0.10149,-0.17033 0.10872,-0.16886 0.11587,-0.16726 0.25286,-0.32934 0.28054,-0.32178 0.30754,-0.31344 0.33382,-0.30435 0.35928,-0.29453 0.38388,-0.284 0.40756,-0.27278 0.43024,-0.2609"
     id="path44"
     style="fill:none;stroke:#82b9ff;stroke-width:1.695" />
  <path
     d="M 528.06087,157.77328 444.64221,326.33952"
     id="path45"
     style="fill:none;stroke:#82b9ff;stroke-width:1.695" />
  <path
     d="M 520.86961,153.6214 437.45095,322.18764"
     id="path46"
     style="fill:none;stroke:#82b9ff;stroke-width:1.695" />
  <path
     d="m 405.80939,119.02241 0.012,-1.22926 0.0359,-1.21485 0.0597,-1.19983 0.0836,-1.18421 0.10741,-1.16799 0.13117,-1.1512 0.15487,-1.13383 0.17848,-1.1159 0.20201,-1.09741 0.22543,-1.07837 0.12147,-0.53188 0.12729,-0.52692 0.13308,-0.52189 0.13886,-0.5168 0.14463,-0.51165 0.15037,-0.50642 0.1561,-0.50114 0.16181,-0.4958 0.16749,-0.4904 0.17317,-0.48492 0.1788,-0.4794 0.18443,-0.47381 0.19003,-0.46816 0.1956,-0.46246 0.20116,-0.45669 0.20668,-0.450878 0.21219,-0.444981 0.21767,-0.439057 0.2231,-0.433079 0.22853,-0.427046 0.2339,-0.420957 0.23929,-0.414785 0.24462,-0.408586 0.24991,-0.402361 0.25518,-0.396053 0.26043,-0.389687 0.26563,-0.383297 0.27081,-0.37685 0.27593,-0.370377 0.28105,-0.363819 0.28613,-0.357234 0.29114,-0.350623 0.29614,-0.343956 0.30111,-0.337233 0.30603,-0.330483 0.31091,-0.323676 0.31576,-0.316843 0.32058,-0.309954 0.32534,-0.303038 0.33006,-0.296094 0.33475,-0.289094 0.3394,-0.282067 0.34399,-0.275014 0.34856,-0.267903"
     id="path47"
     style="fill:none;stroke:#82b9ff;stroke-width:1.695" />
  <path
     d="m 485.16914,206.65501 -0.65153,0.26488 -0.66135,0.24568 -0.67094,0.22641 -0.68034,0.20705 -0.68949,0.18764 -0.69844,0.16818 -0.70717,0.14864 -0.71566,0.12908 -0.72392,0.10946 -0.73198,0.0898 -0.73978,0.0701 -0.74736,0.0504 -0.75468,0.0307 -0.76177,0.011 -0.76862,-0.009 -0.77522,-0.0285 -0.78159,-0.0482 -0.78768,-0.0679 -0.79355,-0.0876 -0.79914,-0.10723 -0.8045,-0.12686 -0.80959,-0.14643 -0.81442,-0.16596 -0.819,-0.18544 -0.82331,-0.20487 -0.82736,-0.22422 -0.83115,-0.2435 -0.83467,-0.26271 -0.83792,-0.28183 -0.84092,-0.30086 -0.84363,-0.3198 -0.84609,-0.33863 -0.84827,-0.35737 -0.85019,-0.37597 -0.85182,-0.39447 -0.85319,-0.41283 -0.85429,-0.43107 -0.85511,-0.44917 -0.85567,-0.46712 -0.85594,-0.48493 -0.85595,-0.50258 -0.85569,-0.52007 -0.85515,-0.53739 -0.85433,-0.55456 -0.85326,-0.57152 -0.85189,-0.58832 -0.85027,-0.60493 -0.84837,-0.62135 -0.8462,-0.63756 -0.84376,-0.65358 -0.84105,-0.66938 -0.83808,-0.68497 -0.83483,-0.70035 -0.83133,-0.71549 -0.82755,-0.73042 -0.82351,-0.74511 -0.81921,-0.75956 -0.81465,-0.77376 -0.80983,-0.78773 -0.80476,-0.80144 -0.79941,-0.8149 -0.79383,-0.82809 -0.78797,-0.84103 -0.78188,-0.85369 -0.77553,-0.86609 -0.76894,-0.8782 -0.76212,-0.89003 -0.75504,-0.90158 -0.74772,-0.91285 -0.74014,-0.92383 -0.73236,-0.9345 -0.72434,-0.94488 -0.71607,-0.95497 -0.70758,-0.96474 -0.69888,-0.97421 -0.68992,-0.98337 -0.68077,-0.99222 -0.67141,-1.00074 -0.66182,-1.00894 -0.65202,-1.01684 -0.64201,-1.0244 -0.63167,-1.03172 -0.62149,-1.03848 -0.61083,-1.0451 -0.59996,-1.05137 -0.58891,-1.05732 -0.57767,-1.06292 -0.56643,-1.06807 -0.55489,-1.07297 -0.54315,-1.07752 -0.53125,-1.08172 -0.5192,-1.08559 -0.50694,-1.08911 -0.49456,-1.09227 -0.48201,-1.09509 -0.46931,-1.09755 -0.45644,-1.09969 -0.44345,-1.10145 -0.4303,-1.10287 -0.41702,-1.10394 -0.40361,-1.10466 -0.39008,-1.10501 -0.37639,-1.10504 -0.36261,-1.10469 -0.34871,-1.104 -0.33471,-1.10295 -0.32059,-1.10155 -0.30636,-1.09981 -0.29204,-1.09771 -0.27762,-1.09527 -0.26313,-1.09246 -0.24856,-1.08932 -0.23388,-1.08582 -0.21914,-1.08199 -0.20434,-1.0778 -0.18946,-1.07327 -0.17453,-1.06841 -0.15953,-1.06319 -0.1445,-1.05765 -0.12941,-1.05175 -0.11429,-1.04554 -0.0991,-1.03899 -0.0839,-1.03209 -0.0687,-1.02488 -0.0535,-1.01734 -0.0382,-1.00947 -0.0229,-1.00128 -0.008,-0.99278"
     id="path48"
     style="fill:none;stroke:#82b9ff;stroke-width:1.695" />
  <path
     d="m 419.95221,127.18777 0.0102,-0.9519 0.0305,-0.93959 0.0509,-0.92668 0.0712,-0.91324 0.0914,-0.89923 0.11164,-0.8847 0.13178,-0.86961 0.15183,-0.85401 0.17181,-0.8379 0.19167,-0.82128 0.21142,-0.80416 0.23104,-0.78657 0.25052,-0.76849 0.26986,-0.74996 0.28902,-0.73097 0.30802,-0.71154 0.32683,-0.69169 0.34544,-0.67141 0.36384,-0.65074 0.38203,-0.62967 0.4,-0.6082 0.41769,-0.58641 0.21542,-0.28491 0.21975,-0.27933 0.22405,-0.27369 0.22831,-0.26803 0.23254,-0.26234 0.23674,-0.25658 0.2409,-0.2508 0.24503,-0.24497 0.24911,-0.2391 0.25318,-0.23319 0.25718,-0.22728 0.26115,-0.22131 0.2651,-0.2153 0.26898,-0.20927 0.27284,-0.20321 0.27657,-0.19726 0.28047,-0.19089 0.28417,-0.18482 0.28782,-0.17869 0.29141,-0.17256"
     id="path49"
     style="fill:none;stroke:#82b9ff;stroke-width:1.695" />
  <path
     d="m 429.85169,105.30652 0.29514,-0.1661 0.29867,-0.1599 0.30213,-0.15369 0.30556,-0.14745 0.30912,-0.14089 0.3124,-0.13469 0.31573,-0.1283 0.319,-0.12194 0.32223,-0.1155 0.32542,-0.10909 0.32854,-0.10266 0.33163,-0.0962 0.33466,-0.0897 0.33765,-0.0832 0.34057,-0.0767 0.34346,-0.0702 0.34628,-0.0637 0.34905,-0.0572 0.35178,-0.0506 0.35445,-0.0441 0.71669,-0.0685 0.72672,-0.0423 0.73632,-0.016 0.74548,0.0103 0.75418,0.0365 0.76244,0.0628 0.77022,0.089 0.77755,0.11518 0.78441,0.14128 0.7908,0.16729 0.7967,0.19319 0.80214,0.21899 0.80708,0.24465 0.81154,0.27016 0.81552,0.29552 0.81899,0.32068 0.82199,0.34566 0.82447,0.37043 0.82648,0.39499 0.82797,0.41929 0.82896,0.44335 0.82947,0.46714 0.82947,0.49064 0.82896,0.51386 0.82797,0.53677 0.82647,0.55934 0.82448,0.58159 0.82198,0.60348 0.819,0.62502 0.81552,0.64616 0.81154,0.66693 0.80708,0.68729 0.80214,0.70724 0.7967,0.72676 0.7908,0.74584 0.78441,0.76448 0.77755,0.78266 0.77022,0.80036 0.76244,0.81758 0.75418,0.8343 0.74548,0.85054 0.73632,0.86625 0.72673,0.88144 0.71669,0.8961 0.70622,0.91022 0.69534,0.92379 0.68402,0.93681 0.6723,0.94927 0.66017,0.96114 0.64764,0.97244 0.63473,0.98317 0.62143,0.99328 0.60775,1.00281 0.59371,1.01174 0.57933,1.02004 0.56459,1.02773 0.5495,1.03482 0.53407,1.04127 0.51821,1.04687 0.50229,1.0523 0.48594,1.05686 0.46929,1.06078 0.45236,1.06407 0.43516,1.06672 0.4177,1.06873 0.39999,1.07008 0.38203,1.0708 0.36385,1.07087 0.34544,1.07029 0.32682,1.06908 0.30802,1.06721 0.28903,1.06471 0.26985,1.06156 0.25052,1.05777 0.23105,1.05335 0.21141,1.04829 0.19167,1.0426 0.17181,1.03628 0.15184,1.02934 0.13177,1.02177 0.11164,1.0136 0.0914,1.00481 0.0712,0.99542 0.0509,0.98543 0.0305,0.97483 0.0102,0.96367 -0.0102,0.95191 -0.0305,0.93958 -0.0509,0.92669 -0.0712,0.91323 -0.0914,0.89924 -0.11164,0.88469 -0.13178,0.86961 -0.15183,0.85401 -0.17181,0.8379 -0.19167,0.82128 -0.21141,0.80416 -0.23105,0.78657 -0.25052,0.76849 -0.26985,0.74996 -0.28903,0.73097 -0.30802,0.71154 -0.32682,0.69169 -0.34544,0.67141 -0.36385,0.65074 -0.38203,0.62967 -0.39999,0.60821 -0.4177,0.58641 -0.21542,0.2849 -0.21974,0.27933 -0.22404,0.27372 -0.22831,0.26804 -0.23256,0.2623 -0.23674,0.25658 -0.24091,0.25077 -0.24503,0.24497 -0.24912,0.2391 -0.25318,0.23319 -0.25717,0.22728 -0.26115,0.22132 -0.2651,0.21529 -0.26898,0.20928 -0.27284,0.2032 -0.27674,0.19696 -0.28048,0.1909 -0.28417,0.18481 -0.28781,0.1787 -0.29142,0.17256"
     id="path50"
     style="fill:none;stroke:#82b9ff;stroke-width:1.695" />
  <path
     d="m 477.6506,188.09668 -0.44397,0.24693 -0.45197,0.23276 -0.4597,0.21867 -0.46734,0.20441 -0.47483,0.19006 -0.48214,0.17569 -0.48929,0.16123 -0.49629,0.1467 -0.5031,0.13217 -0.50977,0.11754 -0.51623,0.10291 -0.52254,0.0882 -0.52866,0.0735 -0.53463,0.0588 -0.54039,0.044 -0.54596,0.0293 -0.55136,0.0145 -0.55658,-3.1e-4 -0.5616,-0.0151 -0.56644,-0.0299 -0.57107,-0.0446 -0.57547,-0.0593 -0.57977,-0.0741 -0.58383,-0.0888 -0.58769,-0.10351 -0.59135,-0.11816 -0.59481,-0.13276 -0.59807,-0.14732 -0.60112,-0.16184 -0.60396,-0.17628 -0.60662,-0.19067 -0.60906,-0.20501 -0.61129,-0.21927 -0.61332,-0.23345 -0.61513,-0.24756 -0.61675,-0.26158 -0.61815,-0.27552 -0.61935,-0.28935 -0.62032,-0.3031 -0.6211,-0.31674 -0.62166,-0.33027 -0.62201,-0.34369 -0.62215,-0.357 -0.62208,-0.37017 -0.6218,-0.38324 -0.62131,-0.39616 -0.62061,-0.40896 -0.61969,-0.42161 -0.61857,-0.43413 -0.61724,-0.44649 -0.6157,-0.4587 -0.61394,-0.47077 -0.61199,-0.48266 -0.60983,-0.49439 -0.60745,-0.50597 -0.60488,-0.51736 -0.60209,-0.52858 -0.5991,-0.53962 -0.59592,-0.55049 -0.59252,-0.56115 -0.58894,-0.57164 -0.58514,-0.58193 -0.58115,-0.59202 -0.57696,-0.60191 -0.57258,-0.61159 -0.568,-0.62108 -0.56324,-0.63035 -0.55827,-0.6394 -0.55312,-0.64824 -0.54779,-0.65686 -0.54227,-0.66526 -0.53656,-0.67342 -0.53068,-0.68138 -0.5246,-0.68908 -0.51836,-0.69657 -0.51194,-0.7038 -0.50535,-0.71081 -0.49858,-0.71758 -0.49164,-0.72409 -0.48455,-0.73037 -0.47728,-0.7364 -0.46985,-0.74218 -0.46226,-0.7477 -0.45453,-0.75297 -0.44663,-0.758 -0.43858,-0.76275 -0.43038,-0.76726 -0.42205,-0.7715 -0.41355,-0.77548 -0.40493,-0.7792 -0.39616,-0.78266 -0.38727,-0.78585 -0.37824,-0.78877 -0.36908,-0.79142 -0.3598,-0.79381 -0.3504,-0.79594 -0.34088,-0.79778 -0.33123,-0.79936 -0.32149,-0.80067 -0.31163,-0.8017 -0.30166,-0.80247 -0.29159,-0.80297 -0.28144,-0.80318 -0.27117,-0.80313 -0.26081,-0.80281 -0.25038,-0.80222 -0.23985,-0.80135 -0.22924,-0.80021 -0.21856,-0.7988 -0.2078,-0.79712 -0.19697,-0.79517 -0.18607,-0.79294 -0.17512,-0.79047 -0.16409,-0.7877 -0.15303,-0.78468 -0.14189,-0.78139 -0.13072,-0.77784 -0.11951,-0.77402 -0.10824,-0.76994 -0.0969,-0.7656 -0.0856,-0.761 -0.0743,-0.75614 -0.0629,-0.75103 -0.0515,-0.74566 -0.0401,-0.74003 -0.0286,-0.73417 -0.0172,-0.72804 -0.006,-0.72168"
     id="path51"
     style="fill:none;stroke:#82b9ff;stroke-width:1.695" />
  <path
     d="m 335.0953,227.66322 0.22333,-0.12432 0.23108,-0.11952 0.23848,-0.11455 0.24559,-0.10942 0.25239,-0.10418 0.25882,-0.0988 0.26489,-0.0932 0.27063,-0.0876 0.27599,-0.0818 0.281,-0.0759 0.28562,-0.0699 0.28988,-0.0638 0.5909,-0.10909 0.60314,-0.0838 0.61214,-0.0582 0.61787,-0.0321 0.62028,-0.006 0.61938,0.0203 0.61516,0.0464 0.60763,0.0722 0.59685,0.0977 0.29338,0.0582 0.2895,0.0644 0.28522,0.0705 0.28057,0.0765 0.27551,0.0823 0.27012,0.0881 0.26436,0.0937 0.25824,0.0993 0.25176,0.10466 0.24497,0.1099 0.23782,0.11502 0.23038,0.11997 0.22261,0.12475 0.21456,0.12937 0.20623,0.13381 0.19759,0.13809 0.18871,0.14217 0.17957,0.14607 0.17019,0.14975 0.16059,0.15326 0.15077,0.15653 0.14074,0.15963 0.13059,0.16246 0.12004,0.1652 0.10965,0.16753 0.0989,0.16977 0.0882,0.1717 0.0771,0.17351 0.0662,0.17495 0.0549,0.17629 0.0437,0.17733 0.0325,0.17813 0.0211,0.1787 0.01,0.17902"
     id="path52"
     style="fill:none;stroke:#82b9ff;stroke-width:1.695" />
  <path
     d="m 332.61378,231.05825 0.0153,-0.23596 0.035,-0.23523 0.0546,-0.234 0.0741,-0.23219 0.0934,-0.22986 0.1125,-0.227 0.13133,-0.22361 0.14987,-0.21969 0.16806,-0.21525 0.18584,-0.21033 0.2032,-0.2049 0.22006,-0.199 0.23645,-0.19265 0.25229,-0.18584 0.2675,-0.1786 0.28211,-0.17094"
     id="path53"
     style="fill:none;stroke:#82b9ff;stroke-width:1.695" />
  <path
     d="m 449.16858,297.55317 0.22931,-0.30513 0.25302,-0.29882 0.2762,-0.2919 0.29883,-0.28436"
     id="path54"
     style="fill:none;stroke:#82b9ff;stroke-width:1.695" />
  <path
     d="m 332.09893,225.93327 0.28083,-0.15722 0.28907,-0.15216 0.29705,-0.14695 0.30475,-0.14161 0.31215,-0.13613 0.31925,-0.13052 0.32606,-0.12478 0.33256,-0.11894 0.33874,-0.11297 0.3446,-0.1069 0.35013,-0.10073 0.35534,-0.0945 0.3602,-0.0881 0.36472,-0.0817 0.36891,-0.0751 0.37273,-0.0686 0.37622,-0.0619 0.37933,-0.0552 0.3821,-0.0484 0.38449,-0.0416 0.38653,-0.0348 0.3882,-0.0279 0.3895,-0.021 0.39044,-0.014 0.391,-0.007 0.39119,-1.5e-4 0.39102,0.007 0.39046,0.0138 0.38955,0.0207 0.38827,0.0276 0.3866,0.0345 0.3846,0.0413 0.38221,0.0481 0.37945,0.0549 0.37636,0.0616 0.37289,0.0683 0.36909,0.0749 0.36491,0.0814 0.36042,0.0878 0.35555,0.0942 0.35037,0.10046 0.34485,0.10663 0.339,0.1127 0.33283,0.11869 0.32634,0.12454 0.31955,0.13027 0.31246,0.13589 0.30506,0.14139 0.29739,0.14673 0.28944,0.15194 0.2812,0.15701 0.27269,0.16193 0.26394,0.16671 0.25494,0.17131 0.24568,0.17575 0.23621,0.18003 0.22649,0.18415 0.21659,0.18808 0.20646,0.19184 0.19612,0.19542 0.18564,0.1988 0.17495,0.202 0.16409,0.20503 0.15322,0.20776"
     id="path55"
     style="fill:none;stroke:#82b9ff;stroke-width:1.695" />
  <path
     d="m 329.31419,228.3552 0.12312,-0.16852 0.13033,-0.16669 0.28207,-0.3275 0.30998,-0.31898 0.33711,-0.30967 0.36341,-0.29959 0.38882,-0.28876 0.41325,-0.27723 0.43665,-0.26499"
     id="path56"
     style="fill:none;stroke:#82b9ff;stroke-width:1.695" />
</svg>
