<?xml version="1.0" encoding="UTF-8" standalone="no"?>
<svg
   width="730.0"
   height="416.0"
   version="1.1"
   id="svg82"
   sodipodi:docname="washing-machine-foot.svg"
   inkscape:version="1.3.2 (091e20ef0f, 2023-11-25, custom)"
   xmlns:inkscape="http://www.inkscape.org/namespaces/inkscape"
   xmlns:sodipodi="http://sodipodi.sourceforge.net/DTD/sodipodi-0.dtd"
   xmlns="http://www.w3.org/2000/svg"
   xmlns:svg="http://www.w3.org/2000/svg">
  <defs
     id="defs82" />
  <sodipodi:namedview
     id="namedview82"
     pagecolor="#ffffff"
     bordercolor="#000000"
     borderopacity="0.25"
     inkscape:showpageshadow="2"
     inkscape:pageopacity="0.0"
     inkscape:pagecheckerboard="0"
     inkscape:deskcolor="#d1d1d1"
     inkscape:zoom="1.4548964"
     inkscape:cx="336.1064"
     inkscape:cy="223.3836"
     inkscape:window-width="2556"
     inkscape:window-height="1436"
     inkscape:window-x="0"
     inkscape:window-y="0"
     inkscape:window-maximized="0"
     inkscape:current-layer="svg82" />
  <g
     transform="matrix(3.3998578,5.8887264,5.8887264,-3.3998578,362.88757,224.93703)"
     stroke-width="0.5"
     fill="none"
     id="g82">
    <!-- hidden lines -->
    <g
       stroke="#0000ff"
       fill="none"
       stroke-dasharray="0.5, 0.5"
       id="g1" />
    <!-- solid lines -->
    <g
       stroke="#82b9ff"
       fill="none"
       id="g81">
      <path
         d="m 8.2731493,5.1847533 -0.00714,0.2818741 -0.013267,0.2765522 -0.019383,0.2711409 -0.025488,0.2656323 -0.031577,0.2600201 -0.037641,0.254299 -0.043672,0.2484659 -0.04966,0.2425185 -0.055595,0.2364569 -0.061465,0.230282 -0.067261,0.2239972 -0.07297,0.2176067 L 7.7094463,8.4047155 7.6253591,8.6092492 7.5358852,8.8071163 7.4411514,8.9982426 7.3412937,9.1825642 7.2364555,9.3600289 7.1267872,9.5305964 7.0124453,9.6942388 6.8935911,9.850941 l -0.1232014,0.14976 -0.1273804,0.142828 -0.1313897,0.135919 -0.1352282,0.129047 -0.1388962,0.122219 -0.142395,0.115452 -0.1457265,0.10875 -0.1488934,0.102127 -0.1518997,0.09559 -0.1547495,0.08914 -0.1574476,0.08279"
         id="path1" />
      <path
         d="m -8.8259697,-8.9504998 0.076016,-0.047974 0.077374,-0.045826 0.078727,-0.043652 0.080076,-0.041449 0.081422,-0.039218 0.082763,-0.036959 0.084099,-0.034671 0.085431,-0.032354 0.096592,-0.033295 0.097882,-0.03038 0.099135,-0.027488 0.1003511,-0.024619 0.1015312,-0.021773 0.1026759,-0.01895 0.103786,-0.016148 0.1048624,-0.013368 0.1059056,-0.010608 0.1069162,-0.00787 0.107895,-0.00515 0.1088426,-0.00245 0.1097594,2.331e-4 0.1106462,0.0029 0.1115033,0.00554 0.1123314,0.00817 0.113131,0.010789 0.1139023,0.013389 0.1146462,0.015974 0.1153627,0.018545 0.1160523,0.021103 0.1167155,0.023649 0.1173525,0.026184 0.1179636,0.028707 0.1185493,0.031221 0.1191097,0.033725 0.1196449,0.03622 0.1201554,0.038708 0.1206412,0.041188 0.1211026,0.043661 0.1215395,0.046129 0.1219523,0.048592 0.1223408,0.05105 0.1227052,0.053504 0.1230456,0.055955 0.1233618,0.058402 0.123654,0.060849 0.1239219,0.063293 0.1241655,0.065736 0.1243848,0.068179 0.1245796,0.070621 0.1247497,0.073064 0.1248948,0.075508 0.1250149,0.077952 0.1251096,0.080398 0.1251786,0.082846 0.1252217,0.085296 0.1252384,0.087748 0.1252284,0.090203 0.1251915,0.092659 0.1251268,0.095119 0.1250344,0.097581 0.1249133,0.1000453 0.1247634,0.1025122 0.1245838,0.1049816 0.1243742,0.107453 0.1241338,0.1099264 0.1238619,0.1124013 0.1235582,0.1148775 0.1232215,0.1173544 0.1228515,0.1198317 0.12244703,0.1223086 0.12200765,0.1247846 0.12153231,0.1272591 0.24077274,0.2606523 0.23704441,0.2677433 0.23317123,0.2744643 0.22916077,0.2808344 0.22501911,0.2868721 0.2207509,0.2925946 0.21635945,0.298018 0.2118468,0.3031575 0.2072138,0.3080267 0.2024602,0.3126387 0.1975845,0.3170045 0.1925846,0.3211348 0.1874572,0.3250383 0.1821981,0.3287229 0.1768029,0.3321948 0.1712658,0.3354592 0.1655809,0.33851978 0.1597415,0.3413789 0.1537406,0.34403739 0.1475708,0.34649474 0.1412245,0.34874897 0.1346936,0.35079656 0.12797,0.35263256 0.1210455,0.3542503 0.1139121,0.3556418 0.1065615,0.3567973 0.098986,0.3577055 0.091177,0.3583534 0.042586,0.1793343 0.040543,0.179392 0.038469,0.1794127 0.036363,0.1793953 0.034226,0.1793387 0.032056,0.1792416 0.029854,0.1791028 0.027618,0.1789208 0.025366,0.1783284 0.02314,0.1773325 0.020931,0.1763086 0.018739,0.175258 0.016564,0.1741816 0.014404,0.1730804 0.01226,0.1719553 0.01013,0.170807 0.00802,0.1696364 0.00592,0.1684441 0.00383,0.1672308 0.00176,0.1659968 -3.041e-4,0.1647429 -0.00235,0.1634694 -0.00439,0.1621765 -0.00641,0.1608649 -0.00843,0.1595346 -0.010434,0.1581857 -0.012429,0.1568187 -0.014416,0.1554334 -0.016394,0.1540299 -0.018364,0.1526084 -0.020327,0.1511685 -0.022284,0.1497105 -0.024235,0.1482339 -0.02618,0.1467388 -0.028121,0.1452248 -0.030057,0.1436917 -0.03199,0.1421392 -0.033919,0.1405669 -0.035846,0.1389744 -0.037771,0.1373615 -0.039694,0.1357274 -0.041616,0.1340719 -0.043538,0.1323944 -0.04546,0.1306943 -0.047381,0.1289707 -0.049304,0.127224 -0.051228,0.125453 -0.053153,0.123656 -0.05508,0.121834 -0.057009,0.119986 -0.058941,0.11811 -0.060876,0.116206 -0.062814,0.114274 -0.064755,0.112312 -0.0667,0.110321 -0.068648,0.108298 -0.0706,0.106243 -0.072556,0.104156 -0.074515,0.102036 -0.076479,0.09988 -0.078446,0.09769 -0.080417,0.09546 -0.082392,0.0932 -0.08437,0.0909 -0.086351,0.08856 -0.088335,0.08618 -0.090321,0.08376 -0.09231,0.0813 -0.094301,0.0788 -0.096292,0.07625 -0.098285,0.07366 -0.1002777,0.07103 -0.1329951,0.08819 -0.1354075,0.08324 -0.1377397,0.07834 -0.139995,0.07347"
         id="path2" />
      <path
         d="m -12.366559,-6.8896313 0.136139,-0.08485 0.139842,-0.078099 0.143422,-0.071385 0.146881,-0.064704 0.150224,-0.058052 0.153453,-0.051427 0.156572,-0.044823 0.159584,-0.038238 0.162493,-0.031667 0.165299,-0.025106 0.168009,-0.01855 0.17062,-0.011994 0.173138,-0.00543 0.175563,0.00113 0.1778967,0.00771 0.1801414,0.014313 0.1822969,0.020933 0.1843646,0.02758 0.1863446,0.034258 0.1882372,0.04097 0.1900422,0.047719 0.1917592,0.054511 0.1933871,0.061348 0.1949251,0.068232 0.1963714,0.075166 0.1977242,0.082153 0.1989813,0.089194 0.2001402,0.096291 0.2011976,0.1034439 0.2021503,0.1106532 0.2029945,0.1179188 0.2037258,0.1252399 0.2043398,0.132615 0.2047811,0.1399866 0.2043322,0.1464946 0.2035093,0.1525471 0.2025773,0.1584178 0.2015408,0.164114 0.2004035,0.1696426 0.1991686,0.1750105 0.1978392,0.1802243 0.1964178,0.1852905 0.1949063,0.1902154 0.1933065,0.1950049 0.1916195,0.1996648 0.1898463,0.2042005 0.1879873,0.2086175 0.1860428,0.2129205 0.1840125,0.217114 0.181896,0.2212026 0.1796923,0.2251899 0.1774007,0.2290798 0.1750195,0.2328753 0.1725473,0.2365793 0.1699819,0.2401941 0.1673217,0.2437219 0.164564,0.2471641 0.1617064,0.2505217 0.1587462,0.25379569 0.1556806,0.25698588 0.1525064,0.26009208 0.1492207,0.26311341 0.1458199,0.26604847 0.14230081,0.26889532 0.13865978,0.27165146 0.13489329,0.27431382 0.13099765,0.27687867 0.12696916,0.2793419 0.12280404,0.2816985 0.11849852,0.2839428 0.11404882,0.2860687 0.10945113,0.2880695 0.1047017,0.2899375 0.099768,0.2914597 0.0945332,0.2913449 0.0892766,0.2907784 0.0840488,0.2900641 0.0788488,0.2892094 0.0736758,0.2882214 0.068528,0.2871059 0.0634038,0.285869 0.0583009,0.284515 0.0532171,0.2830487 0.0481497,0.2814733 0.043096,0.2797923 0.038053,0.2780078 0.033017,0.276122 0.027986,0.2741363 0.022955,0.2720512 0.017921,0.2698674 0.012882,0.2675845 0.00783,0.2652021 0.00277,0.2627188 -0.00231,0.2601333 -0.00741,0.2574432 -0.012537,0.2546466 -0.01769,0.2517403 -0.022873,0.2487211 -0.028089,0.2455858 -0.033343,0.24233 -0.038636,0.238949 -0.043971,0.235439 -0.0493505,0.231795 -0.0547762,0.228011 -0.0602498,0.224084 -0.0657728,0.220004 -0.0713461,0.215768 -0.0769706,0.21137 -0.0826464,0.206802 -0.0883733,0.202058 -0.0941507,0.19713 -0.0999776,0.192015 -0.1058523,0.1867 -0.11157877,0.180983 -0.11647761,0.174339 -0.12115522,0.167623 -0.12569715,0.160929 -0.13010931,0.15426 -0.13439746,0.147615 -0.13856723,0.140997 -0.1426241,0.134401 -0.14657335,0.127832 -0.1504201,0.121283 -0.1541692,0.114757 -0.1578256,0.108249 -0.1613934,0.101758 -0.1648771,0.09528 -0.1682806,0.08881"
         id="path3" />
      <path
         d="m -15.77929,-4.9005655 0.13526,-0.08425 0.138875,-0.078009 0.142413,-0.071724 0.145877,-0.065389 0.14927,-0.059002 0.152593,-0.052557 0.155847,-0.046049 0.159034,-0.039475 0.162154,-0.03283 0.165208,-0.02611 0.168198,-0.01931 0.171122,-0.012426 0.17398,-0.00546 0.176772,0.0016 0.179496,0.00876 0.182152,0.016011 0.184737,0.023362 0.187248,0.030814 0.189684,0.03837 0.19204,0.04603 0.194315,0.053796 0.196501,0.061667 0.198113,0.069294 0.199005,0.076422 0.199757,0.08339 0.20038,0.090204 0.200876,0.09687 0.201248,0.103393 0.201503,0.1097798 0.201644,0.1160359 0.201671,0.122167 0.201591,0.128179 0.2014037,0.1340774 0.2011116,0.1398675 0.2007169,0.1455551 0.2002204,0.1511451 0.1996236,0.1566428 0.1989266,0.1620529 0.19813,0.16738 0.197234,0.1726288 0.196238,0.1778032 0.1951416,0.1829069 0.193944,0.1879437 0.1926439,0.1929166 0.1912399,0.1978286 0.1897305,0.2026819 0.1881137,0.2074787 0.1863873,0.2122206 0.1845489,0.2169086 0.182596,0.22154358 0.1805255,0.22612548 0.1783346,0.2306541 0.17602,0.23512847 0.173578,0.23954715 0.1710052,0.24390805 0.1682978,0.24820849 0.1654516,0.25244515 0.1624628,0.25661403 0.1593266,0.2607105 0.1560391,0.2647291 0.1525952,0.2686637 0.1489863,0.2724943 0.144864,0.2750482 0.140463,0.2766796 0.1360482,0.2781321 0.1316209,0.2794141 0.1271818,0.2805336 0.1227307,0.2814977 0.1182678,0.2823133 0.113792,0.2829861 0.1093025,0.2835222 0.1047982,0.2839262 0.100277,0.2842027 0.095737,0.2843556 0.091177,0.2843883 0.086593,0.2843034 0.081984,0.2841037 0.077345,0.2837906 0.072675,0.2833656 0.06797,0.2828295 0.063228,0.2821825 0.058443,0.2814247 0.053614,0.2805552 0.048737,0.2795731 0.043808,0.2784766 0.038825,0.2772639 0.033783,0.2759325 0.028679,0.2744793 0.02351,0.2729011 0.018273,0.2711943 0.012965,0.2693546 0.00758,0.267377 0.00212,0.265257 -0.00341,0.262989 -0.00903,0.260568 -0.014732,0.257986 -0.020519,0.255238 -0.026391,0.252316 -0.03235,0.249215 -0.038396,0.245924 -0.044531,0.242438 -0.050723,0.238682 -0.056459,0.233691 -0.061916,0.228265 -0.067256,0.222807 -0.072483,0.21732 -0.077602,0.211808 -0.082618,0.206273 -0.087536,0.200715 -0.09236,0.195138 -0.097096,0.189539 -0.1017474,0.183922 -0.1063196,0.178284 -0.1108169,0.172622 -0.1152436,0.16694 -0.1196039,0.16123 -0.1239021,0.155494 -0.1281418,0.149726 -0.1323268,0.143925 -0.1364608,0.138088 -0.1405467,0.132209 -0.1445877,0.126286 -0.1485865,0.120314 -0.1525456,0.114289 -0.156467,0.108206 -0.1603526,0.10206 -0.1642039,0.09585 -0.1680218,0.08956"
         id="path4" />
      <path
         d="m -19.190611,-2.9526544 0.08698,-0.054651 0.08862,-0.051964 0.09025,-0.049243 0.09188,-0.046489 0.09349,-0.043702 0.0951,-0.040879 0.0967,-0.038021 0.09828,-0.035126 0.09986,-0.032195 0.101424,-0.029226 0.102981,-0.026219 0.104526,-0.023175 0.10606,-0.02009 0.107581,-0.016967 0.109092,-0.013804 0.110589,-0.0106 0.108394,-0.00723 0.109383,-0.00429 0.110335,-0.00138 0.111251,0.00151 0.112131,0.00436 0.112977,0.00718 0.113788,0.00998 0.114565,0.01275 0.115312,0.015493 0.116024,0.018212 0.116707,0.020905 0.117358,0.023575 0.117979,0.026221 0.118571,0.028844 0.119133,0.031445 0.119667,0.034025 0.120172,0.036585 0.12065,0.039125 0.1211,0.041646 0.121523,0.044148 0.12192,0.046634 0.12229,0.049102 0.122634,0.051555 0.122952,0.053993 0.123245,0.056415 0.123512,0.058825 0.123755,0.061221 0.12397,0.063605 0.248493,0.1343153 0.249061,0.1437201 0.249431,0.1530501 0.249602,0.162315 0.249573,0.1715233 0.249342,0.180683 0.248906,0.1898008 0.24826,0.1988826 0.247402,0.2079328 0.246324,0.21695425 0.245021,0.22594909 0.243485,0.23491726 0.241709,0.2438573 0.239683,0.25276596 0.237397,0.26163812 0.234844,0.27046668 0.232007,0.27924247 0.2288797,0.28795407 0.2247925,0.295215 0.2198775,0.300818 0.2148572,0.3060541 0.2097372,0.3109429 0.204522,0.3155032 0.1992144,0.3197519 0.1938162,0.323705 0.1883277,0.3273771 0.1827481,0.330781 0.1770758,0.3339288 0.171308,0.3368308 0.1654409,0.3394961 0.1594702,0.3419323 0.1533906,0.3441458 0.1471963,0.3461413 0.1408808,0.3479225 0.1344375,0.3494912 0.1278587,0.3508484 0.121137,0.3519931 0.1142647,0.352923 0.1072336,0.3536346 0.1000357,0.3541228 0.092663,0.3543811 0.085107,0.3544012 0.077361,0.3541738 0.069417,0.3536881 0.061268,0.3529311 0.027512,0.176093 0.025395,0.175796 0.02325,0.175461 0.021077,0.175087 0.018876,0.174671 0.016647,0.174216 0.014389,0.173718 0.012102,0.173175 0.00979,0.172587 0.00744,0.171954 0.00779,0.319853 -6.98e-5,0.314822 -0.00779,0.309656 -0.015367,0.304364 -0.022822,0.298958 -0.030157,0.293442 -0.037378,0.287824 -0.044493,0.282107 -0.051511,0.276294 -0.058438,0.270388 -0.03179,0.13295 -0.033492,0.131439 -0.035184,0.129915 -0.036867,0.128379 -0.038543,0.126832 -0.04021,0.125273 -0.04187,0.1237 -0.043524,0.122116 -0.045171,0.120518 -0.046812,0.118908 -0.048448,0.117283 -0.050078,0.115644 -0.051704,0.113992 -0.053325,0.112325 -0.054943,0.110643 -0.056557,0.108945 -0.058168,0.107231 -0.059776,0.105501 -0.061381,0.103755 -0.062984,0.10199 -0.064586,0.100208 -0.066185,0.09841 -0.067783,0.09659 -0.06938,0.09475 -0.070976,0.09289 -0.072571,0.09101 -0.074165,0.08911 -0.075759,0.08718 -0.077352,0.08524 -0.078945,0.08327 -0.080538,0.08128 -0.08213,0.07926 -0.083722,0.07722 -0.085313,0.07515 -0.086904,0.07306 -0.088494,0.07094 -0.090084,0.06879 -0.091673,0.06662 -0.093261,0.06441 -0.094848,0.06218 -0.096433,0.05992 -0.098016,0.05762 -0.099596,0.05529 -0.1011746,0.05294"
         id="path5" />
      <path
         d="m -8.8975133,19.179697 -0.090414,0.04465 -0.091633,0.04277 -0.09285,0.04087 -0.094063,0.03895"
         id="path6" />
      <path
         d="m -23.10071,-0.64303506 0.07957,-0.0669268 0.0816,-0.0640439 0.08362,-0.0611059 0.08564,-0.0581116 0.0024,-0.001573"
         id="path7" />
      <path
         d="m -22.767866,-0.89479584 0.08529,-0.0533994 0.08681,-0.0503459 0.0883,-0.0473224 0.08973,-0.04433 0.09112,-0.041368 0.09247,-0.038438 0.09377,-0.03554 0.09504,-0.032674 0.09626,-0.02984 0.09745,-0.027037 0.0986,-0.024266 0.09971,-0.021527 0.100777,-0.018819 0.101814,-0.016142 0.102817,-0.013496 0.103785,-0.010879 0.104721,-0.00829 0.105624,-0.00573 0.106496,-0.0032 0.107336,-7.022e-4 0.108148,0.00177 0.108929,0.00422 0.109681,0.00665 0.110407,0.00904 0.111103,0.01142 0.111774,0.013772 0.112417,0.016101 0.113035,0.018409 0.113628,0.020697 0.114196,0.022964 0.114738,0.025213 0.115258,0.027443 0.115753,0.029656 0.116224,0.031853 0.233773,0.070233 0.235386,0.07884 0.236822,0.0873441 0.238084,0.095756 0.239173,0.10408741 0.240091,0.11234941 0.24084,0.12055244 0.241418,0.12870639 0.241826,0.13682069 0.242064,0.14490435 0.24213,0.15296607 0.242023,0.16101427 0.24174,0.16905725 0.241282,0.17710342 0.240646,0.1851613 0.23804,0.19498622 0.237496,0.20369522 0.236766,0.2125146 0.235837,0.2214359 0.234696,0.2304507 0.233326,0.2395479 0.231709,0.2487139 0.229826,0.2579304 0.227656,0.2671752 0.22518,0.2764218 0.222382,0.2856387 0.110035,0.146257 0.109205,0.1485343 0.108331,0.1507975 0.107411,0.1530441 0.106445,0.1552716 0.105429,0.1574775 0.104369,0.159659 0.103257,0.1618135 0.1021,0.1639383 0.100892,0.1660312 0.09964,0.1680892 0.09833,0.1701102 0.09698,0.1720917 0.09558,0.1740315 0.09413,0.1759275 0.09264,0.1777777 0.0911,0.1795802 0.08951,0.1813337 0.08788,0.1830363 0.08621,0.1846871 0.08449,0.186285 0.08274,0.1878291 0.08095,0.1893188 0.07912,0.190754 0.07725,0.1921344 0.07536,0.1934603 0.07343,0.194732 0.07147,0.1959502 0.06949,0.1971159 0.06748,0.1982302 0.06544,0.1992943 0.06339,0.2003099 0.06132,0.201279 0.05923,0.2022032 0.05713,0.2030848 0.055012,0.2039261 0.052886,0.2047298 0.050751,0.205497 0.048607,0.206232 0.046457,0.206936 0.044301,0.207611 0.04214,0.208262"
         id="path8" />
      <path
         d="m 8.1538251,5.0903459 0.1193242,0.094407"
         id="path9" />
      <path
         d="M 6.7528698,5.8991878 6.7514368,5.7182993 6.7471383,5.5358172 6.7399758,5.3518032 6.7299517,5.1663194 6.7170693,4.9794285 6.7013331,4.7911936 6.6827483,4.6016782 6.6613212,4.4109464 6.6370591,4.2190626 6.6099701,4.0260916 6.5800634,3.8320986 6.5473491,3.6371491 6.5118382,3.4413089 6.4735428,3.2446443 6.4324758,3.0472215 6.388651,2.8491074 6.3420833,2.6503688 6.2927883,2.4510729 6.2407827,2.2512869 6.1860842,2.0510783 6.1287111,1.8505148 6.0686828,1.6496641 6.0060197,1.448594 5.9407429,1.2473725 5.8728744,1.0460675 5.8024371,0.84474706 5.7294549,0.64347909 5.6539524,0.44233161 5.5759551,0.24137256 5.4954893,0.04066981 5.4125822,-0.15970885 5.3272619,-0.35969574 5.2395571,-0.55922331 5.1494975,-0.75822417 5.0571134,-0.9566311 4.9624361,-1.1543771 4.8654976,-1.3513954 4.7663306,-1.5476194 4.6649686,-1.7429828 4.5614458,-1.9374197 4.4557973,-2.1308644 4.3480586,-2.3232516 4.2382662,-2.5145162 4.1264571,-2.7045937 4.0126692,-2.8934199 3.8969408,-3.080931 3.779311,-3.2670636 3.6598197,-3.451755 3.538507,-3.6349426 3.4154141,-3.8165647 3.2905825,-3.9965599 3.1640542,-4.1748674 3.0358722,-4.351427 2.9060797,-4.526179 2.7747204,-4.6990644 2.6418389,-4.8700249 2.5074799,-5.0390026 2.3716888,-5.2059405 2.2345116,-5.3707823 2.0959945,-5.5334722 1.9561843,-5.6939553 1.8151282,-5.8521775 1.672874,-6.0080851 1.5294696,-6.1616257 1.3849635,-6.3127473 1.2394044,-6.4613988 1.0928416,-6.6075302 0.94532455,-6.751092 0.79690307,-6.8920357 0.64762729,-7.0303138 0.49754763,-7.1658795 0.34671479,-7.298687 0.19517971,-7.4286915 0.04299357,-7.5558491 -0.10979223,-7.6801168 -0.26312608,-7.8014527 -0.4169562,-7.9198157 -0.57123062,-8.0351659 -0.72589724,-8.1474644 -0.88090381,-8.2566731 -1.036198,-8.3627553 -1.1917273,-8.465675 -1.3474393,-8.565398 -1.5032813,-8.66189 -1.6592006,-8.755118 -1.8151447,-8.845051 -1.9710609,-8.931659 -2.1268964,-9.014912 -2.2825987,-9.094783 -2.4381152,-9.171244 -2.5933933,-9.24427 -2.7483806,-9.313835 -2.9030248,-9.379917 -3.0572736,-9.442493 -3.2110749,-9.501542 -3.3643768,-9.557044 -3.5171274,-9.60898 l -0.1521479,-0.048353 -0.1514936,-0.044753 -0.1507884,-0.041138 -0.150032,-0.037509 -0.149225,-0.033868 -0.1483677,-0.030215 -0.1474602,-0.026552 -0.146503,-0.02288 -0.1454961,-0.019201 -0.1444403,-0.015514 -0.1433355,-0.011823 -0.1421825,-0.00813 -0.1409813,-0.00443 -0.1397326,-7.299e-4 -0.1384366,0.00297 -0.1370939,0.00667 -0.1357049,0.010366 -0.1342701,0.014059 -0.1327899,0.017747 -0.1312648,0.021429 -0.1296955,0.025105 -0.1280823,0.028771 -0.1264258,0.032428 -0.1247267,0.036074 -0.1229854,0.039708 -0.1212026,0.043328 -0.1193788,0.046934 -0.1175148,0.050524 -0.115611,0.054097 -0.1136682,0.057652 -0.111687,0.061187"
         id="path10" />
      <path
         d="M 7.4025241,5.5241097 8.1538251,5.0903459"
         id="path11" />
      <path
         d="m 10.288404,3.8579463 -0.0014,-0.1811783 -0.0043,-0.1827769 -0.0072,-0.1843136 -0.01006,-0.1857877 -0.01292,-0.187199 -0.01579,-0.1885467 -0.01864,-0.1898307 -0.0215,-0.1910503 -0.02434,-0.1922051 -0.02717,-0.1932948 -0.03,-0.1943191 L 10.082229,1.5921666 10.046606,1.3959969 10.00819,1.1990015 9.9669931,1.001247 9.9230303,0.80280058 9.8763162,0.60372937 9.8268665,0.40410085 9.7746981,0.20398267 9.7198287,0.00344264 9.6622768,-0.1974513 9.6020619,-0.39863108 9.5392045,-0.60002853 9.4737258,-0.8015754 9.405648,-1.0032034 9.3349942,-1.2048442 9.2617884,-1.4064296 9.1860552,-1.6078911 9.1078205,-1.8091605 9.0271107,-2.0101697 8.9439531,-2.2108505 8.8583759,-2.4111349 8.7704082,-2.6109551 8.6800797,-2.8102433 8.587421,-3.0089321 8.4924636,-3.206954 8.3952395,-3.4042421 8.2957818,-3.6007294 8.1941242,-3.7963495 8.0903011,-3.9910359 7.9843476,-4.1847227 7.8762997,-4.3773443 7.766194,-4.5688355 7.6540678,-4.7591314 7.5399591,-4.9481674 7.4239066,-5.1358795 7.3059495,-5.3222041 7.1861278,-5.5070782 7.0644822,-5.6904389 6.9410539,-5.8722243 6.8158846,-6.0523727 6.6890168,-6.2308231 6.5604935,-6.407515 6.4303583,-6.5823885 6.2986551,-6.7553844 6.1654287,-6.9264441 6.0307242,-7.0955096 5.8945873,-7.2625236 5.757064,-7.4274295 5.6182009,-7.5901715 5.4780452,-7.7506944 5.3366443,-7.9089439 5.1940461,-8.0648662 5.0502989,-8.2184086 4.9054515,-8.3695191 4.7595528,-8.5181464 4.6126525,-8.6642401 4.4648001,-8.8077509 4.3160459,-8.94863 4.1664402,-9.0868297 4.0160338,-9.2223032 3.8648775,-9.3550046 3.7130226,-9.484889 3.5605206,-9.6119122 3.4074231,-9.7360313 3.253782,-9.8572043 3.0996494,-9.97539 2.9450775,-10.090548 2.7901186,-10.20264 2.6348253,-10.311628 2.4792502,-10.417475 2.323446,-10.520144 l -0.1559805,-0.09946 -0.156104,-0.09621 -0.1561745,-0.09293 -0.1561922,-0.08962 -0.1561568,-0.08629 -0.1560687,-0.08291 -0.1559276,-0.07952 -0.1557337,-0.07609 -0.15548707,-0.07264 -0.15518766,-0.06917 -0.15483572,-0.06567 -0.1544313,-0.06215 -0.15397457,-0.05861 -0.15346566,-0.05505 -0.15290476,-0.05147 -0.15229203,-0.04787 -0.15162771,-0.04426 -0.15091202,-0.04063 -0.15014519,-0.03698 -0.14932747,-0.03333 -0.14845918,-0.02966 -0.14754056,-0.02599 -0.146572,-0.0223 -0.1455537,-0.01861 -0.1444861,-0.01491 -0.1433696,-0.01121 -0.1422044,-0.0075 -0.1409912,-0.0038 -0.1397301,-7.7e-5 -0.1384217,0.0036 -0.1370663,0.0073 -0.1356646,0.01105 -0.1342168,0.01476 -0.1327236,0.01846 -0.1311855,0.02215 -0.1296028,0.02583 -0.1279763,0.02951 -0.1263063,0.03318 -0.1245937,0.03683 -0.1228387,0.04048 -0.1210422,0.0441 -0.1192046,0.04772 -0.1173266,0.05132 -0.115409,0.0549 -0.1134521,0.05846 -0.1114569,0.062"
         id="path12" />
      <path
         d="M 7.8031223,9.3512717 7.9485626,9.2631284 8.0903011,9.1687783 8.2282524,9.0682782 8.3623335,8.9616886 8.4924636,8.8490737 8.6185642,8.7305014 8.7405595,8.6060431 8.8583759,8.4757738 8.9719425,8.3397719 9.0811909,8.1981193 9.1860552,8.0509014 9.2864724,7.8982069 l 0.095909,-0.1580792 0.091344,-0.1633686 0.086723,-0.1685596 0.082051,-0.1736492 0.077329,-0.1786341 0.07256,-0.1835113 0.067747,-0.1882781 0.062894,-0.1929315 0.058003,-0.1974686 0.053077,-0.2018868 0.04812,-0.2061834 0.04313,-0.2103557 0.03812,-0.2144014 0.03308,-0.2183179 0.02803,-0.222103 0.02296,-0.2257542 0.01787,-0.2292694 0.01277,-0.2326465 0.0077,-0.2358836 0.0026,-0.2389785"
         id="path13" />
      <path
         d="m 3.1343108,11.83622 0.1505039,-0.03763 0.148115,-0.04277 0.1456556,-0.04789 0.1431269,-0.05299 0.1405301,-0.05807 0.1378662,-0.06311 0.1351368,-0.06813 0.1323431,-0.07311"
         id="path14" />
      <path
         d="m 4.2675884,11.392513 0.1454403,-0.08814 0.1417385,-0.09435 0.1379513,-0.1005 0.1340811,-0.10659 0.13013,-0.112615 0.1261007,-0.118572 0.1219953,-0.124458 0.1178164,-0.13027 0.1135666,-0.136002 0.1092484,-0.141652 0.1048643,-0.147218 0.1004172,-0.1526946 0.095909,-0.1580792 0.091344,-0.1633686 0.086724,-0.1685597 0.082051,-0.1736491 0.077329,-0.1786341 0.07256,-0.1835114 0.067748,-0.1882781 0.062894,-0.1929315 0.058003,-0.1974686 0.053077,-0.2018867 0.048119,-0.2061834 0.043132,-0.2103557 0.038119,-0.2144015 0.033083,-0.2183179 0.028027,-0.2221029 0.022954,-0.2257542 0.017868,-0.2292694 0.01277,-0.2326466 0.00767,-0.2358835 0.00256,-0.2389785"
         id="path15" />
      <path
         d="m 4.8083261,4.776505 -0.00183,0.1778021 -0.0055,0.1755842 -0.00917,0.1732678 -0.012827,0.1708542 -0.016479,0.1683447 -0.020122,0.1657408 -0.023754,0.163044 -0.027372,0.1602557"
         id="path16" />
      <path
         d="m 0.46938077,-4.8403943 0.1177121,0.1180273 0.11685892,0.1201321 0.11596276,0.122193 0.11502395,0.1242087 0.1140428,0.1261787 0.1130198,0.1281025 0.1119551,0.1299791 0.1108493,0.1318078 0.1097027,0.1335881 0.1085157,0.1353192 0.2133114,0.2756321 0.2080906,0.2819514 0.2025637,0.287856 0.1967386,0.293337 0.1906243,0.2983865 0.1842295,0.302997 0.1775635,0.3071618 0.1706365,0.3108746 0.1634583,0.3141302 0.1560397,0.31692352 0.1483915,0.31925065 0.1405251,0.32110811 0.1324518,0.32249315 0.063137,0.16161776 0.061047,0.16178599 0.058934,0.1618947 0.056799,0.16194392 0.054644,0.1619334 0.052468,0.1618635 0.050273,0.161734 0.04806,0.161545 0.045829,0.1612966 0.043581,0.1609889 0.041317,0.1606219 0.039038,0.1601958 0.036745,0.1597109 0.034438,0.1591672 0.032118,0.1585649 0.029786,0.1579043 0.027444,0.1571857 0.025092,0.1564092 0.02273,0.1555752 0.02036,0.154684 0.017982,0.1537358 0.015598,0.1527311 0.013208,0.1516703 0.010813,0.1505536 0.00841,0.1493816 0.00601,0.1481547 0.00361,0.1468731 0.0012,0.1455377"
         id="path17" />
      <path
         d="m -6.6896332,-6.293291 0.083775,0.0051 0.084522,0.0072 0.085244,0.00931 0.085942,0.011416 0.1738706,0.029158 0.1763419,0.037587 0.1785925,0.045999 0.1806151,0.054379 0.1824053,0.062711 0.1839737,0.070989 0.1853244,0.079201 0.1864572,0.087337 0.1873731,0.095387 0.188073,0.10334 0.188559,0.1111874 0.1888336,0.1189197 0.1889158,0.1265392 0.1931653,0.1372226 0.197997,0.1489159 0.1993926,0.1584821 0.1981089,0.1660187 0.1948967,0.1717692 0.1905026,0.1761299 0.185658,0.1796403 0.1810639,0.1829646 0.1773801,0.1868776 0.1752245,0.1922605 0.175195,0.2001202 0.1759664,0.2092774 0.173757,0.2151648 0.1712186,0.2207199 0.1684808,0.2260871 0.1655404,0.2312539 0.16239474,0.2362075 0.15904259,0.2409355 0.15548371,0.2454249 0.15171895,0.2496632 0.14775021,0.2536378 0.14358052,0.25733655 0.1392139,0.26074703 0.13466116,0.26386887 0.12993804,0.26671261 0.12505278,0.26927583 0.1200138,0.27155653 0.1148298,0.27355336 0.10950973,0.27526572 0.10406267,0.2766935 0.0984978,0.2778378 0.0928242,0.2787 0.087051,0.2792826 0.081187,0.2795887 0.075242,0.2796225 0.06922,0.2793903 0.06314,0.2789108 0.057005,0.2781845 0.050816,0.2772062 0.04457,0.2759708 0.038265,0.2744729 0.031902,0.2727072 0.025478,0.2706803 0.018998,0.2684178 0.012468,0.2659082 0.00589,0.2631487 -7.21e-4,0.2601365 -0.00737,0.2568696 -0.01404,0.253345"
         id="path18" />
      <path
         d="m 1.6904146,6.5766321 -0.011535,0.1490443 -0.013909,0.1476506 -0.016284,0.146202 -0.018658,0.1446994 -0.021032,0.1431432 -0.023404,0.1415341 -0.025771,0.139873 -0.028135,0.1381606 -0.030492,0.1363975 -0.032843,0.1345848 -0.035185,0.1327232 -0.037518,0.1308136 -0.039841,0.128857 -0.042152,0.1268543 -0.04445,0.1248063 -0.046735,0.1227141"
         id="path19" />
      <path
         d="m -10.193039,-4.2954954 0.08468,0.00423 0.08541,0.0064 0.086111,0.00858 0.086789,0.010752 0.087441,0.012923 0.088067,0.015091 0.1779068,0.036671 0.1800984,0.04529 0.1820838,0.053859 0.1838652,0.062371 0.1854454,0.070815 0.1868278,0.079183 0.1880166,0.087469 0.1890162,0.095667 0.1898321,0.1037717 0.1904698,0.1117794 0.1909353,0.1196879 0.191232,0.1274945 0.1913261,0.1351818 0.1912016,0.1427506 0.1908612,0.1501973 0.1903065,0.157517 0.1895398,0.1647045 0.1885626,0.1717544 0.1873734,0.1786586 0.1859586,0.185398 0.1843181,0.1919639 0.1824538,0.198347 0.1803666,0.2045376 0.1780581,0.2105259 0.1755297,0.21630259 0.1727824,0.22185773 0.1698212,0.227184 0.1666521,0.23227422 0.163279,0.23712025 0.1597086,0.24171673 0.1559479,0.2460589 0.1520045,0.25014274 0.1478861,0.25396495 0.1436009,0.25752309 0.1391571,0.2608153 0.1345632,0.2638413 0.1298281,0.266601 0.1249621,0.2691003 0.1199741,0.2713413 0.1148716,0.2733278 0.1096622,0.2750653 0.1043529,0.2765593 0.098952,0.2778166 0.093447,0.2788109 0.087809,0.2795019 0.082059,0.2799398 0.076206,0.2801441 0.070246,0.280089 0.064183,0.2797681 0.058022,0.2791764 0.051767,0.2783099 0.045424,0.2771656 0.039001,0.2757412 0.032504,0.2740355 0.025942,0.2720476 0.019323,0.2697779 0.012656,0.2672269 0.00595,0.2643963 -7.856e-4,0.2612882 -0.00754,0.2579053 -0.014305,0.254251"
         id="path20" />
      <path
         d="m -1.7730463,8.5762621 -0.011379,0.1454877 -0.013647,0.1441237 -0.015912,0.1427105 -0.018174,0.1412486 -0.02043,0.139739 -0.022682,0.1381824 -0.024926,0.1365799 -0.027162,0.1349323 -0.02939,0.1332404 -0.031609,0.1315053 -0.033817,0.1297281 -0.036015,0.127909 -0.0382,0.12605 -0.040374,0.124151 -0.042534,0.122214 -0.04468,0.12024"
         id="path21" />
      <path
         d="m -13.663214,-2.2945672 0.160113,0.00977 0.162664,0.017502 0.16508,0.025214 0.167346,0.032903 0.16947,0.040564 0.171473,0.048198 0.173325,0.055796 0.174993,0.063351 0.176474,0.070864 0.177812,0.078345 0.179019,0.085801 0.180055,0.093212 0.180911,0.1005693 0.181581,0.107864 0.182058,0.1150863 0.18234,0.1222262 0.182419,0.1292726 0.182292,0.13621417 0.181956,0.14303921 0.181409,0.1497353 0.1806472,0.15628986 0.1799978,0.16299426 0.1824461,0.1727794 0.1850912,0.18327414 0.1868879,0.19346489 0.1877612,0.20317427 0.1876457,0.21220963 0.1864861,0.22036387 0.1842385,0.2274167 0.1808708,0.2331361 0.1763628,0.2372793 0.1707514,0.2396594 0.1662252,0.243296 0.1625009,0.2480228 0.1586033,0.2524918 0.1545492,0.2567162 0.150355,0.2607081 0.1460182,0.2644597 0.141517,0.2679439 0.1368287,0.271138 0.131966,0.2740698 0.1269817,0.276835 0.1218438,0.2793706 0.1165392,0.2816392 0.1110687,0.2836284 0.1054337,0.2853262 0.099638,0.2867214 0.093686,0.2878034 0.087583,0.2885625 0.081337,0.2889894 0.074956,0.2890762 0.068451,0.2888151 0.061834,0.2882107 0.055121,0.2872846 0.048323,0.2860378 0.041451,0.2844733 0.034516,0.2825956 0.027529,0.2804091 0.020501,0.2779189 0.013444,0.2751313 0.00637,0.2720527 -7.219e-4,0.2686906 -0.00781,0.265051 -0.014891,0.261144"
         id="path22" />
      <path
         d="m -5.2394947,10.577617 -0.011515,0.145459 -0.013759,0.144093 -0.015999,0.142678 -0.018235,0.141223 -0.020464,0.139729 -0.022689,0.138193 -0.024907,0.136616 -0.027119,0.134993 -0.029325,0.133324 -0.031524,0.131609 -0.033719,0.129847 -0.035908,0.128045 -0.038094,0.126213 -0.04028,0.124363 -0.042462,0.122475 -0.044639,0.120551"
         id="path23" />
      <path
         d="m -17.185118,-0.29488252 0.08415,0.00267 0.08494,0.004835 0.08571,0.007001 0.08645,0.009168 0.08718,0.011336 0.08789,0.0135073 0.08858,0.0156799 0.08924,0.0178531 0.180374,0.0422243 0.182712,0.0509064 0.184828,0.05956743 0.186716,0.06819464 0.188368,0.07677441 0.189778,0.08529228 0.190942,0.0937331 0.191852,0.10208111 0.192516,0.11032444 0.19294,0.11845634 0.193128,0.12646634 0.193085,0.13434416 0.192809,0.14208001 0.192307,0.14966466 0.191582,0.1570895 0.19064,0.164347 0.189484,0.1714298 0.188123,0.1783326 0.186572,0.1850613 0.184826,0.1915994 0.182889,0.1979423 0.180775,0.2040983 0.178503,0.2100742 0.176071,0.2158652 0.173466,0.2214558 0.170664,0.2268273 0.167656,0.2319734 0.164458,0.2369187 0.161081,0.2416652 0.15751,0.2461889 0.153748,0.2504803 0.149793,0.2545308 0.14565,0.258332 0.141318,0.2618762 0.136805,0.2651566 0.132113,0.2681662 0.127247,0.2708991 0.1222128,0.2733496 0.1170186,0.2755129 0.1116702,0.2773845 0.1061755,0.2789606 0.1005427,0.2802379 0.094781,0.2812137 0.088899,0.2818894 0.08291,0.282273 0.076822,0.2823616 0.070644,0.2821581 0.064387,0.2816663 0.05806,0.2808907 0.051671,0.2798368 0.04523,0.2785104 0.038745,0.276918 0.03222,0.275065 0.02567,0.272974 0.019095,0.270638 0.012492,0.268044 0.00586,0.265184 -8.058e-4,0.26206 -0.0075,0.258683 -0.01422,0.25507"
         id="path24" />
      <path
         d="m -8.7050713,12.578469 -0.015357,0.191769 -0.019275,0.189434 -0.023197,0.186989 -0.027121,0.184435 -0.031042,0.18177 -0.03496,0.179 -0.03887,0.17612 -0.042771,0.173135 -0.046658,0.170046 -0.050529,0.166852 -0.05438,0.163558 -0.058208,0.160164 -0.062011,0.156673 -0.065784,0.153086 -0.069524,0.149406 -0.073229,0.145637 -0.076894,0.141779 -0.080517,0.137838 -0.084095,0.133816 -0.087626,0.129717 -0.091107,0.125543 -0.094535,0.121299 -0.097909,0.116988 -0.101225,0.112612 -0.104482,0.108175 -0.107679,0.103681 -0.110814,0.09913 -0.113886,0.09453 -0.116893,0.08988 -0.119835,0.08519 -0.122711,0.08045 -0.125523,0.07567"
         id="path25" />
      <path
         d="m -22.036248,2.0416537 0.119288,-0.064452 0.123138,-0.057834 0.126892,-0.051153 0.130537,-0.044408 0.13407,-0.037601 0.137481,-0.030736 0.140766,-0.023815 0.143919,-0.016845 0.146932,-0.00983 0.149801,-0.00278 0.152517,0.0043 0.155079,0.011411 0.157477,0.018533 0.159709,0.025661 0.16177,0.032788 0.163654,0.039904 0.165356,0.046999 0.166875,0.054063 0.168205,0.061085 0.169346,0.068057 0.170295,0.074968 0.171053,0.081806 0.171617,0.088564 0.171991,0.095231 0.172173,0.1017972 0.172167,0.108254 0.171974,0.1145917 0.171594,0.1208015 0.171036,0.1268753 0.1703,0.1328056 0.169391,0.1385848 0.168316,0.1442062 0.175059,0.1569725 0.180536,0.1694536 0.180732,0.1774886 0.178913,0.1836157 0.176854,0.1894437 0.17467,0.1950731 0.172367,0.2005118 0.169957,0.2057656 0.167445,0.2108439 0.164856,0.2157759 0.162194,0.2205755 0.159464,0.2252576 0.15667,0.2298371 0.153812,0.2343296 0.150889,0.2387494 0.147898,0.2431091 0.144832,0.2474193 0.141681,0.2516873 0.138433,0.2559159 0.135074,0.2601041 0.131584,0.2642458 0.127946,0.26833 0.124139,0.2723411 0.120139,0.2762468 0.115915,0.2800013 0.111458,0.2835901 0.10675,0.2869837 0.101776,0.2901512 0.09653,0.2930617 0.09099,0.295687 0.08517,0.297995 0.07905,0.299962"
         id="path26" />
      <path
         d="m -13.57645,15.390961 -0.002,0.184212 -0.0059,0.181827 -0.0098,0.179332 -0.01377,0.176728 -0.01769,0.174019 -0.0216,0.171204 -0.0255,0.168287 -0.02938,0.165268 -0.03325,0.162149 -0.03709,0.158933 -0.04091,0.155621 -0.04471,0.152216 -0.04848,0.148718 -0.05222,0.145131 -0.05593,0.141456 -0.05961,0.137697 -0.06325,0.133855 -0.06685,0.129931 -0.07041,0.12593 -0.07393,0.121853 -0.0774,0.117702 -0.08083,0.113481 -0.08421,0.10919 -0.08754,0.104835 -0.09082,0.100416 -0.09404,0.09594 -0.0972,0.0914 -0.100308,0.08681 -0.103354,0.08216 -0.106338,0.07747 -0.109257,0.07273 -0.11211,0.06794"
         id="path27" />
      <path
         d="m -15.492188,19.625399 -0.114896,0.06312 -0.117613,0.05825 -0.120259,0.05336 -0.122832,0.04843 -0.125331,0.04347 -0.127756,0.03848 -0.130103,0.03347 -0.132371,0.02844 -0.13456,0.0234 -0.136668,0.01834 -0.138693,0.01326 -0.140636,0.0082 -0.142492,0.0031 -0.144264,-0.002 -0.145949,-0.0071 -0.147545,-0.01215 -0.149053,-0.01723 -0.150471,-0.02229 -0.151798,-0.02734 -0.153034,-0.03237 -0.154178,-0.03739 -0.155228,-0.04238 -0.156186,-0.04734 -0.157049,-0.05228 -0.157818,-0.05719 -0.158491,-0.06206 -0.15907,-0.06689 -0.159552,-0.07169 -0.159937,-0.07644 -0.160228,-0.08114 -0.160421,-0.0858 -0.160518,-0.0904 -0.160518,-0.09495 -0.160421,-0.09944 -0.160227,-0.103874 -0.159938,-0.108244 -0.159552,-0.112549 -0.159069,-0.116785 -0.158492,-0.120952 -0.157818,-0.125045 -0.157049,-0.129063 -0.156186,-0.133004 -0.155228,-0.136864 -0.154178,-0.140642 -0.153034,-0.144335 -0.151798,-0.147942 -0.150471,-0.151458 -0.149053,-0.154885 -0.147545,-0.158217 -0.145949,-0.161454 -0.144264,-0.164595 -0.142492,-0.167635 -0.140636,-0.170576 -0.138693,-0.173412 -0.136668,-0.176145 -0.13456,-0.178772 -0.132371,-0.181291 -0.130103,-0.183701 -0.127755,-0.185999 -0.125332,-0.188187 -0.122832,-0.19026 -0.120259,-0.192219 -0.117613,-0.194063 -0.114896,-0.195789 -0.11211,-0.197398 -0.109257,-0.198887 -0.106337,-0.200257 -0.103355,-0.201505 -0.100308,-0.202634 -0.0972,-0.203639 -0.09404,-0.204523 -0.09082,-0.205282 -0.08754,-0.205918 -0.08421,-0.206431 -0.08083,-0.206818 -0.07741,-0.207082 -0.07393,-0.20722 -0.07041,-0.207233 -0.06685,-0.207123 -0.06325,-0.206886 -0.05961,-0.206526 -0.05593,-0.206041 -0.05222,-0.205432 -0.04848,-0.204699 -0.04471,-0.2038425 -0.04091,-0.2028639 -0.03709,-0.2017629 -0.03325,-0.2005402 -0.02938,-0.1991967 -0.0255,-0.1977333 -0.0216,-0.1961508 -0.01769,-0.19445 -0.01377,-0.1926322 -0.0098,-0.1906984 -0.0059,-0.1886497 -0.002,-0.1864872 0.002,-0.1842126 0.0059,-0.1818269 0.0098,-0.1793317 0.01377,-0.1767285 0.01769,-0.1740189 0.0216,-0.1712043 0.0255,-0.1682868 0.02938,-0.1652677 0.03325,-0.1621492 0.03709,-0.158933 0.04091,-0.1556211 0.04471,-0.1522154 0.04848,-0.148718 0.05222,-0.145131 0.05593,-0.1414567 0.05961,-0.1376971 0.06325,-0.1338546 0.06685,-0.1299314 0.07041,-0.12593 0.07393,-0.1218527 0.07741,-0.117702 0.08083,-0.1134804 0.08421,-0.1091905 0.08754,-0.1048348 0.09082,-0.100416 0.09404,-0.095937 0.0972,-0.0914 0.100308,-0.086807 0.103355,-0.082163 0.106337,-0.077469 0.109257,-0.072728 0.11211,-0.067944"
         id="path28" />
      <path
         d="m -24.742188,3.6039289 0.08591,-0.047793 0.08745,-0.045063 0.08896,-0.042317 0.09044,-0.039557 0.09189,-0.036783 0.0933,-0.033997 0.09469,-0.0312 0.09604,-0.028392 0.09736,-0.025574 0.09865,-0.022748 0.0999,-0.019914 0.101122,-0.017073 0.102308,-0.014226 0.103459,-0.011375 0.104574,-0.00852 0.105656,-0.00566 0.1067,-0.0028 0.107708,5.99e-5 0.108681,0.00292 0.109616,0.00578 0.110514,0.00864 0.111375,0.011494 0.112197,0.014345 0.112983,0.017192 0.113729,0.020032 0.114437,0.022866 0.115107,0.025692 0.115737,0.028509 0.116328,0.031317 0.11688,0.034114 0.117391,0.0369 0.117864,0.039673 0.118297,0.042432 0.118689,0.045177 0.11904,0.047907 0.119353,0.050621 0.119624,0.053317 0.119854,0.055996 0.120045,0.058655 0.120194,0.061295 0.120303,0.063914 0.120371,0.066511 0.120398,0.069085 0.120385,0.071637 0.12033,0.074163 0.120235,0.076665 0.120099,0.079141 0.119922,0.08159 0.119706,0.084011 0.119447,0.086404 0.119149,0.088768 0.118811,0.091101 0.118432,0.093404 0.118012,0.095675 0.117554,0.097914 0.117055,0.1001192 0.232454,0.2067182 0.229986,0.2151232 0.227205,0.2232369 0.224117,0.2310478 0.220725,0.2385457 0.217033,0.2457204 0.213048,0.252562 0.208773,0.2590612 0.204217,0.2652096 0.199382,0.2709983 0.194279,0.2764199 0.188911,0.2814668 0.183288,0.2861323 0.177416,0.29041 0.171304,0.2942942 0.164959,0.2977794 0.158391,0.3008612 0.151609,0.3035352 0.144621,0.3057987 0.137437,0.307646 0.130066,0.309077 0.12252,0.31009 0.114807,0.310682 0.106939,0.310853 0.09893,0.310603 0.09078,0.309932 0.08251,0.30884 0.07413,0.307331 0.06564,0.305405 0.05707,0.303065 0.0253,0.150526 0.02313,0.149788 0.02095,0.148998 0.01876,0.148158 0.01657,0.147268 0.01437,0.146328 0.01217,0.145338 0.01,0.144299 0.0078,0.143212 0.0055,0.142075 0.0033,0.14089 0.0011,0.139659"
         id="path29" />
      <path
         d="m -10.460434,11.486553 -2.027305,-0.372537"
         id="path30" />
      <path
         d="m -9.6965591,11.08913 -0.7638749,0.397423"
         id="path31" />
      <path
         d="M 8.2731493,5.1847533 7.5660426,5.5930016"
         id="path32" />
      <path
         d="m 7.5660426,5.5930016 -0.00802,0.2796652 -0.014099,0.2743362 -0.02017,0.2689201 -0.026228,0.2634094 -0.032265,0.2577981 -0.038276,0.2520815 -0.04425,0.2462566 -0.050179,0.2403218 -0.056053,0.234277 -0.061861,0.228124 -0.067591,0.221866 -0.073234,0.2155074 -0.078778,0.2090544 -0.084213,0.2025144 -0.08953,0.1958957 -0.094719,0.189208 L 6.6268074,9.5546993 6.5221256,9.7303677 6.4126838,9.8992072 6.2986378,10.061194 6.1801477,10.216319 6.0573773,10.364581 5.9304933,10.505997 5.7996635,10.640593 5.6650567,10.768406 5.5268412,10.889487 5.3851839,11.003895 5.2402495,11.1117 5.0922,11.212981 l -0.1510066,0.09484 -0.1538099,0.0885 -0.1564643,0.08225"
         id="path33" />
      <path
         d="m 4.6309192,11.478577 -0.094827,0.04627 -0.095696,0.04409 -0.096536,0.04194 -0.097348,0.03981 -0.098132,0.0377 -0.09889,0.03562 -0.099623,0.03356 -0.1003297,0.03152 -0.1010127,0.02951 -0.1016721,0.02752 -0.102309,0.02555 -0.1029238,0.02361 -0.2076078,0.04148 -0.2098205,0.03397"
         id="path34" />
      <path
         d="m -10.537295,-7.4672865 0.05343,-0.078676 0.05484,-0.076915 0.05625,-0.075132 0.05766,-0.073328 0.05906,-0.071501 0.06046,-0.069652 0.06185,-0.06778 0.06324,-0.065885 0.06463,-0.063966 0.066014,-0.062023 0.067396,-0.060055 0.068774,-0.058062 0.070149,-0.056044 0.07152,-0.054 0.072888,-0.05193 0.074253,-0.049834"
         id="path35" />
      <path
         d="m -9.514879,-8.5020686 0.075437,-0.047602 0.076788,-0.045461 0.078135,-0.043293 0.079478,-0.041098 0.080816,-0.038874 0.082151,-0.036623 0.08348,-0.034342 0.084804,-0.032033 0.096216,-0.033088 0.097491,-0.030207 0.098729,-0.027349 0.099932,-0.024513 0.1010984,-0.021701 0.1022308,-0.018909 0.1033294,-0.01614 0.1043949,-0.013391 0.1054281,-0.010662 0.1064296,-0.00795 0.1073999,-0.00526 0.1083397,-0.00259 0.1092496,6.31e-5 0.1101301,0.0027 0.1109818,0.00532 0.111805,0.00793 0.1126005,0.010517 0.1133683,0.013094 0.1141093,0.015657 0.1148235,0.018207 0.1155115,0.020745 0.1161736,0.023273 0.1168099,0.025789 0.1174211,0.028296 0.1180069,0.030794 0.1185681,0.033283 0.1191046,0.035766 0.1196166,0.038241 0.1201042,0.04071 0.1205677,0.043173 0.1210071,0.045632 0.1214224,0.048086 0.1218137,0.050537 0.1221812,0.052985 0.1225245,0.05543 0.1228439,0.057874 0.1231392,0.060317 0.1234103,0.062759 0.1236571,0.0652 0.1238794,0.067642 0.1240772,0.070085 0.12425,0.072528 0.124398,0.074974 0.1245204,0.07742 0.1246173,0.079869 0.1246884,0.08232 0.1247331,0.084774 0.1247513,0.08723 0.1247423,0.08969 0.124706,0.092151 0.1246417,0.094616 0.1245491,0.097084 0.1244276,0.099554 0.1242766,0.1020273 0.1240956,0.1045028 0.1238841,0.1069803 0.1236414,0.1094597 0.1233667,0.1119406 0.1230596,0.1144225 0.1227191,0.116905 0.1223448,0.1193874 0.1219356,0.1218693 0.121491,0.1243497 0.1210098,0.126828 0.2397433,0.2597443 0.23605792,0.2667531 0.23223169,0.2733993 0.22827135,0.2797026 0.22418226,0.2856816 0.21996839,0.291353 0.21563231,0.2967333 0.21117539,0.301837 0.20659777,0.3066778 0.20189855,0.3112679 0.19707577,0.3156183 0.1921265,0.3197387 0.1870469,0.3236377 0.1818327,0.3273221 0.1764784,0.3307979 0.1709781,0.33406931 0.1653256,0.33713938 0.1595136,0.3400097 0.1535352,0.34268042 0.1473826,0.3451503 0.141048,0.34741663 0.1345232,0.34947516 0.1278004,0.3513204 0.1208713,0.352945 0.1137281,0.3543401 0.1063626,0.3554959 0.098768,0.3564003 0.090935,0.3570398 0.042455,0.178673 0.040405,0.1787268 0.038323,0.1787428 0.03621,0.1787204 0.034064,0.1786579 0.031886,0.1785543 0.029675,0.1784083 0.027431,0.1782185 0.025186,0.177627 0.022986,0.1766422 0.020803,0.1756305 0.018636,0.1745926 0.016486,0.1735298 0.014351,0.1724426 0.012231,0.1713321 0.010126,0.170199 0.00804,0.169044 0.00596,0.1678676 0.00389,0.1666704 0.00184,0.1654531 -1.961e-4,0.1642158 -0.00222,0.1629592 -0.00424,0.1616832 -0.00625,0.1603886 -0.00824,0.1590751 -0.010229,0.1577432 -0.012207,0.1563928 -0.014177,0.1550241 -0.01614,0.1536368 -0.018095,0.1522313 -0.020045,0.1508071 -0.021988,0.1493642 -0.023926,0.1479026 -0.02586,0.1464218 -0.02779,0.1449217 -0.029716,0.1434018 -0.03164,0.1418621 -0.033561,0.1403018 -0.03548,0.1387207 -0.037398,0.1371185 -0.039316,0.1354944 -0.041233,0.1338482 -0.04315,0.132179 -0.045067,0.130487 -0.046986,0.12877 -0.048906,0.127029 -0.050828,0.125262 -0.052752,0.123471 -0.054679,0.121651 -0.056609,0.119806 -0.058541,0.117931 -0.060477,0.116028 -0.062417,0.114096 -0.06436,0.112133 -0.066307,0.110139 -0.068258,0.108114 -0.070214,0.106055 -0.072173,0.103963 -0.074136,0.101836 -0.076104,0.09968 -0.078075,0.09748 -0.080051,0.09524 -0.082029,0.09297 -0.084012,0.09066 -0.085997,0.08831 -0.087986,0.08592 -0.089977,0.08349 -0.091969,0.08102 -0.093964,0.0785 -0.095959,0.07595 -0.097955,0.07334 -0.099951,0.0707 -0.1328887,0.08799 -0.1352844,0.08308 -0.13760122,0.07821 -0.139842,0.07338"
         id="path36" />
      <path
         d="m 0.80960298,13.519695 -0.14689088,0.07084 -0.14913138,0.06576 -0.15129733,0.06072 -0.15339167,0.05572 -0.15541726,0.05076 -0.15737676,0.04583 -0.15927271,0.04095 -0.16110753,0.03609"
         id="path37" />
      <path
         d="m -14.011943,-5.4828829 0.05069,-0.073228 0.0521,-0.071567 0.05351,-0.069879 0.05492,-0.068163 0.08463,-0.098621 0.08735,-0.094466 0.09,-0.090333 0.09258,-0.086221 0.09509,-0.08213 0.09754,-0.078058 0.09993,-0.074006 0.102257,-0.069973"
         id="path38" />
      <path
         d="m -13.051348,-6.4395284 0.13561,-0.084549 0.139279,-0.077868 0.142827,-0.071221 0.146257,-0.064603 0.149575,-0.058012 0.152782,-0.051443 0.155882,-0.044893 0.158879,-0.038357 0.161774,-0.03183 0.164571,-0.025309 0.167271,-0.018788 0.169878,-0.012264 0.172392,-0.00573 0.174816,8.152e-4 0.17715,0.00738 0.179396,0.013965 0.181554,0.020577 0.183626,0.02722 0.1856095,0.033898 0.187507,0.040613 0.1893168,0.047371 0.1910384,0.054174 0.1926706,0.061026 0.1942123,0.067927 0.1956613,0.074883 0.197016,0.081892 0.1982734,0.088958 0.1994312,0.096081 0.2004858,0.103261 0.2014338,0.1104984 0.2022711,0.1177922 0.2029936,0.1251412 0.2035961,0.1325434 0.2040095,0.1399181 0.2035274,0.1463374 0.2027085,0.1523162 0.2017833,0.1581169 0.200756,0.1637469 0.19963,0.1692135 0.1984086,0.1745236 0.1970943,0.179684 0.1956894,0.184701 0.1941956,0.189581 0.1926144,0.1943302 0.1909466,0.198954 0.189193,0.2034578 0.1873536,0.2078469 0.1854285,0.212126 0.1834172,0.2162994 0.1813189,0.2203714 0.1791327,0.2243455 0.176857,0.2282253 0.1744905,0.2320134 0.1720311,0.2357127 0.1694771,0.2393251 0.1668258,0.2428523 0.164075,0.24629575 0.1612218,0.24965595 0.1582636,0.25293336 0.1551973,0.25612777 0.1520197,0.2592385 0.1487276,0.26226434 0.1453178,0.26520357 0.1417867,0.26805391 0.1381308,0.27081255 0.1343466,0.273476 0.1304305,0.2760404 0.1263789,0.2785011 0.12218802,0.2808529 0.11785448,0.28309 0.11337452,0.2852058 0.10874465,0.2871936 0.10396136,0.289045 0.0989961,0.2904939 0.0937993,0.2903122 0.0886016,0.2897439 0.0834325,0.2890318 0.07829074,0.2881828 0.07317491,0.2872037 0.06808314,0.2861 0.06301326,0.2848773 0.0579629,0.2835398 0.0529294,0.2820917 0.0479099,0.280536 0.0429013,0.2788757 0.0379006,0.2771127 0.0329042,0.2752485 0.0279088,0.2732845 0.0229109,0.2712207 0.0179069,0.2690574 0.012893,0.2667941 0.007866,0.2644295 0.002821,0.2619626 -0.002244,0.2593913 -0.007333,0.2567132 -0.0124494,0.2539259 -0.017597,0.251026 -0.0227786,0.2480097 -0.0279972,0.244875 -0.0332557,0.241616 -0.0385566,0.238228 -0.0439023,0.234708 -0.0492947,0.231049 -0.0547358,0.227247 -0.0602269,0.223297 -0.06576914,0.219191 -0.07136324,0.214926 -0.07700955,0.210494 -0.08270796,0.205888 -0.0884579,0.201103 -0.0942585,0.196133 -0.10010805,0.190968 -0.10600461,0.185605 -0.11168487,0.179811 -0.11649809,0.173205 -0.1211154,0.166563 -0.12560007,0.159947 -0.1299583,0.153352 -0.1341956,0.146783 -0.1383182,0.140237 -0.1423313,0.133714 -0.1462403,0.127213 -0.1500502,0.120733 -0.1537661,0.114269 -0.1573925,0.107823 -0.1609337,0.101387 -0.1643942,0.09496 -0.1677775,0.08854"
         id="path39" />
      <path
         d="m -2.691503,15.512639 -0.1448488,0.07005 -0.1471851,0.06543 -0.1494803,0.06081 -0.1517353,0.05619 -0.1539518,0.05156 -0.1561308,0.04692 -0.1582733,0.04227 -0.1603801,0.0376"
         id="path40" />
      <path
         d="m -17.447776,-3.4945993 0.0531,-0.072929 0.05434,-0.071238 0.05557,-0.069545 0.05678,-0.067849 0.05798,-0.066151 0.05917,-0.064451 0.06034,-0.062747 0.0615,-0.06104 0.06264,-0.059329 0.06377,-0.057614 0.06489,-0.055895 0.06599,-0.054172 0.06708,-0.052443 0.06816,-0.05071 0.06923,-0.048971 0.07028,-0.047226"
         id="path41" />
      <path
         d="m -16.456968,-4.4569087 0.134705,-0.083895 0.138303,-0.077683 0.14183,-0.071422 0.145284,-0.065108 0.14867,-0.058735 0.151986,-0.052301 0.155237,-0.045799 0.158422,-0.039227 0.161541,-0.032579 0.164597,-0.025851 0.167586,-0.019041 0.170512,-0.012143 0.173372,-0.00515 0.176165,0.00193 0.178891,0.00911 0.181546,0.016385 0.184131,0.023765 0.18664,0.031247 0.189072,0.038834 0.191423,0.046526 0.19369,0.054324 0.195866,0.062227 0.197369,0.069757 0.198236,0.076785 0.19897,0.083658 0.199576,0.09038 0.200058,0.096958 0.200422,0.1033979 0.20067,0.1097057 0.200805,0.1158874 0.200832,0.121949 0.200751,0.1278961 0.200566,0.1337346 0.200277,0.1394698 0.199889,0.1451073 0.1993978,0.1506521 0.1988082,0.1561091 0.1981189,0.1614834 0.1973304,0.1667792 0.1964423,0.1720007 0.1954541,0.177152 0.194365,0.1822366 0.1931739,0.1872578 0.1918793,0.1922185 0.1904798,0.1971212 0.1889733,0.2019682 0.1873578,0.2067609 0.1856308,0.21150091 0.18379,0.21618879 0.1818324,0.22082493 0.1797551,0.2254091 0.1775549,0.2299406 0.1752285,0.23441814 0.1727724,0.23883983 0.1701828,0.24320325 0.1674561,0.2475053 0.1645881,0.25174225 0.1615749,0.2559099 0.1584123,0.2600029 0.1550958,0.2640157 0.1516211,0.2679418 0.1479727,0.2717354 0.1438298,0.2741284 0.1394797,0.2757259 0.1351168,0.2771493 0.130742,0.2784069 0.1263554,0.2795063 0.1219568,0.2804545 0.1175456,0.2812579 0.1131208,0.2819224 0.108681,0.2824532 0.1042248,0.282855 0.09975,0.283132 0.095254,0.2832875 0.090736,0.2833249 0.086192,0.2832465 0.081619,0.2830542 0.077014,0.2827497 0.072375,0.2823338 0.067698,0.2818069 0.062979,0.2811692 0.058216,0.28042 0.053405,0.2795584 0.048542,0.2785829 0.043624,0.2774919 0.038647,0.2762828 0.033609,0.274953 0.028506,0.2734991 0.023335,0.2719179 0.018092,0.2702049 0.012776,0.268357 0.00738,0.266367 0.00191,0.264233 -0.00364,0.261946 -0.00928,0.259502 -0.015002,0.256897 -0.020809,0.254119 -0.026704,0.251166 -0.032686,0.248029 -0.038757,0.244701 -0.044915,0.241172 -0.051108,0.237341 -0.056753,0.23231 -0.062137,0.226947 -0.067406,0.221553 -0.072564,0.216131 -0.077618,0.210686 -0.082573,0.205216 -0.087432,0.199725 -0.092202,0.194213 -0.096886,0.188678 -0.1014897,0.183122 -0.1060178,0.177544 -0.1104748,0.17194 -0.1148648,0.166312 -0.1191922,0.160654 -0.1234607,0.154965 -0.1276745,0.149242 -0.131837,0.143481 -0.1359513,0.13768 -0.1400209,0.131834 -0.1440484,0.125938 -0.1480365,0.119989 -0.1519871,0.113982 -0.1559026,0.107913 -0.1597842,0.101777 -0.1636332,0.09557 -0.1674505,0.08929"
         id="path42" />
      <path
         d="m -6.2014166,17.545493 -0.09656,0.04777 -0.09777,0.04571 -0.098974,0.04363 -0.1001724,0.04155 -0.1013649,0.03944 -0.1025517,0.03731 -0.1037322,0.03517 -0.1049067,0.03301 -0.1060747,0.03083 -0.1072362,0.02863 -0.108391,0.02641 -0.1095385,0.02417 -0.1106787,0.02191 -0.1118113,0.01963 -0.1129357,0.01733 -0.1140516,0.01501"
         id="path43" />
      <path
         d="m -21.218682,-0.95417711 0.06417,-0.12289289 0.06693,-0.1196481 0.06966,-0.1163679 0.07236,-0.113051 0.07504,-0.1096959 0.0777,-0.1063009 0.08034,-0.1028646 0.08295,-0.099385 0.08554,-0.095861 0.08812,-0.092291 0.09067,-0.088672 0.09321,-0.085004 0.09572,-0.081285 0.09823,-0.077512 0.100711,-0.073685 0.103177,-0.069801"
         id="path44" />
      <path
         d="m -19.874147,-2.5084958 0.08614,-0.054122 0.08777,-0.051457 0.08939,-0.048758 0.091,-0.046027 0.0926,-0.04326 0.09419,-0.040459 0.09578,-0.037622 0.09735,-0.034749 0.09891,-0.031839 0.100463,-0.028892 0.102005,-0.025907 0.103535,-0.022884 0.105056,-0.019822 0.106563,-0.016722 0.108059,-0.013581 0.109541,-0.010402 0.107969,-0.00711 0.108946,-0.00421 0.109887,-0.00133 0.110792,0.00152 0.111663,0.00434 0.112499,0.00713 0.113302,0.0099 0.114073,0.012635 0.114812,0.015348 0.115519,0.018037 0.116196,0.020702 0.116842,0.023344 0.117461,0.025963 0.118048,0.02856 0.118608,0.031136 0.11914,0.033692 0.119644,0.036229 0.120121,0.038747 0.120571,0.041247 0.120994,0.04373 0.121392,0.046196 0.121763,0.048647 0.122109,0.051083 0.122429,0.053505 0.122724,0.055914 0.122994,0.05831 0.123239,0.060694 0.123459,0.063066 0.247479,0.1332087 0.248062,0.1425809 0.248448,0.151886 0.248634,0.1611333 0.24862,0.1703309 0.248404,0.1794863 0.24798,0.1886055 0.247345,0.19769361 0.246495,0.20675441 0.245422,0.21579025 0.24412,0.22480203 0.242584,0.23378905 0.240802,0.24274895 0.238767,0.25167755 0.236468,0.2605688 0.233898,0.26941465 0.23104,0.2782048 0.227888,0.2869272 0.223814,0.2941572 0.218956,0.2996953 0.2139954,0.3048744 0.2089378,0.3097142 0.2037864,0.314233 0.1985435,0.318448 0.1932098,0.3223745 0.1877853,0.3260267 0.1822684,0.3294172 0.1766569,0.3325574 0.1709473,0.3354572 0.1651352,0.3381248 0.159216,0.3405675 0.1531838,0.3427907 0.1470324,0.3447986 0.1407551,0.3465941 0.1343445,0.3481783 0.1277933,0.3495514 0.1210937,0.3507117 0.1142376,0.3516564 0.107217,0.3523812 0.100024,0.3528801 0.092651,0.3531463 0.085089,0.3531709 0.077332,0.3529442 0.069371,0.3524546 0.061202,0.351689 0.02747,0.175467 0.025346,0.175167 0.023194,0.174826 0.021014,0.174447 0.018806,0.174026 0.016569,0.173563 0.014303,0.173058 0.012008,0.172507 0.00968,0.171911 0.00733,0.171268 0.00762,0.318598 -1.46e-4,0.313626 -0.00777,0.308521 -0.01527,0.303296 -0.022642,0.297958 -0.029898,0.292512 -0.037045,0.286963 -0.044091,0.281317 -0.051044,0.275575 -0.057912,0.269736 -0.064701,0.263802 -0.034875,0.129646 -0.036547,0.128126 -0.038211,0.126594 -0.039868,0.125048 -0.041519,0.12349 -0.043164,0.12192 -0.044803,0.120334 -0.046436,0.118736 -0.048065,0.117123 -0.049689,0.115496 -0.051309,0.113854 -0.052926,0.112197 -0.054539,0.110523 -0.056149,0.108834 -0.057757,0.107128 -0.059362,0.105405 -0.060966,0.103664 -0.062567,0.101905 -0.064168,0.100127 -0.065766,0.09833 -0.067365,0.09651 -0.068962,0.09468 -0.070558,0.09282 -0.072154,0.09094 -0.07375,0.08904 -0.075346,0.08711 -0.076941,0.08517 -0.078536,0.08319 -0.080131,0.0812 -0.081726,0.07918 -0.083321,0.07713 -0.084916,0.07506 -0.08651,0.07296 -0.088104,0.07083 -0.089697,0.06868 -0.091289,0.06649 -0.09288,0.06428 -0.09447,0.06204 -0.096058,0.05977 -0.097644,0.05746 -0.099228,0.05513 -0.100809,0.05276"
         id="path45" />
      <path
         d="m -9.6178216,19.545277 -0.1062734,0.05221 -0.1079677,0.04959 -0.109657,0.04693 -0.1113403,0.04423 -0.140003,0.05099 -0.141659,0.04666 -0.143251,0.04237 -0.144783,0.03813 -0.146255,0.03393 -0.147671,0.02977 -0.149031,0.02564 -0.15034,0.02156 -0.151596,0.01752 -0.152804,0.01352 -0.153965,0.0095 -0.15508,0.0056 -0.15615,0.0017 -0.157177,-0.0022 -0.158163,-0.006 -0.159108,-0.0098 -0.160014,-0.01357 -0.160882,-0.01732 -0.161713,-0.02105 -0.162507,-0.02475 -0.163266,-0.02843 -0.163989,-0.03209 -0.164678,-0.03572 -0.165333,-0.03934 -0.165955,-0.04294 -0.166543,-0.04653 -0.167098,-0.0501 -0.167621,-0.05366 -0.168109,-0.05721 -0.168566,-0.06075 -0.168989,-0.06428 -0.169378,-0.0678"
         id="path46" />
      <path
         d="m -25.320841,4.0345648 0.0045,-0.1900981 0.008,-0.187551 0.01157,-0.1849489 0.01509,-0.1822907 0.01859,-0.1795749 0.02208,-0.1767999 0.02555,-0.1739639 0.029,-0.1710652 0.03245,-0.1681017 0.03588,-0.1650716 0.03931,-0.1619725 0.04272,-0.1588022 0.04614,-0.1555584 0.04955,-0.1522385 0.05296,-0.1488403 0.05636,-0.145361 0.05977,-0.1417982 0.06319,-0.1381489 0.0666,-0.13441063 0.07002,-0.13058061 0.07345,-0.12665595 0.07688,-0.12263387 0.08032,-0.11851152 0.08377,-0.11428598 0.08722,-0.10995441 0.09068,-0.10551387 0.09415,-0.10096146 0.09763,-0.09629424 0.10111,-0.0915093 0.104598,-0.0866038 0.108091,-0.0815747 0.111587,-0.0764192 0.0851,-0.0529621 0.08661,-0.0499408 0.08807,-0.0469501 0.08949,-0.0439906 0.09086,-0.0410626 0.09219,-0.0381664 0.09348,-0.0353022 0.09473,-0.03247 0.09594,-0.0296699 0.09711,-0.0269017 0.09824,-0.0241652 0.09934,-0.0214602 0.100397,-0.0187863 0.101422,-0.016143 0.102412,-0.01353 0.103371,-0.0109466 0.104296,-0.008392 0.10519,-0.005867 0.106053,-0.003369 0.106887,-8.9782e-4 0.10769,0.001547 0.108465,0.003966 0.109212,0.00636 0.109931,0.00873 0.110624,0.0110764 0.111291,0.0134009 0.111931,0.0157038 0.112547,0.0179862 0.113138,0.0202487 0.113704,0.0224923 0.114246,0.0247178 0.114766,0.0269262 0.230995,0.0604127 0.232796,0.0690606 0.23442,0.0776007 0.235869,0.0860458 0.237146,0.0944079 0.238255,0.10269878 0.239193,0.11092929 0.239963,0.11910985 0.240563,0.12725021 0.240996,0.13535958 0.241255,0.14344663 0.241343,0.15151963 0.241256,0.15958646 0.240992,0.16765486 0.240549,0.17573244 0.239925,0.18382693 0.237174,0.1942647 0.236609,0.203021 0.235852,0.2118823 0.234893,0.2208403 0.233717,0.2298851 0.23231,0.2390058 0.230651,0.2481878 0.228722,0.2574125 0.226507,0.2666575 0.223983,0.2758956 0.110944,0.1414016 0.11019,0.1436943 0.109392,0.1459767 0.10855,0.1482466 0.107664,0.1505016 0.106731,0.1527389 0.105752,0.1549563 0.104725,0.157151 0.103653,0.1593205 0.10253,0.1614622 0.101362,0.1635736 0.100143,0.165652 0.09888,0.1676953 0.09756,0.1697007 0.0962,0.1716663 0.09479,0.1735895 0.09334,0.1754687 0.09184,0.1773018 0.09029,0.1790869 0.0887,0.1808228 0.08706,0.1825078 0.08539,0.184141 0.08367,0.1857212 0.08192,0.1872479 0.08012,0.1887205 0.07829,0.1901388 0.07643,0.1915026 0.07453,0.1928124 0.07261,0.1940686 0.07065,0.1952718 0.06867,0.1964231 0.06667,0.1975236 0.06464,0.1985748 0.0626,0.1995783 0.06053,0.200536 0.05846,0.2014498 0.05636,0.2023214 0.05426,0.203154 0.05214,0.20395 0.05002,0.204711 0.04788,0.20544 0.04575,0.206138 0.0436,0.206811 0.04145,0.207457"
         id="path47" />
      <path
         d="M 7.5660426,5.5930016 7.4025241,5.5241097"
         id="path48" />
      <path
         d="M 17.359471,7.9404292 12.803122,-7.3918861"
         id="path49" />
      <path
         d="M 12.803122,18.011526 17.359471,7.9404292"
         id="path50" />
      <path
         d="M 12.803122,-7.3918861 1.8031223,-19.003958"
         id="path51" />
      <path
         d="M 1.8031223,16.921892 12.803122,18.011526"
         id="path52" />
      <path
         d="m 1.8031223,-19.003958 -11,-1.089634"
         id="path53" />
      <path
         d="m -0.7194733,14.258932 2.5225956,2.66296"
         id="path54" />
      <path
         d="m -9.1968777,-20.093592 -4.5563493,10.071096"
         id="path55" />
      <path
         d="m -13.753227,-10.022496 1.005463,3.3834269"
         id="path56" />
      <path
         d="M 7.4025241,5.5241097 7.3836347,5.7799853 7.3591569,6.0320348 7.3291597,6.2801292 7.2937141,6.524144 7.2528923,6.7639586 7.2067678,6.9994571 7.1554153,7.2305275 7.0989102,7.457062 7.0373286,7.6789569 6.9707474,7.8961126 6.8992434,8.1084332 6.8228941,8.3158267 6.7417771,8.5182048 6.6559701,8.7154829 6.5655511,8.9075795 6.470598,9.0944168 6.3711892,9.2759196 6.2674028,9.4520162 6.1593165,9.6226392 6.0470078,9.7877243 l -0.116454,0.159486 -0.1205224,0.1538287 -0.124514,0.148116 -0.1284289,0.142351 -0.1322671,0.136536 -0.1360285,0.130672 -0.1397127,0.124763 -0.1433197,0.118811 -0.1468487,0.112818 -0.1502995,0.106788 -0.1536711,0.10072 -0.1569631,0.09462"
         id="path57" />
      <path
         d="m 17.359471,7.9404292 9.899495,-5.715476"
         id="path58" />
      <path
         d="m 12.803122,-7.3918861 9.899495,-5.7154759"
         id="path59" />
      <path
         d="M 27.258966,2.2249532 22.702617,-13.107362"
         id="path60" />
      <path
         d="M 12.803122,18.011526 22.702617,12.29605"
         id="path61" />
      <path
         d="M 22.702617,12.29605 27.258966,2.2249532"
         id="path62" />
      <path
         d="m 1.8031223,-19.003958 9.8994947,-5.715476"
         id="path63" />
      <path
         d="m 22.702617,-13.107362 -11,-11.612072"
         id="path64" />
      <path
         d="m -9.1968777,-20.093592 9.89949493,-5.715476"
         id="path65" />
      <path
         d="M 11.702617,-24.719434 0.70261723,-25.809068"
         id="path66" />
      <path
         d="M 7.8031223,9.3512717 6.8557532,9.8982355"
         id="path67" />
      <path
         d="m -4.1968777,-11.433338 -3.5132375,2.0283686"
         id="path68" />
      <path
         d="m -24.742188,3.6039289 2.70594,-1.5622751"
         id="path69" />
      <path
         d="m -15.492188,19.625399 4.438471,-2.562553"
         id="path70" />
      <path
         d="M 5.3363835,11.124569 4.6309192,11.478577"
         id="path71" />
      <path
         d="M -8.8259697,-8.9504998 -9.514879,-8.5020686"
         id="path72" />
      <path
         d="M 1.5321949,13.155804 0.80960298,13.519695"
         id="path73" />
      <path
         d="m -12.366559,-6.8896313 -0.684789,0.4501029"
         id="path74" />
      <path
         d="M -1.9567954,15.142664 -2.691503,15.512639"
         id="path75" />
      <path
         d="m -15.77929,-4.9005655 -0.677678,0.4436568"
         id="path76" />
      <path
         d="m -5.4690353,17.173089 -0.7323813,0.372404"
         id="path77" />
      <path
         d="m -19.190611,-2.9526544 -0.683536,0.4441586"
         id="path78" />
      <path
         d="m -8.8975133,19.179697 -0.7203083,0.36558"
         id="path79" />
      <path
         d="m -22.767866,-0.89479584 -0.182992,0.11895791"
         id="path80" />
      <path
         d="m 4.3979781,11.317233 -0.1303897,0.07528"
         id="path81" />
    </g>
  </g>
</svg>
