<?xml version="1.0" encoding="UTF-8" standalone="no"?>
<svg
   width="730.0"
   height="416.0"
   version="1.1"
   id="svg26"
   sodipodi:docname="dogbones.svg"
   inkscape:version="1.3.2 (091e20ef0f, 2023-11-25, custom)"
   xmlns:inkscape="http://www.inkscape.org/namespaces/inkscape"
   xmlns:sodipodi="http://sodipodi.sourceforge.net/DTD/sodipodi-0.dtd"
   xmlns="http://www.w3.org/2000/svg"
   xmlns:svg="http://www.w3.org/2000/svg">
  <defs
     id="defs26" />
  <sodipodi:namedview
     id="namedview26"
     pagecolor="#ffffff"
     bordercolor="#000000"
     borderopacity="0.25"
     inkscape:showpageshadow="2"
     inkscape:pageopacity="0.0"
     inkscape:pagecheckerboard="0"
     inkscape:deskcolor="#d1d1d1"
     inkscape:zoom="2.5643836"
     inkscape:cx="364.80502"
     inkscape:cy="208.23718"
     inkscape:window-width="2556"
     inkscape:window-height="1436"
     inkscape:window-x="0"
     inkscape:window-y="0"
     inkscape:window-maximized="0"
     inkscape:current-layer="svg26"
     showgrid="false" />
  <g
     transform="matrix(3.7063084,0,0,-3.7063084,416.58926,164.46911)"
     stroke-width="0.5"
     fill="none"
     id="g26">
    <!-- hidden lines -->
    <g
       stroke="#0000ff"
       fill="none"
       stroke-dasharray="0.5, 0.5"
       id="g1" />
    <!-- solid lines -->
    <g
       stroke="#82b9ff"
       fill="none"
       id="g25"
       transform="translate(1.0751603,-2.4947337)">
      <path
         d="M -59.46768,25.270569 V 40.784004"
         id="path1" />
      <path
         d="M -57.204939,42.090399 -59.46768,40.784004"
         id="path2" />
      <path
         d="M -59.46768,25.270569 -36.233831,11.8565"
         id="path3" />
      <path
         d="M -59.46768,40.784004 -36.233831,27.369935"
         id="path4" />
      <path
         d="m -21.283914,16.289107 -0.473425,0.27574 -0.473388,0.280534 -0.473314,0.285307 -0.473204,0.290058 -0.473058,0.294786 -0.472873,0.299491 -0.472654,0.304173 -0.472396,0.308831 -0.472102,0.313466 -0.471773,0.318076 -0.471405,0.322662 -0.471002,0.327221 -0.470561,0.331757 -0.470085,0.336266 -0.469572,0.340749 -0.469023,0.345206 -0.468436,0.349636 -0.467814,0.354038 -0.467156,0.358414 -0.46646,0.362761 -0.46573,0.36708 -0.464963,0.371371 -0.464159,0.375634 -0.46332,0.379866 -0.462444,0.384069 -0.461534,0.388243 -0.460586,0.392386 -0.459604,0.3965 -0.458585,0.400581 -0.457532,0.404633 -0.456442,0.408652 -0.455317,0.412641"
         id="path5" />
      <path
         d="M -21.283914,16.289107 19.021172,-6.9810458"
         id="path6" />
      <path
         d="m 33.971089,-13.162894 -0.455317,0.113114 -0.456442,0.118401 -0.457531,0.123679 -0.458586,0.128948 -0.459604,0.134205 -0.460586,0.139453 -0.461533,0.14469 -0.462445,0.149916 -0.46332,0.155129 -0.464159,0.160332 -0.464963,0.165521 -0.465729,0.170698 -0.466461,0.175861 -0.467156,0.181011 -0.467814,0.186147 -0.468436,0.191268 -0.469023,0.196375 -0.469571,0.201466 -0.470086,0.206542 -0.470561,0.2116006 -0.471002,0.2166442 -0.471405,0.2216705 -0.471772,0.2266796 -0.472103,0.2316712 -0.472396,0.2366447 -0.472653,0.2415999 -0.472874,0.2465364 -0.473057,0.2514536 -0.473205,0.2563514 -0.473314,0.2612293 -0.473388,0.2660869 -0.473425,0.2709239"
         id="path7" />
      <path
         d="m 33.971089,-13.162894 23.23385,-13.41407"
         id="path8" />
      <path
         d="m 57.204939,-42.090399 v 15.513435"
         id="path9" />
      <path
         d="m 33.971089,-28.676329 23.23385,-13.41407"
         id="path10" />
      <path
         d="m 19.021172,-17.595501 0.473425,-0.27574 0.473388,-0.280535 0.473314,-0.285307 0.473205,-0.290057 0.473057,-0.294786 0.472874,-0.299491 0.472653,-0.304173 0.472396,-0.308832 0.472103,-0.313466 0.471772,-0.318076 0.471405,-0.322661 0.471002,-0.327222 0.470561,-0.331757 0.470086,-0.336266 0.469571,-0.340749 0.469023,-0.345205 0.468436,-0.349636 0.467814,-0.354038 0.467156,-0.358414 0.466461,-0.362761 0.465729,-0.367081 0.464963,-0.371371 0.464159,-0.375633 0.46332,-0.379866 0.462445,-0.38407 0.461533,-0.388243 0.460586,-0.392386 0.459604,-0.396499 0.458586,-0.400582 0.457531,-0.404633 0.456442,-0.408652 0.455317,-0.41264"
         id="path11" />
      <path
         d="M 19.021172,-17.595501 -21.283914,5.6746512"
         id="path12" />
      <path
         d="m -36.233831,11.8565 0.455317,-0.113115 0.456442,-0.118401 0.457532,-0.123679 0.458585,-0.128947 0.459604,-0.134206 0.460586,-0.139453 0.461534,-0.14469 0.462444,-0.149915 0.46332,-0.15513 0.464159,-0.160331 0.464963,-0.165522 0.46573,-0.170697 0.46646,-0.1758618 0.467156,-0.1810111 0.467814,-0.1861469 0.468436,-0.1912682 0.469023,-0.1963747 0.469572,-0.2014659 0.470085,-0.2065415 0.470561,-0.211601 0.471002,-0.2166442 0.471405,-0.2216705 0.471773,-0.2266797 0.472102,-0.2316711 0.472396,-0.2366448 0.472654,-0.2415999 0.472873,-0.2465363 0.473058,-0.2514536 0.473204,-0.2563514 0.473314,-0.2612294 0.473388,-0.2660869 0.473425,-0.2709239"
         id="path13" />
      <path
         d="m -57.204939,42.090399 23.23385,-13.41407"
         id="path14" />
      <path
         d="m -36.233831,27.369935 2.262742,1.306394"
         id="path15" />
      <path
         d="m -19.021172,17.595501 -0.473425,0.27574 -0.473388,0.280535 -0.473314,0.285307 -0.473205,0.290057 -0.473057,0.294786 -0.472874,0.299491 -0.472653,0.304173 -0.472396,0.308832 -0.472103,0.313466 -0.471772,0.318076 -0.471405,0.322661 -0.471002,0.327222 -0.470561,0.331757 -0.470086,0.336266 -0.469571,0.340749 -0.469023,0.345205 -0.468436,0.349636 -0.467814,0.354038 -0.467156,0.358414 -0.466461,0.362761 -0.465729,0.367081 -0.464963,0.371371 -0.464159,0.375633 -0.46332,0.379866 -0.462445,0.38407 -0.461533,0.388243 -0.460586,0.392386 -0.459604,0.396499 -0.458586,0.400582 -0.457531,0.404633 -0.456442,0.408652 -0.455317,0.41264"
         id="path16" />
      <path
         d="M 21.283914,-5.6746512 -19.021172,17.595501"
         id="path17" />
      <path
         d="m 36.233831,-11.8565 -0.455317,0.113115 -0.456442,0.118401 -0.457532,0.123679 -0.458585,0.128947 -0.459604,0.134206 -0.460586,0.139453 -0.461534,0.14469 -0.462444,0.149915 -0.46332,0.15513 -0.464159,0.160331 -0.464963,0.165522 -0.46573,0.170697 -0.46646,0.1758618 -0.467156,0.1810111 -0.467814,0.1861469 -0.468436,0.1912682 -0.469023,0.1963747 -0.469572,0.2014659 -0.470085,0.2065415 -0.470561,0.211601 -0.471002,0.2166442 -0.471405,0.2216705 -0.471773,0.2266797 -0.472102,0.2316711 -0.472396,0.2366448 -0.472654,0.2415999 -0.472873,0.2465363 -0.473058,0.2514536 -0.473204,0.2563514 -0.473314,0.2612294 -0.473388,0.2660869 -0.473425,0.2709239"
         id="path18" />
      <path
         d="M 36.233831,-11.8565 59.46768,-25.270569"
         id="path19" />
      <path
         d="m 59.46768,-40.784004 v 15.513435"
         id="path20" />
      <path
         d="m -19.021172,17.595501 -2.262742,-1.306394"
         id="path21" />
      <path
         d="m 19.021172,-6.9810458 2.262742,1.3063946"
         id="path22" />
      <path
         d="m 33.971089,-13.162894 2.262742,1.306394"
         id="path23" />
      <path
         d="m 59.46768,-25.270569 -2.262741,-1.306395"
         id="path24" />
      <path
         d="m 59.46768,-40.784004 -2.262741,-1.306395"
         id="path25" />
    </g>
  </g>
  <g
     transform="matrix(4.8927068,0,0,-4.8927068,291.87844,241.81181)"
     stroke-width="0.4"
     fill="none"
     id="g34">
    <!-- hidden lines -->
    <g
       stroke="#0000ff"
       fill="none"
       stroke-dasharray="0.4, 0.4"
       id="g2" />
    <!-- solid lines -->
    <g
       stroke="#82b9ff"
       fill="none"
       id="g33">
      <path
         d="M -41.790011,15.064362 -28.042484,7.1272236"
         id="path1-3" />
      <path
         d="m -39.527269,31.884191 13.747527,-7.937138"
         id="path2-7" />
      <path
         d="m -25.779742,23.947053 0.32353,-0.190209 0.323422,-0.196983 0.323206,-0.203692 0.32288,-0.210331 0.322448,-0.2169 0.321906,-0.223397 0.321257,-0.229819 0.320501,-0.236164 0.319636,-0.24243 0.318666,-0.248614 0.317588,-0.254715 0.316403,-0.260732 0.315114,-0.266659 0.313718,-0.2725 0.312217,-0.278247 0.310611,-0.283902 0.308903,-0.289461 0.307089,-0.294924 0.305173,-0.300289 0.303156,-0.305551 0.301036,-0.310713 0.298815,-0.315769 0.296496,-0.320721 0.294075,-0.325564 0.291557,-0.330299 0.288941,-0.334923 0.286228,-0.339434 0.28342,-0.343833 0.280515,-0.348116 0.277519,-0.352282 0.274428,-0.35633 0.271245,-0.360259"
         id="path3-5" />
      <path
         d="m -10.535891,9.8387838 -0.181177,0.1065172 -0.181117,0.110311 -0.180995,0.114067 -0.180813,0.117785 -0.18057,0.121464 -0.180268,0.125103 -0.179904,0.128698 -0.17948,0.132252 -0.178997,0.135761 -0.178452,0.139224 -0.177849,0.14264 -0.177186,0.14601 -0.176464,0.149329 -0.175682,0.1526 -0.174842,0.155818 -0.173942,0.158985 -0.172985,0.162099 -0.17197,0.165157 -0.170897,0.168162 -0.169768,0.171109 -0.16858,0.173999 -0.167336,0.176831 -0.166038,0.179603 -0.164682,0.182316 -0.163272,0.184967 -0.161807,0.187557 -0.160287,0.190084 -0.158715,0.192546 -0.157089,0.194945 -0.155411,0.197278 -0.153679,0.199545 -0.151898,0.201745"
         id="path4-9" />
      <path
         d="M 12.798633,-3.6334098 -10.535891,9.8387838"
         id="path5-2" />
      <path
         d="m 18.270784,-4.8875994 -0.151897,-0.026349 -0.15368,-0.022091 -0.15541,-0.017826 -0.157089,-0.013554 -0.158715,-0.00928 -0.160288,-0.005 -0.161807,-7.182e-4 -0.163271,0.00356 -0.164683,0.00784 -0.166037,0.01212 -0.167337,0.016393 -0.16858,0.020661 -0.169767,0.024921 -0.170897,0.029174 -0.17197,0.033416 -0.172985,0.037648 -0.173943,0.041866 -0.174841,0.046071 -0.175682,0.050261 -0.176464,0.054433 -0.177186,0.058587 -0.177849,0.062722 -0.178453,0.066836 -0.178996,0.070927 -0.179481,0.074994 -0.179904,0.079037 -0.180267,0.083053 -0.180571,0.087041 -0.180813,0.091 -0.180995,0.094928 -0.181116,0.098825 -0.181177,0.1026881"
         id="path6-2" />
      <path
         d="m 18.270784,-4.8875994 0.13522,0.024476 0.136026,0.022576 0.274428,0.039448 0.277518,0.031831 0.280516,0.024204 0.28342,0.016568 0.286228,0.00893 0.288941,0.00128 0.291557,-0.00636 0.294075,-0.014005 0.296495,-0.021642 0.298816,-0.029273 0.301036,-0.036894 0.303155,-0.044502 0.305174,-0.052096 0.307089,-0.059672 0.308902,-0.067228 0.310612,-0.074761 0.312217,-0.08227 0.313718,-0.089751 0.315113,-0.097202 0.316404,-0.1046202 0.317588,-0.1120035 0.318665,-0.1193493 0.319637,-0.126655 0.320501,-0.1339184 0.321257,-0.1411369 0.321906,-0.1483081 0.322447,-0.1554297 0.322881,-0.1624991 0.323205,-0.1695142 0.323422,-0.1764724 0.323531,-0.1833716"
         id="path7-8" />
      <path
         d="M 28.042484,-7.1272236 41.790011,-15.064362"
         id="path8-9" />
      <path
         d="m 41.790011,-30.577797 v 15.513435"
         id="path9-7" />
      <path
         d="m -28.042484,7.1272236 0.323531,-0.1833716 0.323422,-0.1764724 0.323205,-0.1695142 0.322881,-0.1624991 0.322447,-0.1554297 0.321906,-0.1483081 0.321257,-0.1411369 0.320501,-0.1339184 0.319637,-0.126655 0.318665,-0.1193493 0.317588,-0.1120035 0.316404,-0.1046202 0.315113,-0.097202 0.313718,-0.089751 0.312217,-0.08227 0.310612,-0.074761 0.308902,-0.067228 0.307089,-0.059672 0.305174,-0.052096 0.303155,-0.044502 0.301036,-0.036894 0.298816,-0.029273 0.296495,-0.021642 0.294075,-0.014005 0.291557,-0.00636 0.288941,0.00128 0.286228,0.00893 0.28342,0.016568 0.280516,0.024204 0.277518,0.031831 0.274428,0.039448 0.136026,0.022576 0.13522,0.024476"
         id="path10-3" />
      <path
         d="M -41.790011,15.064362 V 30.577797"
         id="path11-6" />
      <path
         d="m -39.527269,31.884191 -2.262742,-1.306394"
         id="path12-1" />
      <path
         d="m -41.790011,30.577797 13.747527,-7.937138"
         id="path13-2" />
      <path
         d="m -28.042484,22.640659 0.323531,-0.19021 0.323422,-0.196983 0.323205,-0.203691 0.322881,-0.210331 0.322447,-0.216901 0.321906,-0.223397 0.321257,-0.229819 0.320501,-0.236164 0.319637,-0.242429 0.318665,-0.248614 0.317588,-0.254716 0.316404,-0.260731 0.315113,-0.26666 0.313718,-0.272499 0.312217,-0.278247 0.310612,-0.283902 0.308902,-0.289462 0.307089,-0.294924 0.305174,-0.300288 0.303155,-0.305552 0.301036,-0.310712 0.298816,-0.31577 0.296495,-0.32072 0.294075,-0.325565 0.291557,-0.330298 0.288941,-0.334923 0.286228,-0.339435 0.28342,-0.343833 0.280516,-0.348115 0.277518,-0.352282 0.274428,-0.356331 0.271246,-0.360259"
         id="path14-9" />
      <path
         d="m -12.798633,8.5323893 -0.181177,0.1065172 -0.181116,0.1103106 -0.180995,0.1140672 -0.180813,0.1177854 -0.180571,0.1214643 -0.180267,0.1251023 -0.179904,0.1286987 -0.179481,0.1322517 -0.178996,0.1357606 -0.178453,0.1392238 -0.177849,0.1426406 -0.177186,0.1460093 -0.176464,0.14933 -0.175682,0.152599 -0.174841,0.155819 -0.173943,0.158985 -0.172985,0.162098 -0.17197,0.165158 -0.170897,0.168161 -0.169767,0.171109 -0.16858,0.173999 -0.167337,0.176831 -0.166037,0.179604 -0.164683,0.182316 -0.163271,0.184967 -0.161807,0.187557 -0.160288,0.190083 -0.158715,0.192546 -0.157089,0.194945 -0.15541,0.197278 -0.15368,0.199545 -0.151897,0.201745"
         id="path15-3" />
      <path
         d="M -12.798633,8.5323893 10.535891,-4.9398043"
         id="path16-1" />
      <path
         d="m 16.008043,-6.1939939 -0.151898,-0.026349 -0.153679,-0.022091 -0.155411,-0.017825 -0.157089,-0.013554 -0.158715,-0.00928 -0.160287,-0.005 -0.161807,-7.182e-4 -0.163272,0.00356 -0.164682,0.00784 -0.166038,0.01212 -0.167336,0.016393 -0.16858,0.02066 -0.169768,0.024921 -0.170897,0.029174 -0.17197,0.033416 -0.172985,0.037648 -0.173942,0.041866 -0.174842,0.046071 -0.175682,0.050261 -0.176464,0.054433 -0.177186,0.058587 -0.177849,0.062722 -0.178452,0.066835 -0.178997,0.070927 -0.17948,0.074994 -0.179904,0.079037 -0.180268,0.083053 -0.18057,0.087041 -0.180813,0.090999 -0.180995,0.094928 -0.181117,0.098825 -0.181177,0.1026881"
         id="path17-9" />
      <path
         d="m -18.270784,4.8875994 0.151897,0.026349 0.15368,0.022091 0.15541,0.017826 0.157089,0.013554 0.158715,0.00928 0.160288,0.005 0.161807,7.182e-4 0.163271,-0.00356 0.164683,-0.00784 0.166037,-0.01212 0.167337,-0.016393 0.16858,-0.020661 0.169767,-0.024921 0.170897,-0.029174 0.17197,-0.033416 0.172985,-0.037648 0.173943,-0.041866 0.174841,-0.046071 0.175682,-0.050261 0.176464,-0.054433 0.177186,-0.058587 0.177849,-0.062722 0.178453,-0.066836 0.178996,-0.070927 0.179481,-0.074994 0.179904,-0.079037 0.180267,-0.083053 0.180571,-0.087041 0.180813,-0.091 0.180995,-0.094928 0.181116,-0.098825 0.181177,-0.1026881"
         id="path18-4" />
      <path
         d="m 16.008043,-6.1939939 0.135219,0.024475 0.136026,0.022576 0.274428,0.039448 0.277519,0.031831 0.280515,0.024204 0.28342,0.016568 0.286228,0.00893 0.288941,0.00128 0.291557,-0.00636 0.294075,-0.014005 0.296496,-0.021643 0.298815,-0.029273 0.301036,-0.036894 0.303156,-0.044502 0.305173,-0.052096 0.307089,-0.059672 0.308903,-0.067228 0.310611,-0.074762 0.312217,-0.08227 0.313718,-0.089751 0.315114,-0.097202 0.316403,-0.1046202 0.317588,-0.1120034 0.318666,-0.1193493 0.319636,-0.126655 0.320501,-0.1339184 0.321257,-0.1411369 0.321906,-0.1483081 0.322448,-0.1554297 0.32288,-0.1624991 0.323206,-0.1695142 0.323422,-0.1764725 0.32353,-0.1833715"
         id="path19-7" />
      <path
         d="M 10.535891,-9.8387838 -12.798633,3.6334098"
         id="path20-8" />
      <path
         d="M 25.779742,-8.4336181 39.527269,-16.370756"
         id="path21-4" />
      <path
         d="m 10.535891,-9.8387838 0.181177,-0.1065172 0.181117,-0.110311 0.180995,-0.114067 0.180813,-0.117785 0.18057,-0.121464 0.180268,-0.125103 0.179904,-0.128698 0.17948,-0.132252 0.178997,-0.135761 0.178452,-0.139224 0.177849,-0.14264 0.177186,-0.14601 0.176464,-0.149329 0.175682,-0.1526 0.174842,-0.155818 0.173942,-0.158985 0.172985,-0.162099 0.17197,-0.165157 0.170897,-0.168162 0.169768,-0.171109 0.16858,-0.173999 0.167336,-0.176831 0.166038,-0.179603 0.164682,-0.182316 0.163272,-0.184967 0.161807,-0.187557 0.160287,-0.190084 0.158715,-0.192546 0.157089,-0.194945 0.155411,-0.197278 0.153679,-0.199545 0.151898,-0.201745"
         id="path22-5" />
      <path
         d="m 39.527269,-31.884191 v 15.513435"
         id="path23-0" />
      <path
         d="m 25.779742,-23.947053 -0.32353,0.190209 -0.323422,0.196983 -0.323206,0.203692 -0.32288,0.210331 -0.322448,0.2169 -0.321906,0.223397 -0.321257,0.229819 -0.320501,0.236164 -0.319636,0.24243 -0.318666,0.248614 -0.317588,0.254715 -0.316403,0.260732 -0.315114,0.266659 -0.313718,0.2725 -0.312217,0.278247 -0.310611,0.283902 -0.308903,0.289461 -0.307089,0.294924 -0.305173,0.300289 -0.303156,0.305551 -0.301036,0.310713 -0.298815,0.315769 -0.296496,0.320721 -0.294075,0.325564 -0.291557,0.330299 -0.288941,0.334923 -0.286228,0.339434 -0.28342,0.343833 -0.280515,0.348116 -0.277519,0.352282 -0.274428,0.35633 -0.271245,0.360259"
         id="path24-3" />
      <path
         d="m 25.779742,-23.947053 13.747527,-7.937138"
         id="path25-6" />
      <path
         d="M -10.535891,9.8387838 -12.798633,8.5323893"
         id="path26" />
      <path
         d="m 10.535891,-4.9398043 2.262742,1.3063945"
         id="path27" />
      <path
         d="m 41.790011,-15.064362 -2.262742,-1.306394"
         id="path28" />
      <path
         d="m 41.790011,-30.577797 -2.262742,-1.306394"
         id="path29" />
      <path
         d="m -28.042484,22.640659 2.262742,1.306394"
         id="path30" />
      <path
         d="m -18.270784,13.596896 2.262741,1.306395"
         id="path31" />
      <path
         d="m 16.008043,-6.1939939 2.262741,1.3063945"
         id="path32" />
      <path
         d="m 25.779742,-8.4336181 2.262742,1.3063945"
         id="path33" />
    </g>
  </g>
</svg>
